<?xml version="1.0" encoding="utf-8"?>
<!-- Generator: Adobe Illustrator 18.0.0, SVG Export Plug-In . SVG Version: 6.00 Build 0)  -->
<!DOCTYPE svg PUBLIC "-//W3C//DTD SVG 1.0//EN" "http://www.w3.org/TR/2001/REC-SVG-20010904/DTD/svg10.dtd">
<svg version="1.0" id="Capa_1" xmlns="http://www.w3.org/2000/svg" xmlns:xlink="http://www.w3.org/1999/xlink" x="0px" y="0px"
	 viewBox="0 0 195 54.4" enable-background="new 0 0 195 54.4" xml:space="preserve">
<g>
	<g>
		<polygon fill-rule="evenodd" clip-rule="evenodd" points="23.2,46.3 23.2,46.3 23.2,46.3 		"/>
		<path fill-rule="evenodd" clip-rule="evenodd" d="M50.5,23.9C50.5,23.9,50.5,23.9,50.5,23.9c0-0.2,0.1-0.3,0.1-0.5
			c0-0.3-0.1-0.5-0.1-0.8c0-0.1,0-0.2,0-0.3c0,0,0,0-0.1,0c0-0.1,0-0.2,0-0.3c0-0.1,0-0.2,0-0.3c0,0-0.1,0-0.1,0
			c0-0.1-0.1-0.3-0.1-0.4c0-0.3-0.1-0.6-0.1-0.9c0,0,0-0.1,0-0.1c0,0-0.1-0.1-0.1-0.1c0-0.1,0-0.1,0-0.2c0-0.1-0.1-0.3-0.1-0.4
			c-0.2-0.3-0.3-0.7-0.5-1c0,0-0.1-0.1-0.1-0.1c0,0,0-0.1,0-0.1c0,0,0-0.1,0-0.1c0,0-0.1,0-0.1,0c0-0.1-0.1-0.2-0.1-0.3
			c0-0.1-0.1-0.1-0.1-0.2c0-0.1-0.1-0.1-0.1-0.2c-0.2-0.4-0.5-0.7-0.7-1.1c-0.1-0.2-0.2-0.4-0.4-0.5c-0.1-0.1-0.1-0.2-0.2-0.3
			c-0.7-1.4-1.5-2.6-2.4-3.5c-0.3-0.4-0.7-0.7-0.9-1c-0.3-0.3-0.6-0.6-0.8-0.8c-0.5-0.4-0.8-0.7-0.9-0.7c-0.3-0.2-0.5-0.3-0.7-0.5
			c-0.2-0.1-0.3-0.3-0.4-0.4c-0.2-0.3-0.4-0.5-0.7-0.8c-0.5-0.3-1-0.5-1.4-0.7c-0.4-0.2-0.8-0.3-1.2-0.4c-0.7-0.2-1.3-0.4-1.7-0.8
			c-0.2-0.2-0.9-0.4-1.7-0.7c-0.4-0.1-0.9-0.2-1.4-0.3C33.2,5,32.8,5,32.4,4.9c0,0,0-0.1,0.1-0.1c-0.1,0-0.2,0-0.3,0.1
			c0,0,0,0-0.1,0c-0.1,0-0.1,0-0.1,0c0,0,0,0,0,0c0,0-0.4-0.1-0.6-0.1c-0.1,0-0.2,0.1-0.2,0.1C31.1,4.8,31,5,30.9,5h0
			c0,0,0-0.1,0-0.1c-1.7-0.2-3.1-0.3-3.7-0.5c0,0-0.1,0-0.2,0c-0.1,0-0.3,0.1-0.5,0.1c-0.4,0.1-1,0.2-1.4,0.1
			c-1.2-0.1-2,0.4-3.4,0.6c-0.4,0.1-0.8,0.1-1.2,0.3c-0.5,0.2-1,0.4-1.5,0.6c-0.5,0.2-1.1,0.5-1.6,0.9c-0.3,0.2-0.5,0.3-0.8,0.5
			c-0.3,0.2-0.5,0.4-0.8,0.5c-1,0.7-1.9,1.5-2.5,2.1c-0.7,0.7-1.1,1.2-1.3,1.3c-0.1,0.1-0.3,0.3-0.5,0.4c-0.2,0.2-0.3,0.4-0.4,0.5
			c-0.1,0.2-0.4,0.5-0.8,0.9C10,13.6,9.8,13.8,9.6,14c-0.2,0.2-0.4,0.5-0.6,0.8c-0.4,0.6-0.8,1.1-1.1,1.6c-0.3,0.5-0.5,0.9-0.5,1.1
			c-0.1,1-0.6,1.1-0.7,2c0,0.4-0.1,0.9-0.4,1.4C6.3,21,6,21.9,6,22c0.1,0.4,0.2,0.2,0.2,0.5c0,0.2-0.1,0.5-0.2,1.1
			c-0.1,0.6-0.2,1.5-0.4,3c0,0.5,0.1,1.2,0.1,2.1c0,0.5,0.1,0.9,0.2,1.5c0,0.3,0.1,0.5,0.1,0.8c0,0.1,0.1,0.3,0.1,0.4
			c0,0.1,0.1,0.3,0.1,0.4c0.5,2.3,1.7,4.7,3,6.6c0.3,0.5,0.6,0.9,0.9,1.3c0.3,0.4,0.6,0.7,0.9,1c0.3,0.3,0.5,0.6,0.8,0.7
			c0.2,0.2,0.4,0.3,0.6,0.4c0.3,0.2,0.4,0.2,0.3,0c0-0.1-0.2-0.3-0.3-0.6c-0.1-0.1-0.2-0.3-0.3-0.4c-0.1-0.2-0.2-0.4-0.4-0.6
			c-0.5-0.8,0-0.5,0.6,0.1c0.7,0.6,1.6,1.2,1.8,1.3c0.1,0,0.5,0.2,0.7,0.4c0.6,0.7,0.7,0.9,0.8,0.9c0.1,0,0.1,0,0.7,0.1
			c0,0,0.7,0.4,1.5,0.8c0.8,0.3,1.6,0.7,1.8,0.7c0.1,0.1,0.2,0.2,0.3,0.2c0,0,0,0,0,0c0.1,0.1,0.2,0.1,0.3,0.2
			c0.1,0,0.2,0.1,0.3,0.1c0,0,0,0,0,0c0,0,0.1,0.1,0.1,0.1c0.1,0.1,0.2,0.1,0.3,0.2c0,0-0.1,0.1-0.1,0.1c0.1,0.1,0.2,0.1,0.3,0.2
			c0.1-0.1,0.2-0.2,0.3-0.3c0,0,0.2,0.1,0.2,0.1c0,0,0.3,0.1,0.3,0.1v0c0,0.1-0.2,0.2-0.2,0.3c0.1,0-0.1,0.2,0,0.3
			c0.1-0.1,0.1,0,0.1,0h0c0,0,0.2,0,0.2,0.1c0,0,0.2-0.1,0.2-0.1l0.1,0c0,0,0,0,0,0c0.1,0,0.1,0,0.2,0h0c0.1,0,0.3,0.1,0.4,0.2
			c0.1,0,0,0,0,0C23,46.1,23,46,23,45.9v-0.1c1,0,0.5,0.1,0.5,0.1h0c0,0,0.1,0,0.1,0.1l0,0c-0.1,0-0.1,0.1-0.2,0.1
			c-0.1,0-0.1,0.1-0.2,0.1c0.1,0,0.2,0.1,0.3,0.1l0,0l0,0l0,0c0.1,0,0.1,0.1,0.2,0.1c0,0,0.1,0,0.1,0c0.1,0,0.1,0,0.2,0
			c-0.1,0-0.4,0-0.7,0c-0.4,0-0.9-0.1-1.4-0.1c-0.5,0-1-0.1-1.4-0.2c-0.4-0.1-0.7-0.1-0.8-0.2c-1-0.1-2.8-1-3.5-1.3
			c-0.4-0.2-0.6-0.2-0.9-0.3c-0.3-0.1-0.6-0.3-1.4-0.8c-0.3-0.2-0.5-0.3-0.8-0.5c-0.2-0.2-0.4-0.3-0.6-0.5c-0.4-0.3-0.7-0.5-0.9-0.7
			c-0.5-0.4-0.8-0.6-1-0.8c-0.4-0.3-0.4-0.4-1.1-1.2c-0.2-0.2-0.3-0.4-0.5-0.7c-0.2-0.2-0.4-0.5-0.6-0.7C8.2,38.5,8,38.2,7.8,38
			c-0.2-0.2-0.3-0.4-0.5-0.6c-0.3-0.4-0.6-0.8-0.8-1.1c-0.2-0.3-0.3-0.6-0.2-0.8c0-0.1,0-0.2-0.1-0.3c-0.1-0.2-0.3-0.4-0.4-0.6
			c-0.1-0.2-0.3-0.5-0.4-0.7C5.2,33.2,5,32.7,4.8,32c-0.1-0.5-0.2-0.5-0.2-0.5c0-0.1-0.1-0.2-0.2-0.9c-0.1-0.6-0.4-1.3-0.5-1.4
			C3.9,29.4,4,29.7,4,30c0.1,0.7,0.2,1.2,0.2,1.8c0,0.4,0.6,2.4,0.9,2.9C5.4,35.4,5.7,36,6,36.4c0.1,0.2,0.2,0.4,0.3,0.5
			C6.4,37,6.4,37,6.4,37c0.3,0.6,0.6,1.1,0.9,1.7c0.3,0.5,0.7,1.1,1.1,1.5c0.2,0.2,0.3,0.5,0.5,0.7c0.2,0.2,0.4,0.4,0.6,0.6
			c0.4,0.4,0.7,0.8,1.1,1.2c0.4,0.3,0.8,0.7,1.2,1c0.2,0.2,0.4,0.3,0.6,0.5c0.2,0.1,0.4,0.3,0.6,0.4c0.4,0.3,0.8,0.5,1.2,0.8
			c0.4,0.2,0.8,0.4,1.2,0.6c0.2,0.1,0.4,0.1,0.4,0c-0.1-0.2,0.1-0.2,0.4-0.1c0.3,0.1,0.7,0.3,1.3,0.4c0.3,0.1,0.4,0.1,0.8,0.4
			c0.4,0.3,0.7,0.5,0.3,0.5c-0.2,0-0.5-0.1-0.7-0.1c0.1,0.1,0.3,0.2,0.7,0.3c0.3,0.1,0.8,0.3,1.3,0.5c0.3,0.1,0.5,0.2,0.8,0.3
			c0.3,0.1,0.6,0.2,0.9,0.2c0.6,0.1,1.3,0.3,2,0.4c0.4,0,0.7,0.1,1.1,0.1c0.4,0,0.7,0.1,1.1,0.1c0.7,0,1.4,0.1,2,0
			c0.6,0,1.2-0.1,1.8-0.1c0.5,0,1-0.1,1.3-0.2c1.1-0.2,0.6-0.3,0.4-0.5c-0.2-0.3,1.1,0,1.6-0.2c0.6-0.1,0.5,0,0.9,0
			c0.1,0,0.2,0,0.4-0.1c0.2,0,0.4-0.1,0.7-0.2c0.3-0.1,0.6-0.2,1.1-0.4c0.2-0.1,0.4-0.2,0.7-0.3c0.2-0.1,0.5-0.3,0.8-0.4
			c0.5-0.3,1.1-0.6,1.6-1c0.3-0.2,0.5-0.4,0.8-0.5l0.4-0.3l0.4-0.3c0.5-0.4,1-0.8,1.5-1.2c0.5-0.4,0.9-0.8,1.4-1.2
			c0.3-0.3,0.5-0.6,0.7-0.9c0.2-0.3,0.4-0.7,0.5-1.1c0.1-0.3,0.1-0.6,0.2-0.8c0.4-0.5,0.8-1,1.2-1.5c0,0,0.1,0,0.1,0
			c0,0,0.1-0.1,0.1-0.1c0-0.1,0.1-0.1,0.1-0.2c0.1-0.1,0.1-0.2,0.2-0.3c0,0,0,0,0.1,0c0-0.1,0-0.1,0-0.2c0,0,0.1,0,0.1,0
			c0-0.1,0-0.1,0-0.2c0,0,0.1,0.2,0.1,0.2c0-0.1,0.1,0,0.1,0h0c0,0,0.1-0.3,0.1-0.4c0.2-0.3,0.5-0.7,0.7-1.1
			c0.1-0.2,0.1-0.4,0.2-0.6c0,0,0,0,0.1,0c0.2-0.3,0.3-0.6,0.5-0.9c0.1-0.1,0.2-0.3,0.3-0.4c0-0.1,0.1-0.2,0.1-0.3
			c0-0.1,0.1-0.1,0.1-0.2c0-0.1,0.1-0.1,0.1-0.2c0.2-0.6,0.4-1.2,0.7-1.8c0-0.2,0-0.5,0-0.7c0,0,0,0,0.1,0c0.1-0.3,0.2-0.6,0.3-0.9
			c0-0.1,0.1-0.2,0.1-0.3c0-0.3,0.1-0.6,0.1-0.9c0-0.2,0-0.3,0.1-0.5c0,0,0,0,0.1,0c0.1-0.5,0.1-1,0.1-1.6c0.2-0.4,0.3-0.8,0.2-1.2
			C50.5,24.6,50.6,24.3,50.5,23.9C50.6,24,50.6,24,50.5,23.9z M42.9,42.1c0,0-0.1,0.1-0.1,0.1C42.9,42.2,42.9,42.2,42.9,42.1z
			 M23.3,45.1c0.2,0,0.4,0,0.8,0.1c0.7,0.1,0.5-0.1,0.9,0c-0.1,0.1-0.3,0.1-0.4,0.2c0.4,0.2,1,0.1,1.5,0.2c0.5,0,1.3,0.2,1.7,0.4
			c0.1,0.1,0.2,0.1,0.3,0.2c0,0-0.1,0-0.1,0c-0.3,0-0.6,0-0.8,0c-0.1-0.1-0.2,0.1-0.3,0.1h0c-0.4,0-0.7-0.3-1.1-0.4
			c-0.3-0.1-0.5-0.1-0.8,0c0,0.1-0.1,0.1-0.1,0.2c-0.1,0-0.3,0-0.4,0c0.1-0.1,0.1-0.2,0.2-0.3C24.2,45.4,23.7,45.2,23.3,45.1z
			 M42.2,42.8c-0.1,0-0.3,0.1-0.4,0.1c0.3-0.2,0.7-0.3,1-0.6C42.7,42.4,42.5,42.6,42.2,42.8z M50.2,24.6c-0.1,0.2-0.1,0.4-0.1,0.6
			c0,0.4,0,0.7,0,1.1c0,0.4-0.1,0.8-0.1,1.1c-0.1,0.3-0.1,0.6-0.2,0.8c-0.4,0-0.4,0-0.5,0.3c0,0,0,0,0,0c-0.1,0.1-0.1,0.1-0.2,0.2
			c0,0,0,0.1,0,0.1c-0.2,0-0.2-0.1-0.2-0.2c0-0.3,0.1-0.6,0.1-0.9c0.1-0.3,0-0.8,0.4-1c0.3,0.2-0.1,0.4,0.1,0.6
			c0.3-0.4,0.1-0.9,0.1-1.3c-0.1-0.1-0.2-0.1-0.2-0.1c0-0.1,0-0.1,0-0.2c0.1-0.1,0.2-0.1,0.2-0.3c0-0.1,0-0.2-0.1-0.3
			c0-0.1,0.1-0.3,0.1-0.4c0.1-0.8,0.2-1.8,0.1-2.9c0-0.3-0.1-0.6-0.1-0.8c0-0.3-0.1-0.6-0.2-0.9c0-0.1-0.1-0.3-0.1-0.4
			c0,0,0.1,0.1,0.1,0.1c0.1,0.2,0.2,0.4,0.4,0.5c0,0.2,0,0.4,0.1,0.5c0.1,0.5,0.3,1,0.4,1.5c0,0.1,0,0.3,0,0.4
			c0,0.4,0.1,0.9,0.1,1.3C50.2,24.3,50.2,24.5,50.2,24.6z"/>
		<polygon fill-rule="evenodd" clip-rule="evenodd" points="22.3,46 22.3,46 22.3,46 		"/>
		<path fill-rule="evenodd" clip-rule="evenodd" d="M33.7,5.1c0.2,0,0.3,0,0.2-0.2c0,0,0,0-0.1,0c-0.2,0-0.3-0.1-0.5-0.1
			c0,0,0,0-0.1,0c-0.1,0-0.1,0.1-0.2,0.1l0,0C33.3,5,33.5,5.1,33.7,5.1z"/>
		<polygon fill-rule="evenodd" clip-rule="evenodd" points="31.9,4.8 31.9,4.8 31.9,4.8 		"/>
		<path fill-rule="evenodd" clip-rule="evenodd" d="M32.5,5c0.1,0,0.2,0,0.4,0C32.6,4,32.5,4,32.5,5z"/>
		<polygon fill-rule="evenodd" clip-rule="evenodd" points="32.5,4.5 32.4,4.5 32.4,4.5 		"/>
		<path fill-rule="evenodd" clip-rule="evenodd" d="M21.3,45.7C21.3,45.6,21.3,45.6,21.3,45.7C21.3,45.6,21.3,45.6,21.3,45.7
			L21.3,45.7z"/>
		<polygon fill-rule="evenodd" clip-rule="evenodd" points="49.6,25.2 49.6,25.2 49.6,25.2 		"/>
	</g>
	<path fill="#FFFFFF" d="M24.2,16.5c-3.6,4.6-4.7,6.4-5.9,2.7C18,18,16.1,18,15.5,16.4c-0.9,6.4,1.6,17.1,8.4,19
		c1.6,0.4,4.1,2.8,6,1.9c-4.3-3.3-6.2-3.7-1.6-8.3c6.1-5.2,10.2,2,12.3,7.1C46,25.9,27.6,12.2,24.2,16.5z"/>
</g>
<g>
	<text transform="matrix(1 0 0 1 54.8804 25.2046)" font-family="'Rokkitt-Regular'" font-size="25.4934">Naomi Pastor </text>
</g>
<text transform="matrix(1 0 0 1 56.1084 40.8848)" font-family="'Roboto-Light'" font-size="12.949">Creativity &amp; more </text>
</svg>
