<?xml version="1.0" encoding="utf-8"?>
<!-- Generator: Adobe Illustrator 18.0.0, SVG Export Plug-In . SVG Version: 6.00 Build 0)  -->
<!DOCTYPE svg PUBLIC "-//W3C//DTD SVG 1.0//EN" "http://www.w3.org/TR/2001/REC-SVG-20010904/DTD/svg10.dtd">
<svg version="1.0" id="Capa_1" xmlns="http://www.w3.org/2000/svg" xmlns:xlink="http://www.w3.org/1999/xlink" x="0px" y="0px"
	 viewBox="0 0 100 100" enable-background="new 0 0 100 100" xml:space="preserve">
<g>
	<circle id="XMLID_30_" fill="#DD4B39" cx="50" cy="50" r="49.9"/>
	<g>
		<path id="XMLID_27_" fill="#FFFFFF" d="M71.2,49.1c-0.4,0-0.7,0-1.1,0c0-0.1,0-0.1,0-0.2c0-0.3,0-0.5,0-0.7c0-1.4,0-2.7,0-4.1
			c0-0.2-0.2-0.6-0.4-0.6c-1.3,0-2.5,0-3.8,0c0,1.6,0,3.2,0,4.8c0,0.3,0,0.6,0,0.9c-1.9,0-3.8,0-5.7,0c0,0.4,0,0.7,0,1
			c0,1,0.1,2.1,0.1,3.1c1,0,2,0.1,3,0.1c0.8,0,1.7,0,2.6,0c0,2,0,3.8,0,5.6c1.4,0,2.7,0,4.1,0c0-1.9,0-3.7,0-5.7c1.9,0,3.8,0,5.7,0
			c0-1.1,0-2.1,0-3.2c0-0.3,0-0.7,0-1C74.2,49.1,72.7,49.1,71.2,49.1z"/>
		<path id="XMLID_26_" fill="#FFFFFF" d="M54.9,48.6c-3.6,0-7.2,0-10.7,0c-1,0-2,0-3.1,0c-0.2,0-0.5,0.2-0.5,0.4c0,2.1,0,4.1,0,6.3
			c2.9,0,5.8,0,8.8,0c-0.1,0.4-0.2,0.7-0.3,1c-1.3,4-5.5,6-9.9,5.2c-5.5-0.9-8.9-6-7.9-11.5c0.1-0.8,0.4-1.5,0.7-2.2
			c1.8-4,6.3-6.4,10.7-5.4c1.6,0.3,2.9,1.1,4.1,2.1c1.6-1.6,3.1-3.2,4.8-4.8c-0.1-0.1-0.3-0.2-0.4-0.3c-3.9-3.3-8.3-4.5-13.3-3.6
			c-7.1,1.2-12.3,6.8-13.4,13.4C24,52,24.2,55,25.3,57.9c2.7,7,9.7,11.2,17.2,10.4c3.7-0.4,6.9-1.7,9.5-4.5c3.8-4,4.7-8.9,4.1-14.2
			C56.1,48.7,55.8,48.6,54.9,48.6z"/>
	</g>
</g>
</svg>
