<?xml version="1.0" encoding="utf-8"?>
<!-- Generator: Adobe Illustrator 18.0.0, SVG Export Plug-In . SVG Version: 6.00 Build 0)  -->
<!DOCTYPE svg PUBLIC "-//W3C//DTD SVG 1.0//EN" "http://www.w3.org/TR/2001/REC-SVG-20010904/DTD/svg10.dtd">
<svg version="1.0" id="Capa_1" xmlns="http://www.w3.org/2000/svg" xmlns:xlink="http://www.w3.org/1999/xlink" x="0px" y="0px"
	 viewBox="0 0 100 100" enable-background="new 0 0 100 100" xml:space="preserve">
<g>
	<circle id="XMLID_108_" fill="#007BB5" cx="50" cy="50" r="49.6"/>
	<g>
		<polygon id="XMLID_106_" fill="#FFFFFF" points="21.9,48.1 21.9,76.9 35.6,76.9 35.6,45.8 35.6,37.7 21.9,37.7 		"/>
		<circle id="XMLID_105_" fill="#FFFFFF" cx="28.7" cy="24.9" r="6.9"/>
		<path id="XMLID_104_" fill="#FFFFFF" d="M80.4,49.7c-0.9-7.4-4.3-12-14.3-12c-5.9,0-9.9,2.2-11.5,5.3h-0.2v-5.3H43.4v7.5v31.7
			h11.4V57.4c0-5.1,1-10.1,7.3-10.1c6.2,0,6.7,5.9,6.7,10.4v19.1h11.8V55.3h0C80.7,53.3,80.6,51.4,80.4,49.7z"/>
	</g>
</g>
</svg>
