<?xml version="1.0" encoding="utf-8"?>
<!-- Generator: Adobe Illustrator 18.0.0, SVG Export Plug-In . SVG Version: 6.00 Build 0)  -->
<!DOCTYPE svg PUBLIC "-//W3C//DTD SVG 1.0//EN" "http://www.w3.org/TR/2001/REC-SVG-20010904/DTD/svg10.dtd">
<svg version="1.0" id="Capa_1" xmlns="http://www.w3.org/2000/svg" xmlns:xlink="http://www.w3.org/1999/xlink" x="0px" y="0px"
	 viewBox="0 0 100 100" enable-background="new 0 0 100 100" xml:space="preserve">
<g>
	<circle id="XMLID_49_" fill="#55ACEE" cx="50" cy="50" r="49.7"/>
	<path id="XMLID_47_" fill="#FFFFFF" d="M79.4,34.8c-2.2,0.9-4.5,1.6-6.9,1.9c2.5-1.5,4.4-3.8,5.3-6.6c-2.3,1.4-4.9,2.4-7.7,2.9
		c-2.2-2.3-5.3-3.8-8.8-3.8c-6.7,0-12.1,5.3-12.1,11.9c0,0.9,0.1,1.8,0.3,2.7c-10-0.5-18.9-5.2-24.9-12.4c-1,1.8-1.6,3.8-1.6,6
		c0,4.1,2.1,7.8,5.4,9.9c-2-0.1-3.8-0.6-5.5-1.5c0,0,0,0.1,0,0.1c0,1.5,0.3,3,0.8,4.3c1.5,3.7,4.8,6.5,8.9,7.4
		c-1,0.3-2.1,0.4-3.2,0.4c-0.8,0-1.5-0.1-2.3-0.2c1.5,4.7,6,8.2,11.3,8.3c-4.1,3.2-9.3,5.1-15,5.1c-1,0-1.9-0.1-2.9-0.2
		c5.3,3.4,11.7,5.3,18.5,5.3c18.9,0,30.5-13.1,33.5-26.6c0.5-2.4,0.8-4.8,0.8-7.2c0-0.5,0-1,0-1.5C75.8,39.3,77.8,37.2,79.4,34.8z"
		/>
</g>
</svg>
