<?xml version="1.0" encoding="utf-8"?>
<!-- Generator: Adobe Illustrator 18.0.0, SVG Export Plug-In . SVG Version: 6.00 Build 0)  -->
<!DOCTYPE svg PUBLIC "-//W3C//DTD SVG 1.0//EN" "http://www.w3.org/TR/2001/REC-SVG-20010904/DTD/svg10.dtd">
<svg version="1.0" id="Capa_1" xmlns="http://www.w3.org/2000/svg" xmlns:xlink="http://www.w3.org/1999/xlink" x="0px" y="0px"
	 viewBox="0 0 100 100" enable-background="new 0 0 100 100" xml:space="preserve">
<g>
	<circle id="XMLID_8_" fill="#3B5998" cx="50" cy="50" r="49.4"/>
	<path id="XMLID_7_" fill="#FFFFFF" d="M54.4,38.4v-4.7c0-2.3,1.5-2.8,2.6-2.8c1.1,0,6.6,0,6.6,0v-10l-9,0c-10,0-12.3,7.5-12.3,12.3
		v5.3h-5.8v7.1v4.6h5.9c0,13.3,0,29.3,0,29.3h11.7c0,0,0-16.2,0-29.3h8.7l0.4-4.6l0.6-7.1H54.4z"/>
</g>
<g>
	<circle id="XMLID_5_" fill="#BB0000" cx="50" cy="50" r="49.9"/>
	<path fill="#FFFFFF" d="M79,37.8c0,0-0.6-4.3-2.3-6.1c-2.3-2.5-4.8-2.5-5.9-2.6C62.4,28.5,50,28.5,50,28.5h0c0,0-12.4,0-20.7,0.6
		c-1.2,0.1-3.7,0.2-5.9,2.6c-1.8,1.9-2.3,6.1-2.3,6.1s-0.6,5-0.6,10v0.6v4.1c0,5,0.6,10,0.6,10s0.6,4.3,2.3,6.1
		c2.3,2.5,5.2,2.4,6.5,2.6c4.7,0.5,20.1,0.6,20.1,0.6s12.4,0,20.7-0.6c1.2-0.1,3.7-0.2,5.9-2.6c1.8-1.9,2.3-6.1,2.3-6.1
		s0.6-5,0.6-10v-3.8v-0.9C79.6,42.8,79,37.8,79,37.8z M59.9,49.5l-16,8.6l0-13.3l0-4l7.2,3.9L59.9,49.5z"/>
</g>
</svg>
