<?xml version="1.0" encoding="utf-8"?>
<!-- Generator: Adobe Illustrator 18.0.0, SVG Export Plug-In . SVG Version: 6.00 Build 0)  -->
<!DOCTYPE svg PUBLIC "-//W3C//DTD SVG 1.0//EN" "http://www.w3.org/TR/2001/REC-SVG-20010904/DTD/svg10.dtd">
<svg version="1.0" xmlns="http://www.w3.org/2000/svg" xmlns:xlink="http://www.w3.org/1999/xlink" x="0px" y="0px"
	 viewBox="0 0 200 200" enable-background="new 0 0 200 200" xml:space="preserve">
<g id="Capa_1" display="none">
	<rect x="0.2" y="-0.6" display="inline" width="200.1" height="200.6"/>
</g>
<g id="cuadro">
	<path fill="none" stroke="#FFFFFF" stroke-width="2" stroke-linecap="round" stroke-linejoin="round" stroke-miterlimit="10" d="
		M158.9,153.6H37.4c-1.2,0-2.1-0.9-2.1-2.1V50c0-1.2,0.9-2.1,2.1-2.1h121.5c1.2,0,2.1,0.9,2.1,2.1v101.5
		C161,152.6,160.1,153.6,158.9,153.6z"/>
</g>
<g id="linea">
	
		<line fill="none" stroke="#FFFFFF" stroke-width="2" stroke-linejoin="round" stroke-miterlimit="10" x1="35" y1="66" x2="161" y2="66"/>
</g>
<g id="boton1">
	
		<circle fill="none" stroke="#FFFFFF" stroke-width="2" stroke-linecap="round" stroke-linejoin="round" stroke-miterlimit="10" cx="130.3" cy="56.8" r="2.9"/>
	
		<circle fill="none" stroke="#FFFFFF" stroke-width="2" stroke-linecap="round" stroke-linejoin="round" stroke-miterlimit="10" cx="130.3" cy="56.8" r="2.9"/>
</g>
<g id="boton2">
	
		<circle fill="none" stroke="#FFFFFF" stroke-width="2" stroke-linecap="round" stroke-linejoin="round" stroke-miterlimit="10" cx="139.9" cy="56.8" r="2.9"/>
</g>
<g id="boton3">
	
		<circle fill="none" stroke="#FFFFFF" stroke-width="2" stroke-linecap="round" stroke-linejoin="round" stroke-miterlimit="10" cx="150.2" cy="56.8" r="2.9"/>
</g>
<g id="_x3E_">
	
		<polyline fill="none" stroke="#FFFFFF" stroke-width="2" stroke-linecap="round" stroke-linejoin="round" stroke-miterlimit="10" points="
		110.5,121.4 133.3,109.9 110.6,98.6 	"/>
</g>
<g id="_x2F_">
	
		<line fill="none" stroke="#FFFFFF" stroke-width="2" stroke-linecap="round" stroke-linejoin="round" stroke-miterlimit="10" x1="104.9" y1="92.1" x2="91" y2="127.9"/>
</g>
<g id="_x3C_">
	
		<polyline fill="none" stroke="#FFFFFF" stroke-width="2" stroke-linecap="round" stroke-linejoin="round" stroke-miterlimit="10" points="
		85.3,98.6 62.5,110.1 85.1,121.4 	"/>
</g>
</svg>
