<?xml version="1.0" encoding="utf-8"?>
<!-- Generator: Adobe Illustrator 18.0.0, SVG Export Plug-In . SVG Version: 6.00 Build 0)  -->
<!DOCTYPE svg PUBLIC "-//W3C//DTD SVG 1.0//EN" "http://www.w3.org/TR/2001/REC-SVG-20010904/DTD/svg10.dtd">
<svg version="1.0" id="Capa_1" xmlns="http://www.w3.org/2000/svg" xmlns:xlink="http://www.w3.org/1999/xlink" x="0px" y="0px"
	 viewBox="0 0 200 180" enable-background="new 0 0 200 180" xml:space="preserve">
<line fill="none" stroke="#FFFFFF" stroke-width="2" stroke-linecap="round" stroke-linejoin="round" stroke-miterlimit="10" x1="149.2" y1="120" x2="61.7" y2="120"/>
<line fill="none" stroke="#FFFFFF" stroke-width="2" stroke-linecap="round" stroke-linejoin="round" stroke-miterlimit="10" x1="149.2" y1="114.9" x2="61.7" y2="114.9"/>
<polyline fill="none" stroke="#FFFFFF" stroke-width="2" stroke-linecap="round" stroke-linejoin="round" stroke-miterlimit="10" points="
	36.7,81.2 36.7,37.4 169.8,37.4 169.8,99 "/>
<polyline fill="none" stroke="#FFFFFF" stroke-width="2" stroke-linecap="round" stroke-linejoin="round" stroke-miterlimit="10" points="
	40.4,82.1 40.4,40.4 166.7,40.4 166.7,99 "/>
<rect x="88.3" y="121.5" fill="none" stroke="#FFFFFF" stroke-width="2" stroke-linecap="round" stroke-linejoin="round" stroke-miterlimit="10" width="29.3" height="17.5"/>
<rect x="72.8" y="139" fill="none" stroke="#FFFFFF" stroke-width="2" stroke-linecap="round" stroke-linejoin="round" stroke-miterlimit="10" width="61" height="5.6"/>
<g>
	<path fill="#FFFFFF" d="M60.5,83.4v65H17v-65H60.5 M60.5,81.4H17c-1.1,0-2,0.9-2,2v65c0,1.1,0.9,2,2,2h43.5c1.1,0,2-0.9,2-2v-65
		C62.5,82.3,61.6,81.4,60.5,81.4L60.5,81.4z"/>
</g>
<g>
	<path fill="#FFFFFF" d="M177.9,100v49.8h-27.3V100H177.9 M177.9,98h-27.3c-1.1,0-2,0.9-2,2v49.8c0,1.1,0.9,2,2,2h27.3
		c1.1,0,2-0.9,2-2V100C179.9,98.9,179,98,177.9,98L177.9,98z"/>
</g>
<g>
	<path fill="#FFFFFF" d="M175.5,102.3V139H153v-36.8H175.5 M175.5,101.3H153c-0.6,0-1,0.4-1,1V139c0,0.6,0.4,1,1,1h22.4
		c0.6,0,1-0.4,1-1v-36.8C176.5,101.7,176,101.3,175.5,101.3L175.5,101.3z"/>
</g>
<circle fill="none" stroke="#FFFFFF" stroke-linecap="round" stroke-linejoin="round" stroke-miterlimit="10" cx="38.5" cy="141.8" r="2.8"/>
<circle fill="none" stroke="#FFFFFF" stroke-linecap="round" stroke-linejoin="round" stroke-miterlimit="10" cx="164.5" cy="144.8" r="2.3"/>
</svg>
