<?xml version="1.0" encoding="utf-8"?>
<!-- Generator: Adobe Illustrator 18.0.0, SVG Export Plug-In . SVG Version: 6.00 Build 0)  -->
<!DOCTYPE svg PUBLIC "-//W3C//DTD SVG 1.0//EN" "http://www.w3.org/TR/2001/REC-SVG-20010904/DTD/svg10.dtd">
<svg version="1.0" id="Capa_1" xmlns="http://www.w3.org/2000/svg" xmlns:xlink="http://www.w3.org/1999/xlink" x="0px" y="0px"
	 viewBox="0 0 200 180" enable-background="new 0 0 200 180" xml:space="preserve">
<g>
	<g>
		<defs>
			<path id="SVGID_1_" d="M154.3,95.9c0,26.8-21.8,48.6-48.6,48.6s-48.6-21.8-48.6-48.6c0-1.6,0.1-3.1,0.2-4.6
				c2.3-24.7,23.1-44,48.4-44C132.5,47.3,154.3,69,154.3,95.9z"/>
		</defs>
		<clipPath id="SVGID_2_">
			<use xlink:href="#SVGID_1_"  overflow="visible"/>
		</clipPath>
		
			<path clip-path="url(#SVGID_2_)" fill="none" stroke="#FFFFFF" stroke-width="2" stroke-linejoin="round" stroke-miterlimit="10" d="
			M92.7,49.9c4.3-1.3,8.3-1.8,13-1.8c26.4,0,47.8,21.4,47.8,47.8s-21.4,47.8-47.8,47.8s-47.8-21.4-47.8-47.8c0-1.5,0.1-3.1,0.2-4.6
			c1.7-18.2,13.2-33.2,29.5-39.7"/>
		
			<path clip-path="url(#SVGID_2_)" fill="none" stroke="#FFFFFF" stroke-width="2" stroke-linecap="round" stroke-linejoin="round" stroke-miterlimit="10" d="
			M58.1,91.3c0,0,54.1-1.4,76.6-32.4"/>
		
			<path clip-path="url(#SVGID_2_)" fill="none" stroke="#FFFFFF" stroke-width="2" stroke-linecap="round" stroke-linejoin="round" stroke-miterlimit="10" d="
			M80.7,88.3c6.2,5.6,13.5,11.3,21.6,15.7"/>
		
			<path clip-path="url(#SVGID_2_)" fill="none" stroke="#FFFFFF" stroke-width="2" stroke-linecap="round" stroke-linejoin="round" stroke-miterlimit="10" d="
			M92.3,86c3.8,3,8,5.9,12.4,8.4"/>
		
			<path clip-path="url(#SVGID_2_)" fill="none" stroke="#FFFFFF" stroke-width="2" stroke-linecap="round" stroke-linejoin="round" stroke-miterlimit="10" d="
			M68.8,90.3c8.1,8.3,19.2,17.7,32.1,23.7"/>
		
			<path clip-path="url(#SVGID_2_)" fill="none" stroke="#FFFFFF" stroke-width="2" stroke-linecap="round" stroke-linejoin="round" stroke-miterlimit="10" d="
			M48.3,80.8c0,0,21.8,31.8,51.6,42.9"/>
		
			<path clip-path="url(#SVGID_2_)" fill="none" stroke="#FFFFFF" stroke-width="2" stroke-linecap="round" stroke-linejoin="round" stroke-miterlimit="10" d="
			M43.2,89.3c0,0,25,36.4,58,45"/>
		
			<path clip-path="url(#SVGID_2_)" fill="none" stroke="#FFFFFF" stroke-width="2" stroke-linejoin="round" stroke-miterlimit="10" d="
			M106.4,73.2c10.5-4.8,20.5-11.5,27.4-21.1"/>
		
			<path clip-path="url(#SVGID_2_)" fill="none" stroke="#FFFFFF" stroke-width="2" stroke-linejoin="round" stroke-miterlimit="10" d="
			M57.2,84.5c0,0,20.7-0.2,42.5-8.6"/>
		
			<path clip-path="url(#SVGID_2_)" fill="none" stroke="#FFFFFF" stroke-width="2" stroke-linejoin="round" stroke-miterlimit="10" d="
			M102.8,67.7c10.9-4.8,21.3-11.7,28.5-21.6"/>
		
			<path clip-path="url(#SVGID_2_)" fill="none" stroke="#FFFFFF" stroke-width="2" stroke-linejoin="round" stroke-miterlimit="10" d="
			M54.7,78.5c0,0,20.9-0.5,42.4-8.6"/>
		
			<path clip-path="url(#SVGID_2_)" fill="none" stroke="#FFFFFF" stroke-width="2" stroke-linejoin="round" stroke-miterlimit="10" d="
			M100.3,63.3c11.4-4.8,22.6-11.9,30.1-22.3"/>
		
			<path clip-path="url(#SVGID_2_)" fill="none" stroke="#FFFFFF" stroke-width="2" stroke-linejoin="round" stroke-miterlimit="10" d="
			M53.8,73.4c0,0,20.2-0.5,41.1-8"/>
		
			<path clip-path="url(#SVGID_2_)" fill="none" stroke="#FFFFFF" stroke-width="2" stroke-linejoin="round" stroke-miterlimit="10" d="
			M97.1,58.2c12.2-4.8,24.4-12.1,32.4-23.2"/>
		
			<path clip-path="url(#SVGID_2_)" fill="none" stroke="#FFFFFF" stroke-width="2" stroke-linejoin="round" stroke-miterlimit="10" d="
			M53,67.4c0,0,19-0.5,39.2-7.4"/>
		
			<path clip-path="url(#SVGID_2_)" fill="none" stroke="#FFFFFF" stroke-width="2" stroke-linejoin="round" stroke-miterlimit="10" d="
			M94.4,53.3c13.1-4.8,26.5-12.3,35.2-24.3"/>
		
			<path clip-path="url(#SVGID_2_)" fill="none" stroke="#FFFFFF" stroke-width="2" stroke-linejoin="round" stroke-miterlimit="10" d="
			M53,61.4c0,0,16.8-0.2,35.9-6.3"/>
		
			<path clip-path="url(#SVGID_2_)" fill="none" stroke="#FFFFFF" stroke-width="2" stroke-linecap="round" stroke-linejoin="round" stroke-miterlimit="10" d="
			M110.7,79c-7.6,18.4-14.2,43.6-6.6,65.8"/>
		
			<path clip-path="url(#SVGID_2_)" fill="none" stroke="#FFFFFF" stroke-width="2" stroke-linecap="round" stroke-linejoin="round" stroke-miterlimit="10" d="
			M123.1,70.6c-9.2,18.2-21.5,50.3-12.2,77.9"/>
		
			<path clip-path="url(#SVGID_2_)" fill="none" stroke="#FFFFFF" stroke-width="2" stroke-linecap="round" stroke-linejoin="round" stroke-miterlimit="10" d="
			M138.6,57.7c0,0-34.4,51.1-20.4,92.4"/>
		
			<path clip-path="url(#SVGID_2_)" fill="none" stroke="#FFFFFF" stroke-width="2" stroke-linecap="round" stroke-linejoin="round" stroke-miterlimit="10" d="
			M143.9,60.3c0,0-34.4,51.1-20.4,92.4"/>
		
			<path clip-path="url(#SVGID_2_)" fill="none" stroke="#FFFFFF" stroke-width="2" stroke-linecap="round" stroke-linejoin="round" stroke-miterlimit="10" d="
			M150,63.4c0,0-34.4,51.1-20.4,92.4"/>
		
			<path clip-path="url(#SVGID_2_)" fill="none" stroke="#FFFFFF" stroke-width="2" stroke-linecap="round" stroke-linejoin="round" stroke-miterlimit="10" d="
			M155.1,64.3c0,0-34.4,51.1-20.4,92.4"/>
		
			<path clip-path="url(#SVGID_2_)" fill="none" stroke="#FFFFFF" stroke-width="2" stroke-linecap="round" stroke-linejoin="round" stroke-miterlimit="10" d="
			M161.1,65.1c0,0-34.4,51.1-20.4,92.4"/>
		
			<path clip-path="url(#SVGID_2_)" fill="none" stroke="#FFFFFF" stroke-width="2" stroke-linecap="round" stroke-linejoin="round" stroke-miterlimit="10" d="
			M166.2,66.8c0,0-34.4,51.1-20.4,92.4"/>
	</g>
	<g>
		<path fill="#FFFFFF" d="M71.6,19.5c2.4,0,4.7,3.4,4.7,3.4l32.9,55.9c-1,0.4-2,0.6-2.8,0.6c-3.4,0-5.3-2.7-5.3-2.7L74.1,25.5
			l-2.6,1.7c0,0-3-7.3-0.4-7.7C71.3,19.5,71.4,19.5,71.6,19.5 M71.6,17.5c-0.2,0-0.5,0-0.7,0.1c-0.9,0.2-1.7,0.7-2.2,1.6
			c-1.3,2.4,0.3,7,1.1,8.9c0.2,0.6,0.7,1,1.3,1.2c0.2,0.1,0.4,0.1,0.6,0.1c0.4,0,0.8-0.1,1.1-0.3l0.7-0.5l25.8,49.2
			c0,0.1,0.1,0.1,0.1,0.2c0.1,0.1,2.5,3.6,6.9,3.6c1.2,0,2.4-0.3,3.6-0.7c0.5-0.2,1-0.7,1.1-1.2c0.2-0.5,0.1-1.2-0.2-1.7L78,21.9
			c0,0,0-0.1-0.1-0.1C77.4,21.1,74.9,17.5,71.6,17.5L71.6,17.5C71.6,17.5,71.6,17.5,71.6,17.5L71.6,17.5z"/>
	</g>
	<path fill="none" stroke="#FFFFFF" stroke-width="2" stroke-linejoin="round" stroke-miterlimit="10" d="M129,138l9,20.6
		c0,0,7.4,2.6,8.5-3.7c-7-12.1-11.2-19.8-11.2-19.8"/>
</g>
</svg>
