<?xml version="1.0" encoding="utf-8"?>
<!-- Generator: Adobe Illustrator 18.0.0, SVG Export Plug-In . SVG Version: 6.00 Build 0)  -->
<!DOCTYPE svg PUBLIC "-//W3C//DTD SVG 1.0//EN" "http://www.w3.org/TR/2001/REC-SVG-20010904/DTD/svg10.dtd">
<svg version="1.0" id="Capa_1" xmlns="http://www.w3.org/2000/svg" xmlns:xlink="http://www.w3.org/1999/xlink" x="0px" y="0px"
	 viewBox="0 0 200 180" enable-background="new 0 0 200 180" xml:space="preserve">
<g>
	<g>
		<path fill="#FFFFFF" d="M138.2,72.4V158H72.8V72.4c0,0,7.8,6.4,17.3,6.4c4.7,0,9.9-1.6,14.7-6.4c5.2,5.2,10.7,7,15.6,7
			C130.3,79.4,138.2,72.4,138.2,72.4 M138.2,70.4c-0.5,0-0.9,0.2-1.3,0.5l0,0c-0.1,0.1-7.5,6.5-16.5,6.5c-5.2,0-10-2.1-14.2-6.4
			c-0.4-0.4-0.9-0.6-1.4-0.6s-1,0.2-1.4,0.6c-3.9,3.9-8.3,5.8-13.3,5.8c-8.7,0-15.9-5.9-16-6c-0.4-0.3-0.8-0.5-1.3-0.5
			c-0.3,0-0.6,0.1-0.9,0.2c-0.7,0.3-1.1,1-1.1,1.8V158c0,1.1,0.9,2,2,2h65.4c1.1,0,2-0.9,2-2V72.4c0-0.8-0.5-1.5-1.2-1.8
			C138.7,70.5,138.5,70.4,138.2,70.4L138.2,70.4z"/>
	</g>
	
		<polyline fill="none" stroke="#FFFFFF" stroke-width="2" stroke-linecap="round" stroke-linejoin="round" stroke-miterlimit="10" points="
		72.8,70.6 104,20.5 138.2,71 	"/>
	<path fill="none" stroke="#FFFFFF" stroke-width="2" stroke-linejoin="round" stroke-miterlimit="10" d="M95,35
		c0,0,11.3,8.4,19.2,0"/>
	
		<line fill="none" stroke="#FFFFFF" stroke-width="2" stroke-linecap="round" stroke-linejoin="round" stroke-miterlimit="10" x1="104" y1="73" x2="104" y2="159"/>
</g>
</svg>
