<?xml version="1.0" encoding="utf-8"?>
<!-- Generator: Adobe Illustrator 18.0.0, SVG Export Plug-In . SVG Version: 6.00 Build 0)  -->
<!DOCTYPE svg PUBLIC "-//W3C//DTD SVG 1.0//EN" "http://www.w3.org/TR/2001/REC-SVG-20010904/DTD/svg10.dtd">
<svg version="1.0" id="Capa_1" xmlns="http://www.w3.org/2000/svg" xmlns:xlink="http://www.w3.org/1999/xlink" x="0px" y="0px"
	 viewBox="0 0 200 180" enable-background="new 0 0 200 180" xml:space="preserve">
<path fill="none" stroke="#FFFFFF" stroke-width="2" stroke-linecap="round" stroke-linejoin="round" stroke-miterlimit="10" d="
	M72.3,32c21.5-17.3,27.7-3.2,27.7-3.2l0.8,102"/>
<path fill="none" stroke="#FFFFFF" stroke-width="2" stroke-linecap="round" stroke-linejoin="round" stroke-miterlimit="10" d="
	M84,39c0,0-8.9-12.8-18.2-3.5c-2.6,3.1-4.2,6.8-1.3,14.2"/>
<path fill="none" stroke="#FFFFFF" stroke-width="2" stroke-linecap="round" stroke-linejoin="round" stroke-miterlimit="10" d="
	M81,65.7c0,0-1.3-17.2-18.1-15.3c-7.8,2.8-15.8,6.2-12.4,21.3c-2.8,3.3-9,10-2.7,21.8c2.5,4.9,11.2,6.3,13,6.2"/>
<path fill="none" stroke="#FFFFFF" stroke-width="2" stroke-linecap="round" stroke-linejoin="round" stroke-miterlimit="10" d="
	M47.8,93.5c0,0-6.3,9.6-1.3,17.7s7.5,7.4,7.5,7.4s-4,13.8,12.8,20.4c6.7,7.5,10.3,11.2,20.4,9.5c7.6-3.3,13.2-6.6,13.5-15.6
	c0.4-8.9-1.6-14.1-12.4-19.6"/>
<path fill="none" stroke="#FFFFFF" stroke-width="2" stroke-linecap="round" stroke-linejoin="round" stroke-miterlimit="10" d="
	M129.1,32c-21.5-17.3-27.7-3.2-27.7-3.2l-0.8,102"/>
<path fill="none" stroke="#FFFFFF" stroke-width="2" stroke-linecap="round" stroke-linejoin="round" stroke-miterlimit="10" d="
	M117.4,39c0,0,8.9-12.8,18.2-3.5c2.6,3.1,4.2,6.8,1.3,14.2"/>
<path fill="none" stroke="#FFFFFF" stroke-width="2" stroke-linecap="round" stroke-linejoin="round" stroke-miterlimit="10" d="
	M120.4,65.7c0,0,1.3-17.2,18.1-15.3c7.8,2.8,15.8,6.2,12.4,21.3c2.8,3.3,9,10,2.7,21.8c-2.5,4.9-11.2,6.3-13,6.2"/>
<path fill="none" stroke="#FFFFFF" stroke-width="2" stroke-linecap="round" stroke-linejoin="round" stroke-miterlimit="10" d="
	M153.6,93.5c0,0,6.3,9.6,1.3,17.7c-5,8.1-7.5,7.4-7.5,7.4s4,13.8-12.8,20.4c-6.7,7.5-10.3,11.2-20.4,9.5
	c-7.6-3.3-13.2-6.6-13.5-15.6c-0.4-8.9,1.6-14.1,12.4-19.6"/>
<path fill="none" stroke="#FFFFFF" stroke-width="2" stroke-linecap="round" stroke-linejoin="round" stroke-miterlimit="10" d="
	M85,101.3c0,0-15.3,0.5-15.3,19.2"/>
<path fill="none" stroke="#FFFFFF" stroke-width="2" stroke-linecap="round" stroke-linejoin="round" stroke-miterlimit="10" d="
	M64.7,119.5c0,0,16.7,1.2,16.3,16.2"/>
<path fill="none" stroke="#FFFFFF" stroke-width="2" stroke-linecap="round" stroke-linejoin="round" stroke-miterlimit="10" d="
	M110.7,97.3c0,0,15.3,0.5,15.3,19.2"/>
<path fill="none" stroke="#FFFFFF" stroke-width="2" stroke-linecap="round" stroke-linejoin="round" stroke-miterlimit="10" d="
	M131,115.5c0,0-16.7,1.2-16.3,16.2"/>
<path fill="none" stroke="#FFFFFF" stroke-width="2" stroke-linecap="round" stroke-linejoin="round" stroke-miterlimit="10" d="
	M64.7,65.7c0,0-0.7,15.3,16.3,16.1c8.5,0,11.2-4.5,11.2-4.5"/>
<path fill="none" stroke="#FFFFFF" stroke-width="2" stroke-linecap="round" stroke-linejoin="round" stroke-miterlimit="10" d="
	M81,81.8c0,0,0.7,9.4-11.3,11.7"/>
<path fill="none" stroke="#FFFFFF" stroke-width="2" stroke-linecap="round" stroke-linejoin="round" stroke-miterlimit="10" d="
	M141.2,63.7c0,0,0.7,15.3-16.3,16.1c-8.5,0-11.2-4.5-11.2-4.5"/>
<path fill="none" stroke="#FFFFFF" stroke-width="2" stroke-linecap="round" stroke-linejoin="round" stroke-miterlimit="10" d="
	M124.8,79.8c0,0-0.7,9.4,11.3,11.7"/>
<path fill="none" stroke="#FFFFFF" stroke-width="2" stroke-linecap="round" stroke-linejoin="round" stroke-miterlimit="10" d="
	M100,28.8"/>
<path fill="none" stroke="#FFFFFF" stroke-width="2" stroke-linecap="round" stroke-linejoin="round" stroke-miterlimit="10" d="
	M92.2,59c0,0,8.1,0.2,8.1,5.8"/>
<path fill="none" stroke="#FFFFFF" stroke-width="2" stroke-linecap="round" stroke-linejoin="round" stroke-miterlimit="10" d="
	M110,50.2c0,0-7.8-1-9.2,8.8"/>
</svg>
