<?xml version="1.0" encoding="utf-8"?>
<!-- Generator: Adobe Illustrator 18.0.0, SVG Export Plug-In . SVG Version: 6.00 Build 0)  -->
<!DOCTYPE svg PUBLIC "-//W3C//DTD SVG 1.0//EN" "http://www.w3.org/TR/2001/REC-SVG-20010904/DTD/svg10.dtd">
<svg version="1.0" id="Capa_1" xmlns="http://www.w3.org/2000/svg" xmlns:xlink="http://www.w3.org/1999/xlink" x="0px" y="0px"
	 viewBox="0 0 200 180" enable-background="new 0 0 200 180" xml:space="preserve">
<g>
	<path fill="#FFFFFF" d="M32.5,39.5l44.6,17.1v90.9l-44.6-17.1V39.5 M32.5,37.5c-0.4,0-0.8,0.1-1.1,0.4c-0.5,0.4-0.9,1-0.9,1.6v90.9
		c0,0.8,0.5,1.6,1.3,1.9l44.6,17.1c0.2,0.1,0.5,0.1,0.7,0.1c0.4,0,0.8-0.1,1.1-0.4c0.5-0.4,0.9-1,0.9-1.6V56.6
		c0-0.8-0.5-1.6-1.3-1.9L33.2,37.6C33,37.5,32.7,37.5,32.5,37.5L32.5,37.5z"/>
</g>
<g>
	<path fill="#FFFFFF" d="M124.6,39.5l44.6,17.1v90.9l-44.6-17.1V39.5 M124.6,37.5c-0.4,0-0.8,0.1-1.1,0.4c-0.5,0.4-0.9,1-0.9,1.6
		v90.9c0,0.8,0.5,1.6,1.3,1.9l44.6,17.1c0.2,0.1,0.5,0.1,0.7,0.1c0.4,0,0.8-0.1,1.1-0.4c0.5-0.4,0.9-1,0.9-1.6V56.6
		c0-0.8-0.5-1.6-1.3-1.9l-44.6-17.1C125,37.5,124.8,37.5,124.6,37.5L124.6,37.5z"/>
</g>
<g>
	<path fill="#FFFFFF" d="M123.4,39.5v90.9l-44.6,17.1V56.6L123.4,39.5 M123.4,37.5c-0.2,0-0.5,0-0.7,0.1L78,54.7
		c-0.8,0.3-1.3,1-1.3,1.9v90.9c0,0.7,0.3,1.3,0.9,1.6c0.3,0.2,0.7,0.4,1.1,0.4c0.2,0,0.5,0,0.7-0.1l44.6-17.1c0.8-0.3,1.3-1,1.3-1.9
		V39.5c0-0.7-0.3-1.3-0.9-1.6C124.2,37.6,123.8,37.5,123.4,37.5L123.4,37.5z"/>
</g>
</svg>
