<?xml version="1.0" encoding="utf-8"?>
<!-- Generator: Adobe Illustrator 18.0.0, SVG Export Plug-In . SVG Version: 6.00 Build 0)  -->
<!DOCTYPE svg PUBLIC "-//W3C//DTD SVG 1.0//EN" "http://www.w3.org/TR/2001/REC-SVG-20010904/DTD/svg10.dtd">
<svg version="1.0" id="Capa_1" xmlns="http://www.w3.org/2000/svg" xmlns:xlink="http://www.w3.org/1999/xlink" x="0px" y="0px"
	 viewBox="0 0 200 180" enable-background="new 0 0 200 180" xml:space="preserve">
<g>
	<path fill="none" stroke="#FFFFFF" stroke-width="2" stroke-linecap="round" stroke-linejoin="round" stroke-miterlimit="10" d="
		M160.9,142.6H39.4c-1.2,0-2.1-0.9-2.1-2.1V39c0-1.2,0.9-2.1,2.1-2.1h121.5c1.2,0,2.1,0.9,2.1,2.1v101.5
		C163,141.6,162.1,142.6,160.9,142.6z"/>
	
		<line fill="none" stroke="#FFFFFF" stroke-width="2" stroke-linejoin="round" stroke-miterlimit="10" x1="37" y1="55" x2="163" y2="55"/>
	
		<circle fill="none" stroke="#FFFFFF" stroke-width="2" stroke-linecap="round" stroke-linejoin="round" stroke-miterlimit="10" cx="141.9" cy="45.8" r="2.9"/>
	
		<circle fill="none" stroke="#FFFFFF" stroke-width="2" stroke-linecap="round" stroke-linejoin="round" stroke-miterlimit="10" cx="132.3" cy="45.8" r="2.9"/>
	
		<circle fill="none" stroke="#FFFFFF" stroke-width="2" stroke-linecap="round" stroke-linejoin="round" stroke-miterlimit="10" cx="152.2" cy="45.8" r="2.9"/>
</g>
<g>
	<path fill="none" stroke="#FFFFFF" stroke-width="2" stroke-linecap="round" stroke-linejoin="round" stroke-miterlimit="10" d="
		M95.7,102.6c0,7.7-6.2,13.9-13.9,13.9S68,110.3,68,102.6c0-2.3,0.6-4.4,1.5-6.3c2.3-4.5,7-7.5,12.3-7.5
		C89.5,88.8,95.7,95,95.7,102.6z"/>
	
		<circle fill="none" stroke="#FFFFFF" stroke-width="2" stroke-linecap="round" stroke-linejoin="round" stroke-miterlimit="10" cx="119.4" cy="102.6" r="13.9"/>
	<path fill="none" stroke="#FFFFFF" stroke-width="2" stroke-linecap="round" stroke-linejoin="round" stroke-miterlimit="10" d="
		M95.7,102.6c0,0,4.1-6,9.7,0"/>
	<path fill="none" stroke="#FFFFFF" stroke-width="2" stroke-linecap="round" stroke-linejoin="round" stroke-miterlimit="10" d="
		M69.1,108c0,0,22-29,31.1-36.9c1.7-1.4,6-3.7,8.2,3"/>
	<path fill="none" stroke="#FFFFFF" stroke-width="2" stroke-linecap="round" stroke-linejoin="round" stroke-miterlimit="10" d="
		M132.7,106.5c0,0,21-27.8,29.7-35.4c1.7-1.4,6-3.7,8.2,3"/>
</g>
</svg>
