<?xml version="1.0" encoding="utf-8"?>
<!-- Generator: Adobe Illustrator 18.0.0, SVG Export Plug-In . SVG Version: 6.00 Build 0)  -->
<!DOCTYPE svg PUBLIC "-//W3C//DTD SVG 1.0//EN" "http://www.w3.org/TR/2001/REC-SVG-20010904/DTD/svg10.dtd">
<svg version="1.0" id="Capa_1" xmlns="http://www.w3.org/2000/svg" xmlns:xlink="http://www.w3.org/1999/xlink" x="0px" y="0px"
	 viewBox="0 0 200 180" enable-background="new 0 0 200 180" xml:space="preserve">
<g>
	<g>
		<g>
			<path fill="#FFFFFF" d="M125.8,28.6l18.1,9.3L115.3,94c0,0,0-7-4-7c-1.2,0-2.8,0.7-4.9,2.4c0.4-5.6-1.4-7.1-3.5-7.1
				c-2.6,0-5.7,2.4-5.7,2.4L125.8,28.6 M125.8,26.6c-0.2,0-0.4,0-0.6,0.1c-0.5,0.2-0.9,0.5-1.2,1L95.3,83.8
				c-0.4,0.8-0.2,1.8,0.5,2.4c0.4,0.3,0.8,0.5,1.3,0.5c0.4,0,0.9-0.1,1.2-0.4c1-0.8,3.1-2,4.5-2c0.5,0,0.7,0.1,0.8,0.3
				c0.3,0.3,0.9,1.4,0.7,4.7c-0.1,0.8,0.4,1.6,1.1,1.9c0.3,0.1,0.6,0.2,0.9,0.2c0.5,0,0.9-0.2,1.3-0.5c2.1-1.8,3.2-2,3.6-2
				c1.5,0,2,3.7,2,5c0,0.9,0.6,1.7,1.5,1.9c0.2,0,0.3,0.1,0.5,0.1c0.7,0,1.4-0.4,1.8-1.1l28.7-56.1c0.5-1,0.1-2.2-0.9-2.7l-18.1-9.3
				C126.4,26.7,126.1,26.6,125.8,26.6L125.8,26.6z"/>
		</g>
		
			<polyline fill="none" stroke="#FFFFFF" stroke-width="2" stroke-linecap="round" stroke-linejoin="round" stroke-miterlimit="10" points="
			115.8,94.8 97.3,107.3 96.1,85.1 		"/>
		<path fill="none" stroke="#FFFFFF" stroke-width="2" stroke-linejoin="round" stroke-miterlimit="10" d="M102.6,104.4
			c0,0-0.3-7.1-5.3-2.7"/>
		
			<line fill="none" stroke="#FFFFFF" stroke-width="2" stroke-linecap="round" stroke-linejoin="round" stroke-miterlimit="10" x1="106.5" y1="88.7" x2="135.2" y2="32.6"/>
	</g>
	
		<polyline fill="none" stroke="#FFFFFF" stroke-width="2" stroke-linecap="round" stroke-linejoin="round" stroke-miterlimit="10" points="
		125.6,76.8 148.4,90.7 130.7,113.8 52.9,128.5 45.7,90.2 98,80.3 	"/>
	
		<circle fill="none" stroke="#FFFFFF" stroke-width="2" stroke-linecap="round" stroke-linejoin="round" stroke-miterlimit="10" cx="135.8" cy="93" r="3.1"/>
</g>
</svg>
