<?xml version="1.0" encoding="utf-8"?>
<!-- Generator: Adobe Illustrator 18.0.0, SVG Export Plug-In . SVG Version: 6.00 Build 0)  -->
<!DOCTYPE svg PUBLIC "-//W3C//DTD SVG 1.0//EN" "http://www.w3.org/TR/2001/REC-SVG-20010904/DTD/svg10.dtd">
<svg version="1.0" id="Capa_1" xmlns="http://www.w3.org/2000/svg" xmlns:xlink="http://www.w3.org/1999/xlink" x="0px" y="0px"
	 viewBox="0 0 200 180" enable-background="new 0 0 200 180" xml:space="preserve">
<g>
	<path fill="none" stroke="#FFFFFF" stroke-width="2" stroke-linecap="round" stroke-linejoin="round" stroke-miterlimit="10" d="
		M160.9,142.6H39.4c-1.2,0-2.1-0.9-2.1-2.1V39c0-1.2,0.9-2.1,2.1-2.1h121.5c1.2,0,2.1,0.9,2.1,2.1v101.5
		C163,141.6,162.1,142.6,160.9,142.6z"/>
	
		<line fill="none" stroke="#FFFFFF" stroke-width="2" stroke-linejoin="round" stroke-miterlimit="10" x1="37" y1="55" x2="163" y2="55"/>
	
		<circle fill="none" stroke="#FFFFFF" stroke-width="2" stroke-linecap="round" stroke-linejoin="round" stroke-miterlimit="10" cx="141.9" cy="45.8" r="2.9"/>
	
		<circle fill="none" stroke="#FFFFFF" stroke-width="2" stroke-linecap="round" stroke-linejoin="round" stroke-miterlimit="10" cx="132.3" cy="45.8" r="2.9"/>
	
		<circle fill="none" stroke="#FFFFFF" stroke-width="2" stroke-linecap="round" stroke-linejoin="round" stroke-miterlimit="10" cx="152.2" cy="45.8" r="2.9"/>
</g>
<g>
	<path fill="none" stroke="#FFFFFF" stroke-width="2" stroke-linecap="round" stroke-linejoin="round" stroke-miterlimit="10" d="
		M100.2,93.8L100.2,93.8c-2.3,1.4-5.4,0.7-6.8-1.7l-4-6.6c-1.4-2.3-0.7-5.4,1.7-6.8h0c2.3-1.4,5.4-0.7,6.8,1.7l4,6.6
		C103.3,89.4,102.5,92.4,100.2,93.8z"/>
	<path fill="none" stroke="#FFFFFF" stroke-width="2" stroke-linecap="round" stroke-linejoin="round" stroke-miterlimit="10" d="
		M108.9,100.7L108.9,100.7c-2.3,1.4-5.4,0.7-6.8-1.7l-4-6.6c-1.4-2.3-0.7-5.4,1.7-6.8l0,0c2.3-1.4,5.4-0.7,6.8,1.7l4,6.6
		C112,96.2,111.3,99.3,108.9,100.7z"/>
</g>
<circle fill="none" stroke="#FFFFFF" stroke-width="2" stroke-linecap="round" stroke-linejoin="round" stroke-miterlimit="10" cx="100" cy="90" r="24.3"/>
<g>
	<g>
		<path fill="none" stroke="#FFFFFF" stroke-width="2" stroke-linecap="round" stroke-linejoin="round" d="M164.5,13.5
			c0,0-0.5-0.2-1.4-0.4"/>
		
			<path fill="none" stroke="#FFFFFF" stroke-width="2" stroke-linecap="round" stroke-linejoin="round" stroke-dasharray="2.8912,5.7823" d="
			M157.3,12c-15.2-1.9-49.4,0.6-51.7,61.6"/>
		<path fill="none" stroke="#FFFFFF" stroke-width="2" stroke-linecap="round" stroke-linejoin="round" d="M105.5,76.5
			c0,0.5,0,1,0,1.5"/>
	</g>
</g>
<g>
	<g>
		<path fill="none" stroke="#FFFFFF" stroke-width="2" stroke-linecap="round" stroke-linejoin="round" d="M27.5,27.5
			c0,0,0-0.6,0.2-1.5"/>
		
			<path fill="none" stroke="#FFFFFF" stroke-width="2" stroke-linecap="round" stroke-linejoin="round" stroke-dasharray="3.0772,6.1544" d="
			M29.5,20.2c1.8-3.9,5.3-7.9,11.7-8.5c12.5-1.1,32.5-3.5,50.5,56.4"/>
		<path fill="none" stroke="#FFFFFF" stroke-width="2" stroke-linecap="round" stroke-linejoin="round" d="M92.6,71.1
			c0.1,0.5,0.3,1,0.4,1.4"/>
	</g>
</g>
<g>
	<g>
		<path fill="none" stroke="#FFFFFF" stroke-width="2" stroke-linecap="round" stroke-linejoin="round" d="M84.5,89.7
			c0,0-0.3-0.4-0.9-1.2"/>
		
			<path fill="none" stroke="#FFFFFF" stroke-width="2" stroke-linecap="round" stroke-linejoin="round" stroke-dasharray="3.0427,6.0853" d="
			M79.6,83.9c-6.5-7.3-18.4-19-29.6-21.4C35.4,59.4,26.7,65.3,24.2,76"/>
		<path fill="none" stroke="#FFFFFF" stroke-width="2" stroke-linecap="round" stroke-linejoin="round" d="M23.6,79
			c-0.1,0.5-0.1,1-0.1,1.5"/>
	</g>
</g>
<g>
	<g>
		<path fill="none" stroke="#FFFFFF" stroke-width="2" stroke-linecap="round" stroke-linejoin="round" d="M113.5,86
			c0,0,0.4-0.4,1-1.1"/>
		
			<path fill="none" stroke="#FFFFFF" stroke-width="2" stroke-linecap="round" stroke-linejoin="round" stroke-dasharray="3.1164,6.2328" d="
			M118.9,80.5c11-10.5,36.4-30.8,54.8-15.2"/>
		<path fill="none" stroke="#FFFFFF" stroke-width="2" stroke-linecap="round" stroke-linejoin="round" d="M176,67.4
			c0.3,0.4,0.7,0.7,1,1.1"/>
	</g>
</g>
<g>
	<g>
		<path fill="none" stroke="#FFFFFF" stroke-width="2" stroke-linecap="round" stroke-linejoin="round" d="M24,145
			c0,0-0.3-0.5-0.7-1.3"/>
		
			<path fill="none" stroke="#FFFFFF" stroke-width="2" stroke-linecap="round" stroke-linejoin="round" stroke-dasharray="3.0599,6.1199" d="
			M22.3,137.7c0.2-9.1,8.3-24.7,55.8-36.1"/>
		<path fill="none" stroke="#FFFFFF" stroke-width="2" stroke-linecap="round" stroke-linejoin="round" d="M81,100.8
			c0.5-0.1,1-0.2,1.5-0.3"/>
	</g>
</g>
<g>
	<g>
		<path fill="none" stroke="#FFFFFF" stroke-width="2" stroke-linecap="round" stroke-linejoin="round" d="M97,106.5
			c0,0-0.3,0.4-0.9,1.2"/>
		
			<path fill="none" stroke="#FFFFFF" stroke-width="2" stroke-linecap="round" stroke-linejoin="round" stroke-dasharray="3.1125,6.225" d="
			M92.6,112.8c-5.9,9-15.9,25.8-17.4,39.6"/>
		<path fill="none" stroke="#FFFFFF" stroke-width="2" stroke-linecap="round" stroke-linejoin="round" d="M75,155.5
			c0,0.5,0,1,0,1.5"/>
	</g>
</g>
<path fill="none" stroke="#FFFFFF" stroke-width="2" stroke-linecap="round" stroke-linejoin="round" stroke-miterlimit="10" d="
	M116,100"/>
<g>
	<g>
		<path fill="none" stroke="#FFFFFF" stroke-width="2" stroke-linecap="round" stroke-linejoin="round" d="M116,100
			c0,0,0.5,0,1.5,0.1"/>
		
			<path fill="none" stroke="#FFFFFF" stroke-width="2" stroke-linecap="round" stroke-linejoin="round" stroke-dasharray="2.957,5.914" d="
			M123.3,101c14.2,2.5,44.9,10.7,53.9,36.2"/>
		<path fill="none" stroke="#FFFFFF" stroke-width="2" stroke-linecap="round" stroke-linejoin="round" d="M178.1,140
			c0.1,0.5,0.3,1,0.4,1.5"/>
	</g>
</g>
</svg>
