<?xml version="1.0" encoding="utf-8"?>
<!-- Generator: Adobe Illustrator 18.0.0, SVG Export Plug-In . SVG Version: 6.00 Build 0)  -->
<!DOCTYPE svg PUBLIC "-//W3C//DTD SVG 1.0//EN" "http://www.w3.org/TR/2001/REC-SVG-20010904/DTD/svg10.dtd">
<svg version="1.0" id="Capa_1" xmlns="http://www.w3.org/2000/svg" xmlns:xlink="http://www.w3.org/1999/xlink" x="0px" y="0px"
	 viewBox="0 0 200 180" enable-background="new 0 0 200 180" xml:space="preserve">
<g>
	<path fill="#FFFFFF" d="M148,64.3v60.3H43.7V64.3H148 M148,62.3H43.7c-1.1,0-2,0.9-2,2v60.3c0,1.1,0.9,2,2,2H148c1.1,0,2-0.9,2-2
		V64.3C150,63.2,149.1,62.3,148,62.3L148,62.3z"/>
</g>
<polyline fill="none" stroke="#FFFFFF" stroke-width="2" stroke-linejoin="round" stroke-miterlimit="10" points="57.3,62.7 
	57.3,50.3 161.7,50.3 161.7,110.7 149.7,110.7 "/>
<polyline fill="none" stroke="#FFFFFF" stroke-width="2" stroke-linejoin="round" stroke-miterlimit="10" points="43.7,64.3 
	95.7,99.1 148,64.3 "/>
<line fill="none" stroke="#FFFFFF" stroke-width="2" stroke-linecap="round" stroke-linejoin="round" stroke-miterlimit="10" x1="58.1" y1="50.6" x2="84.3" y2="63.3"/>
<line fill="none" stroke="#FFFFFF" stroke-width="2" stroke-linecap="round" stroke-linejoin="round" stroke-miterlimit="10" x1="161.7" y1="50.3" x2="141.8" y2="63.1"/>
</svg>
