<?xml version="1.0" encoding="utf-8"?>
<!-- Generator: Adobe Illustrator 18.0.0, SVG Export Plug-In . SVG Version: 6.00 Build 0)  -->
<!DOCTYPE svg PUBLIC "-//W3C//DTD SVG 1.0//EN" "http://www.w3.org/TR/2001/REC-SVG-20010904/DTD/svg10.dtd">
<svg version="1.0" id="Capa_1" xmlns="http://www.w3.org/2000/svg" xmlns:xlink="http://www.w3.org/1999/xlink" x="0px" y="0px"
	 viewBox="0 0 200 180" enable-background="new 0 0 200 180" xml:space="preserve">
<path fill="none" stroke="#FFFFFF" stroke-width="2" stroke-linecap="round" stroke-linejoin="round" stroke-miterlimit="10" d="
	M138.2,29H31.1c-1,0-2.1,0.5-2.1,1.3v67.3c0,0.8,1.1,1.4,2.1,1.4h69.6l21.3,16.9V99h16.2c1,0,1.8-0.6,1.8-1.4V30.3
	C140,29.5,139.2,29,138.2,29z"/>
<path fill="none" stroke="#FFFFFF" stroke-width="2" stroke-linecap="round" stroke-linejoin="round" stroke-miterlimit="10" d="
	M140,74h30.6c0.8,0,1.4,0.6,1.4,1.2v53c0,0.6-0.6,0.7-1.4,0.7h-54.9L99,142.7V129H86.2c-0.8,0-1.2-0.1-1.2-0.7V99"/>
</svg>
