<?xml version="1.0" encoding="utf-8"?>
<!-- Generator: Adobe Illustrator 17.0.0, SVG Export Plug-In . SVG Version: 6.00 Build 0)  -->
<!DOCTYPE svg PUBLIC "-//W3C//DTD SVG 1.1//EN" "http://www.w3.org/Graphics/SVG/1.1/DTD/svg11.dtd">
<svg version="1.1" id="Capa_1" xmlns="http://www.w3.org/2000/svg" xmlns:xlink="http://www.w3.org/1999/xlink" x="0px" y="0px"
	 width="200px" height="200px" viewBox="0 0 200 200" enable-background="new 0 0 200 200" xml:space="preserve">
<g>
	<path fill-rule="evenodd" clip-rule="evenodd" d="M84.73,175.599c0,0,0-0.001,0.002-0.001c-0.006-0.002-0.011-0.004-0.018-0.006
		L84.73,175.599z"/>
	<path fill-rule="evenodd" clip-rule="evenodd" d="M190.137,89.028c0.003-0.121,0.003-0.24-0.002-0.36
		c0.115-0.474,0.23-0.948,0.343-1.423c-0.113-0.972-0.228-1.945-0.343-2.917c-0.005-0.36-0.01-0.717-0.015-1.076
		c-0.096-0.024-0.19-0.053-0.283-0.085c-0.008-0.33-0.016-0.66-0.026-0.989c-0.02-0.363-0.037-0.726-0.058-1.088
		c-0.108-0.021-0.217-0.04-0.324-0.059c-0.094-0.578-0.199-1.156-0.277-1.737c-0.165-1.22-0.317-2.442-0.473-3.665
		c-0.021-0.103-0.028-0.207-0.019-0.313c-0.108-0.138-0.219-0.275-0.329-0.412c-0.013-0.236-0.026-0.473-0.039-0.709
		c-0.121-0.483-0.243-0.966-0.364-1.448c-0.614-1.323-1.229-2.646-1.84-3.969c-0.102-0.132-0.204-0.264-0.306-0.396
		c0.019-0.121,0.039-0.242,0.058-0.363c-0.036-0.114-0.057-0.232-0.063-0.351c-0.099-0.021-0.198-0.038-0.296-0.052
		c-0.162-0.334-0.322-0.667-0.484-1.001c-0.125-0.238-0.251-0.476-0.376-0.713c-0.105-0.254-0.211-0.508-0.316-0.762
		c-0.907-1.452-1.874-2.871-2.695-4.37c-0.415-0.758-0.912-1.361-1.613-1.829c-0.24-0.433-0.438-0.903-0.68-1.334
		c-2.725-5.248-5.982-9.969-9.133-13.594c-1.231-1.531-2.514-2.753-3.638-3.945c-1.145-1.15-2.159-2.232-3.088-3.02
		c-1.853-1.59-3.11-2.574-3.46-2.77c-1.124-0.619-1.925-1.245-2.563-1.813c-0.646-0.547-1.109-1.093-1.518-1.627
		c-0.817-1.067-1.42-2.091-2.831-2.944c-1.973-1.257-3.872-1.979-5.559-2.706c-1.702-0.673-3.209-1.304-4.591-1.725
		c-2.761-0.88-4.854-1.663-6.512-3.138c-0.957-0.821-3.367-1.738-6.535-2.711c-1.582-0.524-3.361-0.885-5.242-1.249
		c-1.461-0.274-2.984-0.574-4.524-0.821c0.1-0.087,0.191-0.2,0.269-0.352c-0.497-0.074-0.879-0.051-1.1,0.227
		c-0.166-0.024-0.346-0.052-0.512-0.075C118.525,15.31,119,15.278,118,15.246c0-0.035,0-0.07,0-0.105
		c-1-0.125-1.426-0.25-2.148-0.374c-0.253-0.017-0.203-0.033-0.458-0.05C115.163,14.734,115,14.75,115,14.767v0.002
		c0,0.031-0.293,0.061-0.294,0.092c-6.379-0.587-12.327-0.699-14.531-1.502c-0.025-0.009-0.43,0.088-0.967,0.231
		c-0.537,0.143-1.314,0.334-2.158,0.513c-1.688,0.38-3.799,0.624-5.549,0.505c-4.461-0.286-7.787,1.702-13.005,2.499
		c-1.371,0.219-3.032,0.49-4.815,1.146c-1.79,0.621-3.751,1.403-5.784,2.302c-2.04,0.872-4.092,2.119-6.166,3.296
		c-1.03,0.615-2.07,1.203-3.072,1.879c-0.987,0.705-1.971,1.407-2.943,2.101c-3.892,2.707-7.231,5.899-9.833,8.279
		c-2.532,2.534-4.263,4.462-4.934,4.94c-0.506,0.383-1.187,0.996-1.82,1.688c-0.621,0.716-1.218,1.471-1.627,2.026
		c-0.496,0.672-1.655,1.909-3.106,3.465c-0.742,0.754-1.492,1.683-2.276,2.65c-0.775,0.953-1.598,1.982-2.443,3.079
		c-1.728,2.133-3.078,4.415-4.169,6.308c-1.073,1.899-1.795,3.427-1.897,4.174c-0.333,3.774-2.301,4.116-2.661,7.609
		c-0.175,1.711-0.458,3.384-1.403,5.38c-0.176,0.356-1.409,3.77-1.362,4.255c0.198,1.505,0.832,0.618,0.769,1.991
		c-0.027,0.686-0.233,1.93-0.69,4.332c-0.541,2.391-0.947,5.985-1.439,11.404c0.081,1.812,0.295,4.649,0.572,8.144
		c0.091,1.753,0.483,3.639,0.807,5.659c0.183,1.007,0.372,2.044,0.565,3.106c0.103,0.529,0.207,1.065,0.313,1.607
		c0.142,0.533,0.286,1.071,0.431,1.614c2.071,8.799,6.509,18.205,11.502,25.491c1.31,1.853,2.461,3.415,3.634,4.925
		c1.218,1.403,2.381,2.682,3.451,3.808c1.079,1.11,2.026,2.134,2.916,2.856c0.883,0.735,1.633,1.303,2.215,1.683
		c1.167,0.757,1.656,0.76,1.267-0.193c-0.193-0.477-0.604-1.194-1.244-2.18c-0.327-0.495-0.7-1.059-1.122-1.7
		c-0.414-0.67-0.877-1.419-1.392-2.251c-1.98-3.223-0.164-1.748,2.334,0.463c2.551,2.144,6.005,4.749,6.825,4.858
		c0.426,0.082,1.772,0.804,2.535,1.661c2.391,2.675,2.794,3.394,3.058,3.607c0.279,0.187,0.422-0.023,2.524,0.433
		c0,0,2.892,1.614,5.972,3.145c3.031,1.309,6.216,2.541,7.061,2.729c0.325,0.433,0.768,0.635,1.337,0.585
		c-0.002,0.001-0.002,0.002-0.003,0.003c0.373,0.224,0.747,0.45,1.119,0.674c0.329,0.123,0.656,0.242,0.985,0.365
		c0.038,0.021,0.076,0.043,0.115,0.063c0.109,0.112,0.218,0.221,0.331,0.333c0.358,0.253,0.714,0.502,1.072,0.755
		c-0.115,0.11-0.228,0.22-0.343,0.33c0.36,0.24,0.722,0.483,1.083,0.722c0.356-0.363,0.714-0.722,1.071-1.082
		c0.015,0.117,0.429,0.23,0.429,0.343c0.117,0.126,0.758,0.253,0.758,0.376v0.006c0,0.36-0.4,0.719-0.397,1.079
		c0.363,0.123,0.654,0.246,1.019,0.372c0.483-0.246,1.378-0.492,1.378-0.739c0,0,0,0.002,0,0.003c0,0.363-0.138,0.722-0.139,1.088
		c0.115,0.003,0.161,0.006,0.274,0.013l-0.008-0.016c0.002,0.119-0.012,0.297-0.01,0.416c0.236,0.125,0.456,0.429,0.694,0.429h0.002
		c0.488,0,0.973,0.181,1.458,0.298c0.233-0.003,0.438-0.036,0.669-0.039c0.363-0.363,0.06-0.758,1.06-1.121v0.003
		c0,0.01,0.538-0.142,0.779-0.142h0.01c0.126,0,0.254,0.309,0.384,0.419l0.005,0.041c-0.271,0.188-0.549,0.385-0.811,0.582
		c-0.22,0.168-0.424,0.367-0.635,0.545c0.358,0.121,0.717,0.247,1.075,0.366c-0.002-0.001-0.004-0.038-0.006-0.038l0.007-0.033
		c0,0-0.001,0-0.001,0c0.246,0,0.492,0.283,0.738,0.402c0.118,0.003,0.235,0.032,0.353,0.045c0.21,0.051,0.418,0.11,0.627,0.161
		c-0.435,0.007-1.371,0.05-2.598-0.011c-1.506-0.083-3.459-0.21-5.446-0.38c-1.996-0.124-3.986-0.465-5.577-0.765
		c-1.591-0.293-2.775-0.552-3.103-0.678c-3.839-0.208-10.817-3.745-13.661-5.11c-1.676-0.713-2.334-0.811-3.376-1.136
		c-1.056-0.294-2.434-0.977-5.572-2.927c-1.067-0.683-2.048-1.31-2.949-1.887c-0.874-0.644-1.672-1.231-2.402-1.768
		c-1.457-1.093-2.639-1.981-3.613-2.712c-1.947-1.466-2.967-2.472-3.727-3.091c-1.466-1.327-1.706-1.51-4.113-4.756
		c-0.59-0.857-1.231-1.706-1.899-2.547c-0.684-0.86-1.426-1.755-2.157-2.617c-0.755-0.861-1.457-1.728-2.104-2.591
		c-0.661-0.863-1.308-1.707-1.923-2.511c-1.211-1.63-2.317-3.126-3.011-4.441c-0.669-1.328-1.028-2.428-0.913-3.184
		c0.045-0.298-0.114-0.7-0.393-1.099c-0.55-0.787-1.092-1.606-1.621-2.471c-0.541-0.861-1.046-1.772-1.466-2.765
		c-0.882-1.971-1.686-4.177-2.349-6.689c-0.487-1.793-0.592-1.828-0.819-2.089c-0.193-0.268-0.405-0.794-0.685-3.651
		c-0.201-2.269-1.468-4.89-2.001-5.48c0.046,1.173,0.222,2.366,0.428,3.473c0.518,2.529,0.833,4.765,0.871,6.975
		c0.086,1.643,2.439,9.423,3.328,11.214c1.093,2.64,2.324,4.889,3.274,6.455c0.458,0.792,0.923,1.38,1.228,1.793
		c0.313,0.403,0.49,0.629,0.49,0.629c1.154,2.25,2.35,4.427,3.575,6.522c1.282,2.042,2.781,4.108,4.07,5.871
		c0.675,0.892,1.323,1.82,2.033,2.635c0.717,0.809,1.429,1.611,2.134,2.407c1.437,1.558,2.849,3.123,4.329,4.5
		c1.495,1.35,2.995,2.647,4.496,3.89c0.754,0.613,1.493,1.249,2.259,1.807c0.775,0.538,1.545,1.074,2.312,1.607
		c1.541,1.048,3.081,2.051,4.616,3.009c1.552,0.91,3.13,1.704,4.689,2.503c0.845,0.427,1.548,0.501,1.434,0.012
		c-0.201-0.876,0.392-0.804,1.535-0.391c1.132,0.447,2.864,1.113,4.906,1.471c1.257,0.226,1.46,0.418,2.938,1.458
		c1.39,0.992,2.681,2.083,1.271,1.867c-0.85-0.146-1.975-0.562-2.586-0.484c0.429,0.256,1.347,0.714,2.654,1.287
		c1.323,0.507,3.039,1.124,5.038,1.792c1,0.323,2.069,0.669,3.194,1.033c1.134,0.305,2.331,0.586,3.568,0.879
		c2.479,0.556,5.111,1.225,7.835,1.532c1.356,0.174,2.728,0.35,4.103,0.526c1.371,0.178,2.741,0.314,4.101,0.346
		c2.717,0.103,5.378,0.223,7.86,0.166c2.48-0.121,4.794-0.279,6.834-0.45c2.04-0.121,3.81-0.519,5.214-0.741
		c4.192-0.779,2.159-1.114,1.378-2.041c-0.89-1.066,4.084-0.042,6.248-0.604c2.303-0.482,1.908,0.139,3.377,0.021
		c0.367-0.03,0.85-0.108,1.518-0.264c0.668-0.141,1.519-0.394,2.614-0.829c1.095-0.416,2.437-0.963,4.073-1.683
		c0.817-0.368,1.711-0.748,2.674-1.234c0.946-0.523,1.979-1.094,3.108-1.718c2.013-1.153,4.085-2.291,6.104-3.719
		c1.008-0.685,2.025-1.376,3.047-2.071l1.518-1.044l1.479-1.147c1.952-1.568,3.928-3,5.76-4.633c1.825-1.649,3.636-3.19,5.326-4.775
		c0.982-0.972,1.892-2.249,2.655-3.603c0.767-1.351,1.388-2.77,1.76-4.167c0.347-1.211,0.553-2.305,0.627-3.153
		c1.636-1.857,3.252-3.734,4.71-5.743c0.112-0.003,0.222-0.013,0.33-0.036c0.105-0.133,0.209-0.266,0.314-0.398
		c0.13-0.236,0.259-0.473,0.389-0.709c0.267-0.334,0.536-0.671,0.805-1.004c0.096-0.029,0.191-0.055,0.288-0.074
		c0.01-0.233,0.018-0.466,0.028-0.703c0.101-0.019,0.201-0.039,0.301-0.055c0.029-0.217,0.055-0.434,0.083-0.651
		c0.099-0.023,0.199-0.045,0.3-0.062c0.117-0.243,0.233-0.486,0.348-0.726l0.005-0.003c0.133-0.23,0.267-0.46,0.4-0.69
		c0.947-1.218,1.895-2.439,2.842-3.66c0.274-0.706,0.547-1.412,0.823-2.118c0.084-0.036,0.173-0.055,0.264-0.068
		c0.607-1.199,1.215-2.4,1.822-3.602c0.347-0.496,0.692-0.994,1.038-1.49c0.128-0.353,0.261-0.709,0.392-1.063
		c0.118-0.243,0.236-0.486,0.358-0.729c0.112-0.249,0.227-0.496,0.34-0.742c0.847-2.293,1.696-4.583,2.543-6.873
		c0.037-0.933,0.076-1.866,0.115-2.799c0.094-0.023,0.188-0.049,0.28-0.081c0.351-1.211,0.703-2.421,1.054-3.634
		c0.128-0.36,0.253-0.718,0.379-1.076c0.186-1.124,0.377-2.25,0.556-3.375c0.102-0.654,0.178-1.312,0.267-1.969
		c0.092-0.028,0.185-0.057,0.279-0.089c0.418-2.011,0.492-4.045,0.434-6.09c0.687-1.533,1.186-3.046,0.863-4.82
		c-0.207-1.13,0.107-2.354,0.188-3.537C190.365,89.272,190.25,89.15,190.137,89.028z M160.849,159.408
		c-0.086,0.148-0.224,0.328-0.427,0.546C160.565,159.773,160.707,159.59,160.849,159.408z M84.771,170.749
		c0.686-0.05,1.723,0.06,3.279,0.412c2.82,0.519,1.847-0.264,3.489-0.046c-0.523,0.285-1.132,0.557-1.682,0.795
		c1.473,0.588,3.767,0.555,5.736,0.705c2.069,0.153,5.199,0.813,6.488,1.59c0.476,0.266,0.872,0.507,1.201,0.73
		c-0.164-0.02-0.328-0.038-0.492-0.058c-1.074-0.123-2.149-0.507-3.221-0.633c-0.368-0.282-0.734-0.244-1.093-0.244h-0.003
		c-1.377,0-2.758-0.549-4.128-0.983c-1.071-0.34-2.107-0.283-3.105,0.342c-0.117,0.227-0.236,0.521-0.355,0.751
		c-0.492,0-0.986,0.032-1.48,0.035c0.269-0.421,0.538-0.823,0.855-1.318C88.446,171.945,86.622,171.28,84.771,170.749z
		 M157.886,162.07c-0.572,0.148-1.064,0.259-1.414,0.296c1.337-0.704,2.708-1.351,3.88-2.339
		C159.873,160.525,159.086,161.197,157.886,162.07z M188.762,91.506c-0.418,0.731-0.466,1.478-0.398,2.268
		c-0.016,1.437-0.032,2.875-0.047,4.312c-0.11,1.452-0.22,2.901-0.329,4.352c-0.262,1.075-0.523,2.152-0.784,3.226
		c-1.513-0.162-1.513-0.162-1.832,1.27c-0.013,0.057-0.018,0.117-0.024,0.173c-0.209,0.269-0.418,0.539-0.625,0.808
		c-0.015,0.1-0.028,0.201-0.039,0.303c-0.62,0.091-0.714-0.33-0.68-0.772c0.083-1.182,0.207-2.363,0.316-3.544
		c0.535-1.313,0.167-2.987,1.485-3.995c1.211,0.601-0.291,1.514,0.382,2.259c1.275-1.714,0.369-3.38,0.199-4.971
		c-0.324-0.195-0.62-0.374-0.92-0.553c-0.031-0.236-0.062-0.471-0.092-0.706c0.452-0.24,0.795-0.521,0.679-1.127
		c-0.062-0.326-0.158-0.674-0.193-1.006c0.105-0.48,0.207-0.985,0.307-1.515c0.309-3,0.703-6.869,0.211-11.076
		c-0.091-1.061-0.2-2.153-0.328-3.27c-0.154-1.104-0.407-2.195-0.637-3.327c-0.105-0.483-0.211-0.973-0.32-1.465
		c0.098,0.103,0.196,0.207,0.294,0.31c0.222,0.825,0.803,1.354,1.482,1.803c0.062,0.703,0.037,1.426,0.201,2.104
		c0.481,1.985,1.061,3.944,1.544,5.926c0.125,0.513,0.024,1.078,0.06,1.616c0.118,1.733,0.253,3.468,0.381,5.201
		C188.964,90.58,188.987,91.113,188.762,91.506z"/>
	<polygon fill-rule="evenodd" clip-rule="evenodd" points="81.091,174.508 81.101,174.514 81.101,174.513 	"/>
	<path fill-rule="evenodd" clip-rule="evenodd" d="M124.976,16.427c0.619,0.173,0.988-0.19,0.918-0.879
		c-0.084-0.004-0.167-0.02-0.246-0.05c-0.627-0.113-1.254-0.228-1.88-0.343c-0.076,0.02-0.151,0.019-0.227-0.002
		c-0.264,0.122-0.528,0.243-0.794,0.364l0.032-0.009C123.511,15.822,124.217,16.215,124.976,16.427z"/>
	<polygon fill-rule="evenodd" clip-rule="evenodd" points="118.032,15.136 118.032,15.142 118.038,15.142 	"/>
	<path fill-rule="evenodd" clip-rule="evenodd" d="M120.315,14c0.39,0,0.785,0,1.406,0C121.034,14,120.66,14,120.315,14z"/>
	<path fill-rule="evenodd" clip-rule="evenodd" d="M120.315,13.996c-0.015,0-0.033,0-0.049,0l0.026,0.02
		C120.301,14.007,120.309,14.003,120.315,13.996z"/>
	<path fill-rule="evenodd" clip-rule="evenodd" d="M77.107,173.07c0.039-0.078,0.078-0.155,0.117-0.23
		c-0.039,0.075-0.078,0.152-0.117,0.227V173.07z"/>
	<polygon fill-rule="evenodd" clip-rule="evenodd" points="186.643,93.995 186.76,93.921 186.647,93.845 	"/>
</g>
<path fill="#FFFFFF" d="M86.823,60.867c-13.948,17.731-18.141,24.9-22.67,10.412c-1.457-4.662-8.752-4.636-11.094-10.646
	c-3.44,24.911,6.065,66.032,32.428,73.416c6.029,1.69,15.892,11.005,23.338,7.289c-16.51-12.837-23.86-14.333-6.097-32.08
	c23.653-20.073,39.262,7.756,47.399,27.398C170.761,97.366,99.742,44.441,86.823,60.867z"/>
</svg>
