<?xml version="1.0" encoding="utf-8"?>
<!-- Generator: Adobe Illustrator 18.0.0, SVG Export Plug-In . SVG Version: 6.00 Build 0)  -->
<!DOCTYPE svg PUBLIC "-//W3C//DTD SVG 1.1//EN" "http://www.w3.org/Graphics/SVG/1.1/DTD/svg11.dtd">
<svg version="1.1" id="Capa_1" xmlns="http://www.w3.org/2000/svg" xmlns:xlink="http://www.w3.org/1999/xlink" x="0px" y="0px"
	 viewBox="0 0 141.7 56.7" enable-background="new 0 0 141.7 56.7" xml:space="preserve">
<g>
	<g>
		<g>
			<polygon fill-rule="evenodd" clip-rule="evenodd" points="16.3,43.5 16.3,43.5 16.3,43.5 			"/>
		</g>
		<g>
			<path fill-rule="evenodd" clip-rule="evenodd" d="M37.3,26.5C37.3,26.5,37.3,26.4,37.3,26.5c0-0.2-0.1-0.3-0.1-0.4
				c0-0.2-0.1-0.4-0.1-0.6c0-0.1,0-0.1,0-0.2c0,0-0.1,0-0.1,0c0-0.1,0-0.1,0-0.2c0-0.1,0-0.1,0-0.2c0,0,0,0-0.1,0
				c0-0.1,0-0.2-0.1-0.3c0-0.2-0.1-0.5-0.1-0.7c0,0,0,0,0-0.1c0,0,0-0.1-0.1-0.1c0,0,0-0.1,0-0.1c0-0.1,0-0.2-0.1-0.3
				c-0.1-0.3-0.2-0.5-0.4-0.8c0,0,0-0.1-0.1-0.1c0,0,0,0,0-0.1c0,0,0,0,0-0.1c0,0,0,0-0.1,0c0-0.1-0.1-0.1-0.1-0.2
				c0,0,0-0.1-0.1-0.1c0,0,0-0.1-0.1-0.1c-0.2-0.3-0.4-0.6-0.5-0.9c-0.1-0.1-0.2-0.3-0.3-0.4c0-0.1-0.1-0.2-0.1-0.3
				c-0.5-1-1.2-2-1.8-2.7c-0.2-0.3-0.5-0.5-0.7-0.8c-0.2-0.2-0.4-0.4-0.6-0.6c-0.4-0.3-0.6-0.5-0.7-0.5c-0.2-0.1-0.4-0.2-0.5-0.4
				c-0.1-0.1-0.2-0.2-0.3-0.3c-0.2-0.2-0.3-0.4-0.6-0.6c-0.4-0.2-0.8-0.4-1.1-0.5c-0.3-0.1-0.6-0.3-0.9-0.3c-0.5-0.2-1-0.3-1.3-0.6
				c-0.2-0.2-0.7-0.3-1.3-0.5c-0.3-0.1-0.7-0.2-1-0.2c-0.3-0.1-0.6-0.1-0.9-0.2c0,0,0,0,0.1-0.1c-0.1,0-0.2,0-0.2,0c0,0,0.2,0,0.1,0
				c0,0,0.1,0,0.1,0c0,0,0,0,0,0c0,0-0.5,0-0.7-0.1c0,0-0.2,0-0.3,0c0,0-0.2,0-0.3,0h0c0,0,0,0,0,0c-1.3-0.1-2.4-0.1-2.8-0.3
				c0,0-0.1,0-0.2,0.1c-0.1,0-0.2,0.1-0.4,0.1c-0.3,0.1-0.7,0.1-1.1,0.1c-0.9-0.1-1.5,0.3-2.6,0.5c-0.3,0-0.6,0.1-0.9,0.2
				c-0.4,0.1-0.7,0.3-1.1,0.5c-0.4,0.2-0.8,0.4-1.2,0.6c-0.2,0.1-0.4,0.2-0.6,0.4c-0.2,0.1-0.4,0.3-0.6,0.4
				c-0.8,0.5-1.4,1.2-1.9,1.6c-0.5,0.5-0.8,0.9-1,1c-0.1,0.1-0.2,0.2-0.4,0.3c-0.1,0.1-0.2,0.3-0.3,0.4c-0.1,0.1-0.3,0.4-0.6,0.7
				C6.3,18.6,6.1,18.8,6,19c-0.2,0.2-0.3,0.4-0.5,0.6c-0.3,0.4-0.6,0.9-0.8,1.2c-0.2,0.4-0.4,0.7-0.4,0.8c-0.1,0.7-0.5,0.8-0.5,1.5
				c0,0.3-0.1,0.7-0.3,1.1c0,0.1-0.3,0.7-0.3,0.8c0,0.3,0.2,0.1,0.2,0.4c0,0.1,0,0.4-0.1,0.9c-0.1,0.5-0.2,1.2-0.3,2.2
				c0,0.4,0.1,0.9,0.1,1.6c0,0.3,0.1,0.7,0.2,1.1c0,0.2,0.1,0.4,0.1,0.6c0,0.1,0,0.2,0.1,0.3c0,0.1,0.1,0.2,0.1,0.3
				c0.4,1.7,1.3,3.6,2.3,5c0.3,0.4,0.5,0.7,0.7,1c0.2,0.3,0.5,0.5,0.7,0.7c0.2,0.2,0.4,0.4,0.6,0.6C7.9,39.9,8,40,8.1,40.1
				c0.2,0.1,0.3,0.1,0.2,0c0-0.1-0.1-0.2-0.2-0.4c-0.1-0.1-0.1-0.2-0.2-0.3c-0.1-0.1-0.2-0.3-0.3-0.4c-0.4-0.6,0-0.3,0.5,0.1
				c0.5,0.4,1.2,0.9,1.3,1c0.1,0,0.3,0.2,0.5,0.3c0.5,0.5,0.5,0.7,0.6,0.7c0.1,0,0.1,0,0.5,0.1c0,0,0.6,0.3,1.2,0.6
				c0.6,0.3,1.2,0.5,1.4,0.5c0.1,0.1,0.2,0.1,0.3,0.1c0,0,0,0,0,0c0.1,0,0.1,0.1,0.2,0.1c0.1,0,0.1,0,0.2,0.1c0,0,0,0,0,0
				c0,0,0,0,0.1,0.1c0.1,0,0.1,0.1,0.2,0.1c0,0,0,0-0.1,0.1c0.1,0,0.1,0.1,0.2,0.1c0.1-0.1,0.1-0.1,0.2-0.2c0,0-0.8,0-0.8,0.1
				c0,0-0.8,0-0.8,0.1v0c0,0.1,0.8,0.1,0.8,0.2c0.1,0,0.4,0.5,0.5,0.5c0.1,0,0.6,0.3,0.6,0.3h0c0,0,0.2-0.3,0.2-0.2
				c0,0,0.1-0.2,0.1-0.2l0-0.1c0,0,0,0.2,0,0.3c0,0,0.1,0.3,0.2,0.3h0c0.1,0,0.2-0.2,0.3-0.2c0,0-0.9-0.1-0.9-0.1
				c0.1-0.1-0.8-0.3-0.8-0.3v0c3,0,2.1,0.7,2.2,0.7h0c0,0-2.2-0.6-2.2-0.6v0c0,0,1,0.1,1,0.1c0,0-0.6,0.1-0.6,0.1
				c0.1,0-0.3,0.1-0.3,0.1v0l2,0.3h0.1c0,0,0.1-0.1,0.2-0.1c0,0,0.1-0.1,0.1-0.1c0,0,0.1,0,0.1,0c-0.1,0-0.3,0-0.5,0
				c-0.3,0-0.7,0-1.1-0.1c-0.4,0-0.8-0.1-1.1-0.2c-0.3-0.1-0.5-0.1-0.6-0.1c-0.8,0-2.1-0.7-2.7-1c-0.3-0.1-0.5-0.2-0.7-0.2
				C10,42,9.7,41.9,9.1,41.5c-0.2-0.1-0.4-0.3-0.6-0.4c-0.2-0.1-0.3-0.2-0.5-0.3c-0.3-0.2-0.5-0.4-0.7-0.5C7,40,6.8,39.8,6.6,39.6
				c-0.3-0.3-0.3-0.3-0.8-0.9c-0.1-0.2-0.2-0.3-0.4-0.5C5.3,38,5.2,37.9,5,37.7c-0.1-0.2-0.3-0.3-0.4-0.5c-0.1-0.2-0.3-0.3-0.4-0.5
				c-0.2-0.3-0.5-0.6-0.6-0.9c-0.1-0.3-0.2-0.5-0.2-0.6c0-0.1,0-0.1-0.1-0.2c-0.1-0.2-0.2-0.3-0.3-0.5C3,34.3,2.9,34.1,2.8,34
				c-0.2-0.4-0.3-0.8-0.5-1.3c-0.1-0.4-0.1-0.4-0.2-0.4c0-0.1-0.1-0.2-0.1-0.7c0-0.4-0.3-1-0.4-1.1c0,0.2,0,0.5,0.1,0.7
				c0.1,0.5,0.2,0.9,0.2,1.4c0,0.3,0.5,1.9,0.7,2.2c0.2,0.5,0.5,1,0.6,1.3c0.1,0.2,0.2,0.3,0.2,0.4c0.1,0.1,0.1,0.1,0.1,0.1
				c0.2,0.4,0.5,0.9,0.7,1.3c0.3,0.4,0.5,0.8,0.8,1.2c0.1,0.2,0.3,0.4,0.4,0.5c0.1,0.2,0.3,0.3,0.4,0.5c0.3,0.3,0.6,0.6,0.9,0.9
				C7,41,7.3,41.3,7.6,41.5c0.1,0.1,0.3,0.2,0.4,0.4c0.2,0.1,0.3,0.2,0.5,0.3c0.3,0.2,0.6,0.4,0.9,0.6c0.3,0.2,0.6,0.3,0.9,0.5
				c0.2,0.1,0.3,0.1,0.3,0c0-0.2,0.1-0.2,0.3-0.1c0.2,0.1,0.6,0.2,1,0.3c0.2,0,0.3,0.1,0.6,0.3c0.3,0.2,0.5,0.4,0.2,0.4
				c-0.2,0-0.4-0.1-0.5-0.1c0.1,0.1,0.3,0.1,0.5,0.3c0.3,0.1,0.6,0.2,1,0.4c0.2,0.1,0.4,0.1,0.6,0.2c0.2,0.1,0.5,0.1,0.7,0.2
				c0.5,0.1,1,0.2,1.5,0.3c0.3,0,0.5,0.1,0.8,0.1c0.3,0,0.5,0.1,0.8,0.1c0.5,0,1.1,0,1.5,0c0.5,0,0.9-0.1,1.3-0.1
				c0.4,0,0.7-0.1,1-0.1c0.8-0.2,0.4-0.2,0.3-0.4c-0.2-0.2,0.8,0,1.2-0.1c0.5-0.1,0.4,0,0.7,0c0.1,0,0.2,0,0.3-0.1
				c0.1,0,0.3-0.1,0.5-0.2c0.2-0.1,0.5-0.2,0.8-0.3c0.2-0.1,0.3-0.1,0.5-0.2c0.2-0.1,0.4-0.2,0.6-0.3c0.4-0.2,0.8-0.5,1.2-0.7
				c0.2-0.1,0.4-0.3,0.6-0.4l0.3-0.2l0.3-0.2c0.4-0.3,0.8-0.6,1.1-0.9c0.4-0.3,0.7-0.6,1-0.9c0.2-0.2,0.4-0.4,0.5-0.7
				c0.2-0.3,0.3-0.5,0.3-0.8c0.1-0.2,0.1-0.5,0.1-0.6c0.3-0.4,0.6-0.7,0.9-1.1c0,0,0,0,0.1,0c0,0,0-0.1,0.1-0.1c0,0,0.1-0.1,0.1-0.1
				c0.1-0.1,0.1-0.1,0.2-0.2c0,0,0,0,0.1,0c0,0,0-0.1,0-0.1c0,0,0,0,0.1,0c0,0,0-0.1,0-0.1c0,0,0,0,0.1,0c0,0,0-0.1,0.1-0.1h0
				c0,0,0.1-0.1,0.1-0.2c0.2-0.2,0.4-0.5,0.6-0.7c0.1-0.1,0.1-0.3,0.2-0.4c0,0,0,0,0.1,0c0.1-0.2,0.2-0.5,0.4-0.7
				c0.1-0.1,0.1-0.2,0.2-0.3c0-0.1,0.1-0.1,0.1-0.2c0,0,0-0.1,0.1-0.1c0,0,0-0.1,0.1-0.1c0.2-0.5,0.3-0.9,0.5-1.4c0-0.2,0-0.4,0-0.6
				c0,0,0,0,0.1,0c0.1-0.2,0.1-0.5,0.2-0.7c0-0.1,0-0.1,0.1-0.2c0-0.2,0.1-0.4,0.1-0.7c0-0.1,0-0.3,0.1-0.4c0,0,0,0,0.1,0
				c0.1-0.4,0.1-0.8,0.1-1.2c0.1-0.3,0.2-0.6,0.2-0.9C37,27,37.2,26.8,37.3,26.5C37.2,26.5,37.3,26.5,37.3,26.5z M31.3,40.3
				c0,0,0,0.1-0.1,0.1C31.2,40.4,31.2,40.3,31.3,40.3z M16.3,42.5c0.1,0,0.3,0,0.6,0.1c0.6,0.1,0.4-0.1,0.7,0
				c-0.1,0.1-0.2,0.1-0.3,0.2c0.3,0.1,0.7,0.1,1.1,0.1c0.4,0,1,0.2,1.3,0.3c0.1,0.1,0.2,0.1,0.2,0.1c0,0-0.1,0-0.1,0
				c-0.2,0-0.4,0-0.6,0c-0.1-0.1-0.1,0-0.2,0h0c-0.3,0-0.5-0.2-0.8-0.3c-0.2-0.1-0.4-0.1-0.6,0c0,0,0,0.1-0.1,0.1
				c-0.1,0-0.2,0-0.3,0c0.1-0.1,0.1-0.2,0.2-0.3C17,42.8,16.7,42.6,16.3,42.5z M30.7,40.8c-0.1,0-0.2,0.1-0.3,0.1
				c0.3-0.1,0.5-0.3,0.8-0.5C31.1,40.5,30.9,40.7,30.7,40.8z M36.8,27c-0.1,0.1-0.1,0.3-0.1,0.4c0,0.3,0,0.6,0,0.8
				c0,0.3,0,0.6-0.1,0.9c-0.1,0.2-0.1,0.4-0.2,0.6c-0.3,0-0.3,0-0.4,0.2c0,0,0,0,0,0c0,0.1-0.1,0.1-0.1,0.2c0,0,0,0,0,0.1
				c-0.1,0-0.1-0.1-0.1-0.2c0-0.2,0-0.5,0.1-0.7c0.1-0.3,0-0.6,0.3-0.8c0.2,0.1-0.1,0.3,0.1,0.4c0.3-0.3,0.1-0.7,0-1
				c-0.1,0-0.1-0.1-0.2-0.1c0,0,0-0.1,0-0.1c0.1,0,0.2-0.1,0.1-0.2c0-0.1,0-0.1,0-0.2c0-0.1,0-0.2,0.1-0.3c0.1-0.6,0.1-1.4,0-2.2
				c0-0.2,0-0.4-0.1-0.6c0-0.2-0.1-0.4-0.1-0.7c0-0.1,0-0.2-0.1-0.3c0,0,0,0,0.1,0.1c0,0.2,0.2,0.3,0.3,0.4c0,0.1,0,0.3,0,0.4
				c0.1,0.4,0.2,0.8,0.3,1.2c0,0.1,0,0.2,0,0.3c0,0.3,0,0.7,0.1,1C36.8,26.8,36.8,26.9,36.8,27z"/>
		</g>
		<g>
			<polygon fill-rule="evenodd" clip-rule="evenodd" points="15.6,43.3 15.6,43.3 15.6,43.3 			"/>
		</g>
		<g>
			<path fill-rule="evenodd" clip-rule="evenodd" d="M24.2,12.2c0.1,0,0.2,0,0.2-0.2c0,0,0,0,0,0c-0.1,0-0.2,0-0.4-0.1c0,0,0,0,0,0
				c-0.1,0-0.1,0-0.2,0.1l0,0C23.9,12.1,24.1,12.2,24.2,12.2z"/>
		</g>
		<g>
			<polygon fill-rule="evenodd" clip-rule="evenodd" points="22.9,11.9 22.9,12 22.9,12 			"/>
		</g>
		<g>
			<path fill-rule="evenodd" clip-rule="evenodd" d="M23.3,11.8c0.1,0,0.2,0,0.3,0C23.4,11.8,23.4,11.8,23.3,11.8z"/>
		</g>
		<g>
			<polygon fill-rule="evenodd" clip-rule="evenodd" points="23.3,11.7 23.3,11.7 23.3,11.7 			"/>
		</g>
		<g>
			<path fill-rule="evenodd" clip-rule="evenodd" d="M14.8,43C14.8,43,14.8,43,14.8,43C14.8,43,14.8,43,14.8,43L14.8,43z"/>
		</g>
		<g>
			<polygon fill-rule="evenodd" clip-rule="evenodd" points="36.3,27.5 36.4,27.4 36.3,27.4 			"/>
		</g>
	</g>
	<g>
		<path fill="#FFFFFF" d="M17.1,20.8c-2.7,3.5-3.6,4.9-4.5,2c-0.3-0.9-1.7-0.9-2.2-2.1c-0.7,4.9,1.2,13,6.4,14.4
			c1.2,0.3,3.1,2.2,4.6,1.4c-3.2-2.5-4.7-2.8-1.2-6.3c4.7-3.9,7.7,1.5,9.3,5.4C33.6,28,19.6,17.6,17.1,20.8z"/>
	</g>
</g>
<g>
	<path d="M40.9,26.3h1.6v-8.7h-1.6v-1.1h3.6l5.2,8.9v-7.8h-1.6v-1.1h4.5v1.1h-1.6v9.8h-1.7L43.7,18v8.3h1.6v1.1h-4.5V26.3z"/>
	<path d="M53.8,20.8c0.3-0.3,0.8-0.6,1.3-0.8c0.5-0.2,1.1-0.3,1.7-0.3c0.6,0,1.1,0.1,1.5,0.2c0.4,0.1,0.7,0.3,0.9,0.6
		s0.4,0.5,0.5,0.8s0.1,0.6,0.1,0.9v4.2h1.4v1h-2.6l0-0.8c-0.3,0.2-0.5,0.3-0.7,0.5s-0.4,0.2-0.6,0.3c-0.2,0.1-0.4,0.1-0.6,0.2
		c-0.2,0-0.4,0-0.7,0c-0.4,0-0.8-0.1-1.1-0.2S54.3,27.2,54,27c-0.2-0.2-0.4-0.4-0.5-0.7s-0.2-0.5-0.2-0.8c0-0.5,0.1-0.9,0.3-1.2
		c0.2-0.3,0.4-0.6,0.7-0.7c0.3-0.2,0.6-0.3,1-0.4c0.4-0.1,0.8-0.1,1.3-0.1c0.3,0,0.6,0,0.9,0c0.3,0,0.6,0.1,0.9,0.1v-0.9
		c0-0.3,0-0.5-0.1-0.7c-0.1-0.2-0.2-0.3-0.4-0.4c-0.2-0.1-0.3-0.2-0.6-0.3c-0.2-0.1-0.4-0.1-0.7-0.1c-0.4,0-0.8,0.1-1.2,0.2
		c-0.4,0.1-0.6,0.4-0.9,0.6L53.8,20.8z M58.5,24.1c-0.2,0-0.5,0-0.8-0.1c-0.3,0-0.6-0.1-1-0.1c-0.2,0-0.5,0-0.7,0.1
		c-0.2,0-0.5,0.1-0.7,0.2c-0.2,0.1-0.3,0.2-0.5,0.4c-0.1,0.2-0.2,0.4-0.2,0.7c0,0.2,0,0.3,0.1,0.5c0.1,0.1,0.2,0.3,0.3,0.4
		c0.1,0.1,0.3,0.2,0.4,0.3c0.2,0.1,0.4,0.1,0.6,0.1c0.2,0,0.4,0,0.6-0.1c0.2,0,0.4-0.1,0.6-0.2c0.2-0.1,0.4-0.2,0.6-0.3
		c0.2-0.1,0.3-0.2,0.5-0.4V24.1z"/>
	<path d="M65.8,27.6c-0.6,0-1.2-0.1-1.7-0.3c-0.5-0.2-0.9-0.5-1.3-0.9s-0.6-0.8-0.8-1.3s-0.3-1-0.3-1.5c0-0.5,0.1-1.1,0.3-1.5
		c0.2-0.5,0.5-0.9,0.8-1.3c0.3-0.4,0.8-0.6,1.3-0.8c0.5-0.2,1.1-0.3,1.7-0.3c0.6,0,1.2,0.1,1.7,0.3c0.5,0.2,0.9,0.5,1.3,0.8
		c0.4,0.4,0.6,0.8,0.8,1.3c0.2,0.5,0.3,1,0.3,1.5c0,0.5-0.1,1.1-0.3,1.5c-0.2,0.5-0.5,0.9-0.8,1.3c-0.4,0.4-0.8,0.6-1.3,0.9
		C67,27.5,66.4,27.6,65.8,27.6z M65.8,26.4c0.4,0,0.7-0.1,1.1-0.2c0.3-0.1,0.6-0.3,0.8-0.6s0.4-0.5,0.5-0.9c0.1-0.3,0.2-0.7,0.2-1.1
		c0-0.4-0.1-0.7-0.2-1.1s-0.3-0.6-0.5-0.9s-0.5-0.4-0.8-0.6c-0.3-0.1-0.7-0.2-1.1-0.2c-0.4,0-0.7,0.1-1,0.2
		c-0.3,0.1-0.6,0.3-0.8,0.6c-0.2,0.2-0.4,0.5-0.5,0.9c-0.1,0.3-0.2,0.7-0.2,1.1c0,0.4,0.1,0.8,0.2,1.1c0.1,0.3,0.3,0.6,0.5,0.9
		c0.2,0.2,0.5,0.4,0.8,0.6C65.1,26.4,65.4,26.4,65.8,26.4z"/>
	<path d="M72.4,20.9H71v-1h2.7l0,1c0.4-0.4,0.9-0.6,1.3-0.9c0.4-0.2,0.9-0.3,1.4-0.3c0.5,0,0.9,0.1,1.3,0.3c0.3,0.2,0.6,0.6,0.8,1
		c0.5-0.4,1-0.8,1.4-1s0.9-0.3,1.4-0.3c0.4,0,0.7,0.1,1,0.2c0.3,0.1,0.5,0.3,0.7,0.5s0.3,0.5,0.4,0.8c0.1,0.3,0.1,0.6,0.1,0.9v4.4
		H85v1h-3.8v-1h1.1v-4.1c0-0.5-0.1-0.8-0.3-1.1c-0.2-0.3-0.5-0.4-0.9-0.4c-0.2,0-0.4,0-0.7,0.1c-0.2,0.1-0.4,0.2-0.7,0.3
		c-0.2,0.1-0.4,0.3-0.6,0.4c-0.2,0.1-0.3,0.3-0.4,0.4v4.3h1.2v1h-3.7v-1h1.1v-4c0-0.5-0.1-0.9-0.3-1.2c-0.2-0.2-0.5-0.4-0.9-0.4
		c-0.4,0-0.8,0.1-1.1,0.3c-0.4,0.2-0.7,0.5-1.1,0.9v4.4H75v1h-4v-1h1.4V20.9z"/>
	<path d="M85.6,26.4h1.3v-5.6h-1.3v-1h2.7v6.6h1.3v1h-4V26.4z M86.7,17.4c0-0.1,0-0.2,0.1-0.3c0-0.1,0.1-0.2,0.2-0.3
		s0.2-0.1,0.3-0.2c0.1,0,0.2-0.1,0.3-0.1c0.2,0,0.5,0.1,0.6,0.2s0.3,0.4,0.3,0.6c0,0.2-0.1,0.4-0.3,0.6c-0.2,0.2-0.4,0.2-0.6,0.2
		c-0.1,0-0.2,0-0.3-0.1c-0.1,0-0.2-0.1-0.3-0.2s-0.1-0.2-0.2-0.3C86.8,17.6,86.7,17.5,86.7,17.4z"/>
	<path d="M94.6,26.3H96v-8.7h-1.4v-1.1h5c0.8,0,1.4,0.1,1.9,0.3s0.9,0.5,1.1,0.8c0.3,0.3,0.5,0.7,0.6,1.1c0.1,0.4,0.2,0.8,0.2,1.1
		c0,0.6-0.1,1.1-0.3,1.6s-0.5,0.7-0.9,1s-0.9,0.4-1.4,0.5c-0.5,0.1-1.1,0.1-1.8,0.1h-1.4v3.4H99v1.1h-4.5V26.3z M97.5,22h1.7
		c0.5,0,0.9-0.1,1.3-0.2c0.3-0.1,0.6-0.3,0.8-0.5s0.3-0.4,0.4-0.7c0.1-0.3,0.1-0.6,0.1-0.9c0-0.7-0.2-1.2-0.6-1.6
		c-0.4-0.4-0.9-0.6-1.6-0.6h-2.1V22z"/>
	<path d="M104.7,20.8c0.3-0.3,0.8-0.6,1.3-0.8c0.5-0.2,1.1-0.3,1.7-0.3c0.6,0,1.1,0.1,1.5,0.2c0.4,0.1,0.7,0.3,0.9,0.6
		s0.4,0.5,0.5,0.8c0.1,0.3,0.1,0.6,0.1,0.9v4.2h1.4v1h-2.6l0-0.8c-0.3,0.2-0.5,0.3-0.7,0.5s-0.4,0.2-0.6,0.3
		c-0.2,0.1-0.4,0.1-0.6,0.2c-0.2,0-0.4,0-0.7,0c-0.4,0-0.8-0.1-1.1-0.2s-0.6-0.3-0.8-0.5c-0.2-0.2-0.4-0.4-0.5-0.7
		c-0.1-0.3-0.2-0.5-0.2-0.8c0-0.5,0.1-0.9,0.3-1.2c0.2-0.3,0.4-0.6,0.7-0.7c0.3-0.2,0.6-0.3,1-0.4c0.4-0.1,0.8-0.1,1.3-0.1
		c0.3,0,0.6,0,0.9,0c0.3,0,0.6,0.1,0.9,0.1v-0.9c0-0.3,0-0.5-0.1-0.7c-0.1-0.2-0.2-0.3-0.4-0.4c-0.2-0.1-0.3-0.2-0.6-0.3
		c-0.2-0.1-0.4-0.1-0.7-0.1c-0.4,0-0.8,0.1-1.2,0.2c-0.3,0.1-0.6,0.4-0.9,0.6L104.7,20.8z M109.3,24.1c-0.2,0-0.5,0-0.8-0.1
		s-0.6-0.1-1-0.1c-0.2,0-0.5,0-0.7,0.1c-0.2,0-0.5,0.1-0.7,0.2c-0.2,0.1-0.3,0.2-0.5,0.4c-0.1,0.2-0.2,0.4-0.2,0.7
		c0,0.2,0,0.3,0.1,0.5c0.1,0.1,0.2,0.3,0.3,0.4c0.1,0.1,0.3,0.2,0.4,0.3c0.2,0.1,0.4,0.1,0.6,0.1c0.2,0,0.4,0,0.6-0.1
		c0.2,0,0.4-0.1,0.6-0.2c0.2-0.1,0.4-0.2,0.6-0.3s0.3-0.2,0.5-0.4V24.1z"/>
	<path d="M112.8,25h1.3v0.5c0.1,0.2,0.2,0.3,0.3,0.4c0.1,0.1,0.2,0.2,0.4,0.3s0.3,0.2,0.5,0.2c0.2,0.1,0.5,0.1,0.7,0.1
		c0.6,0,1-0.1,1.3-0.3c0.3-0.2,0.4-0.5,0.4-0.8c0-0.2,0-0.4-0.1-0.5c-0.1-0.1-0.2-0.2-0.3-0.3s-0.3-0.1-0.5-0.2s-0.4-0.1-0.7-0.1
		c-0.4-0.1-0.8-0.1-1.2-0.2s-0.7-0.2-1-0.4s-0.6-0.4-0.8-0.7c-0.2-0.3-0.3-0.7-0.3-1.1c0-0.3,0.1-0.6,0.2-0.9
		c0.1-0.3,0.3-0.5,0.6-0.7c0.2-0.2,0.5-0.4,0.9-0.5c0.3-0.1,0.7-0.2,1.2-0.2c0.4,0,0.7,0.1,1.1,0.2c0.3,0.1,0.6,0.3,0.9,0.5v-0.6
		h1.2v2.4h-1.2v-0.6c-0.4-0.5-1.1-0.8-1.9-0.8c-0.5,0-0.8,0.1-1.1,0.3c-0.3,0.2-0.4,0.4-0.4,0.8c0,0.2,0.1,0.4,0.2,0.5
		c0.1,0.1,0.3,0.2,0.6,0.3c0.2,0.1,0.5,0.1,0.8,0.2s0.6,0.1,0.9,0.2s0.6,0.1,0.9,0.2s0.6,0.2,0.8,0.4c0.2,0.2,0.4,0.4,0.6,0.6
		c0.1,0.3,0.2,0.6,0.2,1c0,0.3-0.1,0.7-0.2,1c-0.1,0.3-0.3,0.5-0.6,0.7c-0.3,0.2-0.6,0.4-1,0.5s-0.8,0.2-1.2,0.2
		c-0.4,0-0.8-0.1-1.2-0.2c-0.3-0.1-0.7-0.3-0.9-0.5v0.5h-1.3V25z"/>
	<path d="M120.1,19.8h1.2v-2.4l1.4-0.3v2.7h1.6v1h-1.6v3.8c0,0.3,0,0.5,0,0.8c0,0.2,0,0.4,0.1,0.5c0.1,0.1,0.1,0.2,0.2,0.3
		c0.1,0.1,0.3,0.1,0.5,0.1h1.1v1h-1.3c-0.5,0-0.9-0.1-1.1-0.2s-0.5-0.3-0.6-0.6c-0.1-0.3-0.2-0.6-0.2-0.9s0-0.7,0-1.1v-3.7h-1.2
		V19.8z"/>
	<path d="M129.3,27.6c-0.6,0-1.2-0.1-1.7-0.3c-0.5-0.2-0.9-0.5-1.3-0.9c-0.3-0.4-0.6-0.8-0.8-1.3c-0.2-0.5-0.3-1-0.3-1.5
		c0-0.5,0.1-1.1,0.3-1.5c0.2-0.5,0.5-0.9,0.8-1.3c0.4-0.4,0.8-0.6,1.3-0.8c0.5-0.2,1.1-0.3,1.7-0.3c0.6,0,1.2,0.1,1.7,0.3
		c0.5,0.2,0.9,0.5,1.3,0.8c0.3,0.4,0.6,0.8,0.8,1.3c0.2,0.5,0.3,1,0.3,1.5c0,0.5-0.1,1.1-0.3,1.5c-0.2,0.5-0.5,0.9-0.8,1.3
		c-0.4,0.4-0.8,0.6-1.3,0.9C130.5,27.5,129.9,27.6,129.3,27.6z M129.3,26.4c0.4,0,0.7-0.1,1.1-0.2c0.3-0.1,0.6-0.3,0.8-0.6
		c0.2-0.2,0.4-0.5,0.5-0.9c0.1-0.3,0.2-0.7,0.2-1.1c0-0.4-0.1-0.7-0.2-1.1c-0.1-0.3-0.3-0.6-0.5-0.9c-0.2-0.2-0.5-0.4-0.8-0.6
		c-0.3-0.1-0.7-0.2-1.1-0.2c-0.4,0-0.7,0.1-1,0.2c-0.3,0.1-0.6,0.3-0.8,0.6s-0.4,0.5-0.5,0.9c-0.1,0.3-0.2,0.7-0.2,1.1
		c0,0.4,0.1,0.8,0.2,1.1c0.1,0.3,0.3,0.6,0.5,0.9s0.5,0.4,0.8,0.6C128.6,26.4,128.9,26.4,129.3,26.4z"/>
	<path d="M134.5,26.4h1.5v-5.6h-1.6v-1h2.7l0,1.7c0.2-0.3,0.4-0.6,0.5-0.9c0.2-0.2,0.4-0.4,0.6-0.6c0.2-0.1,0.5-0.2,0.7-0.3
		s0.5-0.1,0.9-0.1c0.3,0,0.6,0,0.9,0.1l0,1.3c0,0-0.1,0-0.1,0c-0.1,0-0.2,0-0.3,0c-0.1,0-0.2,0-0.3,0c-0.1,0-0.2,0-0.2,0
		c-0.5,0-0.9,0.1-1.2,0.2c-0.3,0.1-0.6,0.3-0.7,0.6c-0.2,0.2-0.3,0.5-0.4,0.9c-0.1,0.3-0.1,0.7-0.1,1.2v2.6h1.7v1h-4.6V26.4z"/>
</g>
<g>
	<path d="M47.1,37.2c-0.1,0.7-0.3,1.3-0.8,1.7s-1,0.6-1.8,0.6c-0.5,0-1-0.1-1.4-0.4c-0.4-0.3-0.7-0.6-0.9-1.1s-0.3-1-0.3-1.6v-0.9
		c0-0.6,0.1-1.2,0.3-1.7c0.2-0.5,0.5-0.9,0.9-1.1s0.9-0.4,1.4-0.4c0.7,0,1.3,0.2,1.8,0.6s0.7,1,0.8,1.7h-0.6
		c-0.1-1.2-0.8-1.8-1.9-1.8c-0.6,0-1.1,0.2-1.5,0.7c-0.4,0.5-0.6,1.1-0.6,2v0.9c0,0.8,0.2,1.5,0.5,1.9c0.4,0.5,0.9,0.7,1.5,0.7
		c0.6,0,1.1-0.1,1.4-0.4s0.5-0.7,0.6-1.3H47.1z"/>
	<path d="M50.8,34.7c-0.1,0-0.3,0-0.4,0c-0.4,0-0.7,0.1-0.9,0.3s-0.4,0.5-0.5,0.9v3.6h-0.6v-5.2H49l0,0.8c0.3-0.6,0.8-0.9,1.5-0.9
		c0.2,0,0.3,0,0.4,0.1L50.8,34.7z"/>
	<path d="M53.6,39.5c-0.4,0-0.8-0.1-1.2-0.3s-0.6-0.5-0.8-0.9c-0.2-0.4-0.3-0.8-0.3-1.3v-0.2c0-0.5,0.1-0.9,0.3-1.3
		c0.2-0.4,0.5-0.7,0.8-0.9c0.3-0.2,0.7-0.3,1.1-0.3c0.6,0,1.1,0.2,1.5,0.6c0.4,0.4,0.6,1,0.6,1.8v0.3h-3.7v0.1
		c0,0.6,0.2,1.1,0.5,1.5s0.8,0.6,1.3,0.6c0.3,0,0.6-0.1,0.8-0.2c0.2-0.1,0.4-0.3,0.6-0.5l0.4,0.3C55.1,39.2,54.4,39.5,53.6,39.5z
		 M53.5,34.6c-0.4,0-0.8,0.2-1.1,0.5c-0.3,0.3-0.5,0.7-0.5,1.3H55v-0.1c0-0.5-0.2-0.9-0.4-1.2C54.3,34.7,54,34.6,53.5,34.6z"/>
	<path d="M60,39.4c-0.1-0.2-0.1-0.4-0.1-0.7c-0.2,0.3-0.5,0.5-0.8,0.6c-0.3,0.1-0.6,0.2-1,0.2c-0.5,0-0.9-0.1-1.2-0.4
		c-0.3-0.3-0.5-0.6-0.5-1.1c0-0.5,0.2-0.9,0.6-1.2c0.4-0.3,1-0.4,1.8-0.4h1v-0.6c0-0.4-0.1-0.7-0.3-0.9c-0.2-0.2-0.6-0.3-1-0.3
		c-0.4,0-0.7,0.1-1,0.3c-0.3,0.2-0.4,0.5-0.4,0.7l-0.6,0c0-0.4,0.2-0.8,0.6-1.1c0.4-0.3,0.9-0.5,1.4-0.5c0.6,0,1,0.1,1.4,0.4
		c0.3,0.3,0.5,0.7,0.5,1.2v2.5c0,0.5,0.1,0.9,0.2,1.1v0.1H60z M58.2,38.9c0.4,0,0.7-0.1,1-0.3s0.5-0.4,0.7-0.7v-1.1h-1
		c-0.6,0-1,0.1-1.3,0.3c-0.3,0.2-0.5,0.5-0.5,0.8c0,0.3,0.1,0.5,0.3,0.7C57.6,38.9,57.8,38.9,58.2,38.9z"/>
	<path d="M62.9,32.8v1.3H64v0.5h-1.1v3.5c0,0.3,0.1,0.5,0.2,0.6c0.1,0.1,0.3,0.2,0.5,0.2c0.1,0,0.3,0,0.5,0l0,0.5
		c-0.2,0.1-0.4,0.1-0.6,0.1c-0.4,0-0.7-0.1-0.9-0.3c-0.2-0.2-0.3-0.6-0.3-1v-3.5h-1v-0.5h1v-1.3H62.9z"/>
	<path d="M65.1,32.7c0-0.1,0-0.2,0.1-0.3c0.1-0.1,0.2-0.1,0.3-0.1c0.1,0,0.2,0,0.3,0.1c0.1,0.1,0.1,0.2,0.1,0.3s0,0.2-0.1,0.3
		C65.7,33,65.6,33,65.5,33c-0.1,0-0.2,0-0.3-0.1S65.1,32.8,65.1,32.7z M65.8,39.4h-0.6v-5.2h0.6V39.4z"/>
	<path d="M69,38.6l1.6-4.4h0.6l-1.9,5.2h-0.5l-2-5.2h0.6L69,38.6z"/>
	<path d="M72,32.7c0-0.1,0-0.2,0.1-0.3c0.1-0.1,0.2-0.1,0.3-0.1s0.2,0,0.3,0.1c0.1,0.1,0.1,0.2,0.1,0.3s0,0.2-0.1,0.3
		C72.7,33,72.6,33,72.4,33s-0.2,0-0.3-0.1S72,32.8,72,32.7z M72.7,39.4h-0.6v-5.2h0.6V39.4z"/>
	<path d="M75.2,32.8v1.3h1.1v0.5h-1.1v3.5c0,0.3,0.1,0.5,0.2,0.6c0.1,0.1,0.3,0.2,0.5,0.2c0.1,0,0.3,0,0.5,0l0,0.5
		c-0.2,0.1-0.4,0.1-0.6,0.1c-0.4,0-0.7-0.1-0.9-0.3c-0.2-0.2-0.3-0.6-0.3-1v-3.5h-1v-0.5h1v-1.3H75.2z"/>
	<path d="M79.1,38.5l1.5-4.4h0.6L79,40.2l-0.1,0.3c-0.3,0.6-0.7,0.9-1.3,0.9c-0.1,0-0.3,0-0.4-0.1l0-0.5l0.3,0
		c0.3,0,0.5-0.1,0.7-0.2c0.2-0.1,0.3-0.4,0.4-0.7l0.3-0.7l-2-5.2h0.6L79.1,38.5z"/>
	<path d="M85.7,35.5c-0.3-0.3-0.5-0.6-0.6-0.9c-0.1-0.3-0.2-0.5-0.2-0.8c0-0.5,0.1-0.9,0.4-1.2c0.3-0.3,0.7-0.4,1.2-0.4
		c0.4,0,0.8,0.1,1.1,0.4s0.4,0.6,0.4,1c0,0.5-0.3,0.9-0.8,1.4l-0.8,0.6l1.9,2.2c0.3-0.5,0.4-1,0.4-1.6h0.5c0,0.8-0.2,1.5-0.6,2
		l1,1.1H89l-0.6-0.7c-0.3,0.3-0.5,0.4-0.9,0.6c-0.3,0.1-0.7,0.2-1,0.2c-0.7,0-1.2-0.2-1.6-0.5c-0.4-0.3-0.6-0.8-0.6-1.4
		c0-0.3,0.1-0.7,0.3-1S85.1,36,85.7,35.5L85.7,35.5z M86.5,39c0.3,0,0.6-0.1,0.8-0.2c0.3-0.1,0.5-0.3,0.7-0.5l-2-2.3L86,35.9
		l-0.2,0.2c-0.6,0.5-0.9,1-0.9,1.5c0,0.4,0.1,0.8,0.4,1C85.6,38.8,86,39,86.5,39z M85.5,33.8c0,0.4,0.2,0.9,0.6,1.4l0.6-0.5
		c0.2-0.1,0.4-0.3,0.5-0.5c0.1-0.2,0.2-0.4,0.2-0.6c0-0.3-0.1-0.5-0.3-0.6s-0.4-0.3-0.7-0.3c-0.3,0-0.6,0.1-0.7,0.3
		C85.6,33.3,85.5,33.5,85.5,33.8z"/>
	<path d="M93.5,34.2l0,0.8c0.2-0.3,0.4-0.5,0.7-0.7c0.3-0.2,0.6-0.2,1-0.2c0.8,0,1.3,0.3,1.6,1c0.2-0.3,0.4-0.6,0.7-0.7
		c0.3-0.2,0.7-0.3,1-0.3c1.1,0,1.7,0.6,1.7,1.8v3.5h-0.6v-3.4c0-0.5-0.1-0.8-0.3-1c-0.2-0.2-0.5-0.3-1-0.3c-0.4,0-0.8,0.1-1,0.4
		s-0.4,0.6-0.5,1v3.4h-0.6v-3.5c0-0.4-0.1-0.8-0.3-1c-0.2-0.2-0.5-0.3-1-0.3c-0.4,0-0.7,0.1-0.9,0.3c-0.3,0.2-0.5,0.5-0.6,0.9v3.6
		h-0.6v-5.2H93.5z"/>
	<path d="M101.4,36.7c0-0.5,0.1-0.9,0.3-1.3c0.2-0.4,0.5-0.7,0.8-0.9c0.4-0.2,0.8-0.3,1.2-0.3c0.7,0,1.3,0.2,1.7,0.7
		s0.6,1.1,0.6,1.9v0.1c0,0.5-0.1,1-0.3,1.4c-0.2,0.4-0.5,0.7-0.8,0.9s-0.8,0.3-1.2,0.3c-0.7,0-1.2-0.2-1.7-0.7s-0.6-1.1-0.6-1.9
		V36.7z M101.9,36.8c0,0.6,0.2,1.1,0.5,1.5c0.3,0.4,0.7,0.6,1.3,0.6c0.5,0,0.9-0.2,1.3-0.6c0.3-0.4,0.5-0.9,0.5-1.6v-0.1
		c0-0.4-0.1-0.8-0.2-1.1c-0.1-0.3-0.4-0.6-0.6-0.8c-0.3-0.2-0.6-0.3-0.9-0.3c-0.5,0-0.9,0.2-1.3,0.6c-0.3,0.4-0.5,0.9-0.5,1.6V36.8z
		"/>
	<path d="M109.6,34.7c-0.1,0-0.3,0-0.4,0c-0.4,0-0.7,0.1-0.9,0.3s-0.4,0.5-0.5,0.9v3.6h-0.6v-5.2h0.6l0,0.8c0.3-0.6,0.8-0.9,1.5-0.9
		c0.2,0,0.3,0,0.4,0.1L109.6,34.7z"/>
	<path d="M112.4,39.5c-0.4,0-0.8-0.1-1.2-0.3s-0.6-0.5-0.8-0.9c-0.2-0.4-0.3-0.8-0.3-1.3v-0.2c0-0.5,0.1-0.9,0.3-1.3
		c0.2-0.4,0.5-0.7,0.8-0.9c0.3-0.2,0.7-0.3,1.1-0.3c0.6,0,1.1,0.2,1.5,0.6s0.6,1,0.6,1.8v0.3h-3.7v0.1c0,0.6,0.2,1.1,0.5,1.5
		s0.8,0.6,1.3,0.6c0.3,0,0.6-0.1,0.8-0.2c0.2-0.1,0.4-0.3,0.6-0.5l0.4,0.3C113.8,39.2,113.2,39.5,112.4,39.5z M112.3,34.6
		c-0.4,0-0.8,0.2-1.1,0.5c-0.3,0.3-0.5,0.7-0.5,1.3h3.1v-0.1c0-0.5-0.2-0.9-0.4-1.2C113.1,34.7,112.7,34.6,112.3,34.6z"/>
</g>
<text transform="matrix(1 0 0 1 17.3461 -26.1735)" font-family="'MyriadPro-Regular'" font-size="12">v</text>
</svg>
