<?xml version="1.0" encoding="utf-8"?>
<!-- Generator: Adobe Illustrator 18.0.0, SVG Export Plug-In . SVG Version: 6.00 Build 0)  -->
<!DOCTYPE svg PUBLIC "-//W3C//DTD SVG 1.0//EN" "http://www.w3.org/TR/2001/REC-SVG-20010904/DTD/svg10.dtd">
<svg version="1.0" id="Capa_1" xmlns="http://www.w3.org/2000/svg" xmlns:xlink="http://www.w3.org/1999/xlink" x="0px" y="0px"
	 viewBox="0 0 100 100" enable-background="new 0 0 100 100" xml:space="preserve">
<g>
	<circle id="XMLID_115_" fill="#125688" cx="50" cy="50" r="49.9"/>
	<path fill="#FFFFFF" d="M68.1,20.4H31.9c-6.3,0-11.4,5.1-11.4,11.4v12.1v4.4v19.8c0,6.3,5.1,11.4,11.4,11.4h36.3
		c6.3,0,11.4-5.1,11.4-11.4V48.4v-4.4V31.9C79.6,25.6,74.4,20.4,68.1,20.4z M71.4,27.3l1.3,0v1.3v8.7l-10,0l0-10L71.4,27.3z
		 M41.6,43.9c1.9-2.6,5-4.3,8.4-4.3c3.5,0,6.5,1.7,8.4,4.3c0.2,0.3,0.4,0.6,0.6,1c0.8,1.5,1.3,3.2,1.3,5.1c0,5.7-4.7,10.4-10.4,10.4
		c-5.7,0-10.4-4.7-10.4-10.4c0-1.8,0.5-3.6,1.3-5.1C41.1,44.6,41.3,44.3,41.6,43.9z M73.8,68.1c0,3.1-2.5,5.7-5.7,5.7H31.9
		c-3.1,0-5.7-2.5-5.7-5.7V47v-3.1H35c-0.2,0.5-0.4,1.1-0.6,1.7c-0.4,1.4-0.6,2.9-0.6,4.4c0,8.9,7.2,16.2,16.2,16.2
		c8.9,0,16.2-7.3,16.2-16.2c0-1.5-0.2-3-0.6-4.4c-0.2-0.6-0.4-1.1-0.6-1.7h8.8V47V68.1z"/>
</g>
</svg>
