<?xml version="1.0" encoding="utf-8"?>
<!-- Generator: Adobe Illustrator 18.0.0, SVG Export Plug-In . SVG Version: 6.00 Build 0)  -->
<!DOCTYPE svg PUBLIC "-//W3C//DTD SVG 1.1//EN" "http://www.w3.org/Graphics/SVG/1.1/DTD/svg11.dtd">
<svg version="1.1" id="Capa_1" xmlns="http://www.w3.org/2000/svg" xmlns:xlink="http://www.w3.org/1999/xlink" x="0px" y="0px"
	 viewBox="9.4 9.4 181.1 181.1" enable-background="new 9.4 9.4 181.1 181.1" xml:space="preserve">
<g>
	<path d="M84.7,175.6C84.7,175.6,84.7,175.6,84.7,175.6C84.7,175.6,84.7,175.6,84.7,175.6L84.7,175.6z"/>
	<path d="M190.1,89c0-0.1,0-0.2,0-0.4c0.1-0.5,0.2-0.9,0.3-1.4c-0.1-1-0.2-1.9-0.3-2.9c0-0.4,0-0.7,0-1.1c-0.1,0-0.2-0.1-0.3-0.1
		c0-0.3,0-0.7,0-1c0-0.4,0-0.7-0.1-1.1c-0.1,0-0.2,0-0.3-0.1c-0.1-0.6-0.2-1.2-0.3-1.7c-0.2-1.2-0.3-2.4-0.5-3.7c0-0.1,0-0.2,0-0.3
		c-0.1-0.1-0.2-0.3-0.3-0.4c0-0.2,0-0.5,0-0.7c-0.1-0.5-0.2-1-0.4-1.4c-0.6-1.3-1.2-2.6-1.8-4c-0.1-0.1-0.2-0.3-0.3-0.4
		c0-0.1,0-0.2,0.1-0.4c0-0.1-0.1-0.2-0.1-0.4c-0.1,0-0.2,0-0.3-0.1c-0.2-0.3-0.3-0.7-0.5-1c-0.1-0.2-0.3-0.5-0.4-0.7
		c-0.1-0.3-0.2-0.5-0.3-0.8c-0.9-1.5-1.9-2.9-2.7-4.4c-0.4-0.8-0.9-1.4-1.6-1.8c-0.2-0.4-0.4-0.9-0.7-1.3c-2.7-5.2-6-10-9.1-13.6
		c-1.2-1.5-2.5-2.8-3.6-3.9c-1.1-1.2-2.2-2.2-3.1-3c-1.9-1.6-3.1-2.6-3.5-2.8c-1.1-0.6-1.9-1.2-2.6-1.8c-0.6-0.5-1.1-1.1-1.5-1.6
		c-0.8-1.1-1.4-2.1-2.8-2.9c-2-1.3-3.9-2-5.6-2.7c-1.7-0.7-3.2-1.3-4.6-1.7c-2.8-0.9-4.9-1.7-6.5-3.1c-1-0.8-3.4-1.7-6.5-2.7
		c-1.6-0.5-3.4-0.9-5.2-1.2c-1.5-0.3-3-0.6-4.5-0.8c0.1-0.1,0.2-0.2,0.3-0.4c-0.5-0.1-0.9-0.1-1.1,0.2c-0.2,0-0.3-0.1-0.5-0.1
		c-0.3,0,0.2-0.1-0.8-0.1c0,0,0-0.1,0-0.1c-1-0.1-1.4-0.3-2.1-0.4c-0.3,0-0.2,0-0.5-0.1c-0.2,0-0.4,0-0.4,0v0c0,0-0.3,0.1-0.3,0.1
		c-6.4-0.6-12.3-0.7-14.5-1.5c0,0-0.4,0.1-1,0.2s-1.3,0.3-2.2,0.5c-1.7,0.4-3.8,0.6-5.5,0.5c-4.5-0.3-7.8,1.7-13,2.5
		c-1.4,0.2-3,0.5-4.8,1.1c-1.8,0.6-3.8,1.4-5.8,2.3c-2,0.9-4.1,2.1-6.2,3.3c-1,0.6-2.1,1.2-3.1,1.9c-1,0.7-2,1.4-2.9,2.1
		c-3.9,2.7-7.2,5.9-9.8,8.3c-2.5,2.5-4.3,4.5-4.9,4.9c-0.5,0.4-1.2,1-1.8,1.7c-0.6,0.7-1.2,1.5-1.6,2c-0.5,0.7-1.7,1.9-3.1,3.5
		c-0.7,0.8-1.5,1.7-2.3,2.7c-0.8,1-1.6,2-2.4,3.1c-1.7,2.1-3.1,4.4-4.2,6.3c-1.1,1.9-1.8,3.4-1.9,4.2c-0.3,3.8-2.3,4.1-2.7,7.6
		c-0.2,1.7-0.5,3.4-1.4,5.4c-0.2,0.4-1.4,3.8-1.4,4.3c0.2,1.5,0.8,0.6,0.8,2c0,0.7-0.2,1.9-0.7,4.3c-0.5,2.4-0.9,6-1.4,11.4
		c0.1,1.8,0.3,4.6,0.6,8.1c0.1,1.8,0.5,3.6,0.8,5.7c0.2,1,0.4,2,0.6,3.1c0.1,0.5,0.2,1.1,0.3,1.6c0.1,0.5,0.3,1.1,0.4,1.6
		c2.1,8.8,6.5,18.2,11.5,25.5c1.3,1.9,2.5,3.4,3.6,4.9c1.2,1.4,2.4,2.7,3.5,3.8c1.1,1.1,2,2.1,2.9,2.9c0.9,0.7,1.6,1.3,2.2,1.7
		c1.2,0.8,1.7,0.8,1.3-0.2c-0.2-0.5-0.6-1.2-1.2-2.2c-0.3-0.5-0.7-1.1-1.1-1.7c-0.4-0.7-0.9-1.4-1.4-2.3c-2-3.2-0.2-1.7,2.3,0.5
		c2.6,2.1,6,4.7,6.8,4.9c0.4,0.1,1.8,0.8,2.5,1.7c2.4,2.7,2.8,3.4,3.1,3.6c0.3,0.2,0.4,0,2.5,0.4c0,0,2.9,1.6,6,3.1
		c3,1.3,6.2,2.5,7.1,2.7c0.3,0.4,0.8,0.6,1.3,0.6c0,0,0,0,0,0c0.4,0.2,0.7,0.4,1.1,0.7c0.3,0.1,0.7,0.2,1,0.4c0,0,0.1,0,0.1,0.1
		c0.1,0.1,0.2,0.2,0.3,0.3c0.4,0.3,0.7,0.5,1.1,0.8c-0.1,0.1-0.2,0.2-0.3,0.3c0.4,0.2,0.7,0.5,1.1,0.7c0.4-0.4,0.7-0.7,1.1-1.1
		c0,0.1,0.4,0.2,0.4,0.3c0.1,0.1,0.8,0.3,0.8,0.4v0c0,0.4-0.4,0.7-0.4,1.1c0.4,0.1,0.7,0.2,1,0.4c0.5-0.2,1.4-0.5,1.4-0.7
		c0,0,0,0,0,0c0,0.4-0.1,0.7-0.1,1.1c0.1,0,0.2,0,0.3,0l0,0c0,0.1,0,0.3,0,0.4c0.2,0.1,0.5,0.4,0.7,0.4h0c0.5,0,1,0.2,1.5,0.3
		c0.2,0,0.4,0,0.7,0c0.4-0.4,0.1-0.8,1.1-1.1v0c0,0,0.5-0.1,0.8-0.1h0c0.1,0,0.3,0.3,0.4,0.4l0,0c-0.3,0.2-0.5,0.4-0.8,0.6
		c-0.2,0.2-0.4,0.4-0.6,0.5c0.4,0.1,0.7,0.2,1.1,0.4c0,0,0,0,0,0l0,0h0c0.2,0,0.5,0.3,0.7,0.4c0.1,0,0.2,0,0.4,0
		c0.2,0.1,0.4,0.1,0.6,0.2c-0.4,0-1.4,0.1-2.6,0c-1.5-0.1-3.5-0.2-5.4-0.4c-2-0.1-4-0.5-5.6-0.8c-1.6-0.3-2.8-0.6-3.1-0.7
		c-3.8-0.2-10.8-3.7-13.7-5.1c-1.7-0.7-2.3-0.8-3.4-1.1c-1.1-0.3-2.4-1-5.6-2.9c-1.1-0.7-2-1.3-2.9-1.9c-0.9-0.6-1.7-1.2-2.4-1.8
		c-1.5-1.1-2.6-2-3.6-2.7c-1.9-1.5-3-2.5-3.7-3.1c-1.5-1.3-1.7-1.5-4.1-4.8c-0.6-0.9-1.2-1.7-1.9-2.5c-0.7-0.9-1.4-1.8-2.2-2.6
		c-0.8-0.9-1.5-1.7-2.1-2.6c-0.7-0.9-1.3-1.7-1.9-2.5c-1.2-1.6-2.3-3.1-3-4.4c-0.7-1.3-1-2.4-0.9-3.2c0-0.3-0.1-0.7-0.4-1.1
		c-0.5-0.8-1.1-1.6-1.6-2.5c-0.5-0.9-1-1.8-1.5-2.8c-0.9-2-1.7-4.2-2.3-6.7c-0.5-1.8-0.6-1.8-0.8-2.1c-0.2-0.3-0.4-0.8-0.7-3.7
		c-0.2-2.3-1.5-4.9-2-5.5c0,1.2,0.2,2.4,0.4,3.5c0.5,2.5,0.8,4.8,0.9,7c0.1,1.6,2.4,9.4,3.3,11.2c1.1,2.6,2.3,4.9,3.3,6.5
		c0.5,0.8,0.9,1.4,1.2,1.8c0.3,0.4,0.5,0.6,0.5,0.6c1.2,2.3,2.4,4.4,3.6,6.5c1.3,2,2.8,4.1,4.1,5.9c0.7,0.9,1.3,1.8,2,2.6
		c0.7,0.8,1.4,1.6,2.1,2.4c1.4,1.6,2.8,3.1,4.3,4.5c1.5,1.4,3,2.6,4.5,3.9c0.8,0.6,1.5,1.2,2.3,1.8c0.8,0.5,1.5,1.1,2.3,1.6
		c1.5,1,3.1,2.1,4.6,3c1.6,0.9,3.1,1.7,4.7,2.5c0.8,0.4,1.5,0.5,1.4,0c-0.2-0.9,0.4-0.8,1.5-0.4c1.1,0.4,2.9,1.1,4.9,1.5
		c1.3,0.2,1.5,0.4,2.9,1.5c1.4,1,2.7,2.1,1.3,1.9c-0.8-0.1-2-0.6-2.6-0.5c0.4,0.3,1.3,0.7,2.7,1.3c1.3,0.5,3,1.1,5,1.8
		c1,0.3,2.1,0.7,3.2,1c1.1,0.3,2.3,0.6,3.6,0.9c2.5,0.6,5.1,1.2,7.8,1.5c1.4,0.2,2.7,0.4,4.1,0.5c1.4,0.2,2.7,0.3,4.1,0.3
		c2.7,0.1,5.4,0.2,7.9,0.2c2.5-0.1,4.8-0.3,6.8-0.4c2-0.1,3.8-0.5,5.2-0.7c4.2-0.8,2.2-1.1,1.4-2c-0.9-1.1,4.1,0,6.2-0.6
		c2.3-0.5,1.9,0.1,3.4,0c0.4,0,0.8-0.1,1.5-0.3c0.7-0.1,1.5-0.4,2.6-0.8c1.1-0.4,2.4-1,4.1-1.7c0.8-0.4,1.7-0.7,2.7-1.2
		c0.9-0.5,2-1.1,3.1-1.7c2-1.2,4.1-2.3,6.1-3.7c1-0.7,2-1.4,3-2.1l1.5-1l1.5-1.1c2-1.6,3.9-3,5.8-4.6c1.8-1.6,3.6-3.2,5.3-4.8
		c1-1,1.9-2.2,2.7-3.6c0.8-1.4,1.4-2.8,1.8-4.2c0.3-1.2,0.6-2.3,0.6-3.2c1.6-1.9,3.3-3.7,4.7-5.7c0.1,0,0.2,0,0.3,0
		c0.1-0.1,0.2-0.3,0.3-0.4c0.1-0.2,0.3-0.5,0.4-0.7c0.3-0.3,0.5-0.7,0.8-1c0.1,0,0.2-0.1,0.3-0.1c0-0.2,0-0.5,0-0.7
		c0.1,0,0.2,0,0.3-0.1c0-0.2,0.1-0.4,0.1-0.7c0.1,0,0.2,0,0.3-0.1c0.1-0.2,0.2-0.5,0.3-0.7l0,0c0.1-0.2,0.3-0.5,0.4-0.7
		c0.9-1.2,1.9-2.4,2.8-3.7c0.3-0.7,0.5-1.4,0.8-2.1c0.1,0,0.2-0.1,0.3-0.1c0.6-1.2,1.2-2.4,1.8-3.6c0.3-0.5,0.7-1,1-1.5
		c0.1-0.4,0.3-0.7,0.4-1.1c0.1-0.2,0.2-0.5,0.4-0.7c0.1-0.2,0.2-0.5,0.3-0.7c0.8-2.3,1.7-4.6,2.5-6.9c0-0.9,0.1-1.9,0.1-2.8
		c0.1,0,0.2,0,0.3-0.1c0.4-1.2,0.7-2.4,1.1-3.6c0.1-0.4,0.3-0.7,0.4-1.1c0.2-1.1,0.4-2.3,0.6-3.4c0.1-0.7,0.2-1.3,0.3-2
		c0.1,0,0.2-0.1,0.3-0.1c0.4-2,0.5-4,0.4-6.1c0.7-1.5,1.2-3,0.9-4.8c-0.2-1.1,0.1-2.4,0.2-3.5C190.4,89.3,190.3,89.2,190.1,89z
		 M160.8,159.4c-0.1,0.1-0.2,0.3-0.4,0.5C160.6,159.8,160.7,159.6,160.8,159.4z M84.8,170.7c0.7-0.1,1.7,0.1,3.3,0.4
		c2.8,0.5,1.8-0.3,3.5,0c-0.5,0.3-1.1,0.6-1.7,0.8c1.5,0.6,3.8,0.6,5.7,0.7c2.1,0.2,5.2,0.8,6.5,1.6c0.5,0.3,0.9,0.5,1.2,0.7
		c-0.2,0-0.3,0-0.5-0.1c-1.1-0.1-2.1-0.5-3.2-0.6c-0.4-0.3-0.7-0.2-1.1-0.2h0c-1.4,0-2.8-0.5-4.1-1c-1.1-0.3-2.1-0.3-3.1,0.3
		c-0.1,0.2-0.2,0.5-0.4,0.8c-0.5,0-1,0-1.5,0c0.3-0.4,0.5-0.8,0.9-1.3C88.4,171.9,86.6,171.3,84.8,170.7z M157.9,162.1
		c-0.6,0.1-1.1,0.3-1.4,0.3c1.3-0.7,2.7-1.4,3.9-2.3C159.9,160.5,159.1,161.2,157.9,162.1z M188.8,91.5c-0.4,0.7-0.5,1.5-0.4,2.3
		c0,1.4,0,2.9,0,4.3c-0.1,1.5-0.2,2.9-0.3,4.4c-0.3,1.1-0.5,2.2-0.8,3.2c-1.5-0.2-1.5-0.2-1.8,1.3c0,0.1,0,0.1,0,0.2
		c-0.2,0.3-0.4,0.5-0.6,0.8c0,0.1,0,0.2,0,0.3c-0.6,0.1-0.7-0.3-0.7-0.8c0.1-1.2,0.2-2.4,0.3-3.5c0.5-1.3,0.2-3,1.5-4
		c1.2,0.6-0.3,1.5,0.4,2.3c1.3-1.7,0.4-3.4,0.2-5c-0.3-0.2-0.6-0.4-0.9-0.6c0-0.2-0.1-0.5-0.1-0.7c0.5-0.2,0.8-0.5,0.7-1.1
		c-0.1-0.3-0.2-0.7-0.2-1c0.1-0.5,0.2-1,0.3-1.5c0.3-3,0.7-6.9,0.2-11.1c-0.1-1.1-0.2-2.2-0.3-3.3c-0.2-1.1-0.4-2.2-0.6-3.3
		c-0.1-0.5-0.2-1-0.3-1.5c0.1,0.1,0.2,0.2,0.3,0.3c0.2,0.8,0.8,1.4,1.5,1.8c0.1,0.7,0,1.4,0.2,2.1c0.5,2,1.1,3.9,1.5,5.9
		c0.1,0.5,0,1.1,0.1,1.6c0.1,1.7,0.3,3.5,0.4,5.2C189,90.6,189,91.1,188.8,91.5z"/>
	<polygon points="81.1,174.5 81.1,174.5 81.1,174.5 	"/>
	<path d="M125,16.4c0.6,0.2,1-0.2,0.9-0.9c-0.1,0-0.2,0-0.2-0.1c-0.6-0.1-1.3-0.2-1.9-0.3c-0.1,0-0.2,0-0.2,0
		c-0.3,0.1-0.5,0.2-0.8,0.4l0,0C123.5,15.8,124.2,16.2,125,16.4z"/>
	<polygon points="118,15.1 118,15.1 118,15.1 	"/>
	<path d="M120.3,14c0.4,0,0.8,0,1.4,0C121,14,120.7,14,120.3,14z"/>
	<path d="M120.3,14C120.3,14,120.3,14,120.3,14L120.3,14C120.3,14,120.3,14,120.3,14z"/>
	<path d="M77.1,173.1c0-0.1,0.1-0.2,0.1-0.2C77.2,172.9,77.1,173,77.1,173.1L77.1,173.1z"/>
	<polygon points="186.6,94 186.8,93.9 186.6,93.8 	"/>
</g>
<path fill="#FFFFFF" d="M86.8,60.9C72.9,78.6,68.7,85.8,64.2,71.3c-1.5-4.7-8.8-4.6-11.1-10.6c-3.4,24.9,6.1,66,32.4,73.4
	c6,1.7,15.9,11,23.3,7.3c-16.5-12.8-23.9-14.3-6.1-32.1c23.7-20.1,39.3,7.8,47.4,27.4C170.8,97.4,99.7,44.4,86.8,60.9z"/>
</svg>
