<?xml version="1.0" standalone="no"?>
<!DOCTYPE svg PUBLIC "-//W3C//DTD SVG 20010904//EN"
 "http://www.w3.org/TR/2001/REC-SVG-20010904/DTD/svg10.dtd">
<svg version="1.0" xmlns="http://www.w3.org/2000/svg"
 width="700.000000pt" height="700.000000pt" viewBox="0 0 700.000000 700.000000"
 preserveAspectRatio="xMidYMid meet">
<metadata>
Created by potrace 1.11, written by Peter Selinger 2001-2013
</metadata>
<g transform="translate(0.000000,700.000000) scale(0.100000,-0.100000)"
fill="#000000" stroke="none">
<path d="M3425 6514 c-27 -8 -115 -18 -195 -23 -116 -6 -178 -16 -315 -49 -93
-22 -204 -48 -245 -58 -191 -42 -491 -191 -715 -355 -271 -198 -690 -618 -915
-919 -122 -161 -219 -338 -220 -397 0 -12 -18 -58 -39 -102 -24 -51 -44 -109
-51 -154 -6 -39 -26 -112 -45 -162 -43 -117 -51 -160 -34 -191 11 -21 9 -51
-14 -202 -46 -299 -50 -359 -37 -542 36 -504 172 -936 422 -1336 132 -211 329
-442 462 -541 102 -76 101 -58 -4 112 -110 178 -109 180 35 64 117 -94 197
-150 242 -168 29 -12 87 -66 159 -149 21 -23 41 -34 69 -39 22 -3 90 -32 150
-64 61 -32 164 -79 229 -104 66 -26 126 -50 135 -55 9 -4 39 -18 66 -30 56
-26 98 -55 93 -66 -2 -4 5 -12 14 -17 13 -9 21 -7 36 6 15 14 21 15 36 4 10
-7 16 -22 14 -33 -2 -16 3 -19 35 -18 24 1 37 -3 37 -12 0 -19 41 -44 73 -44
16 0 40 9 54 20 45 35 73 21 32 -16 l-21 -19 39 -17 38 -18 -95 6 c-364 20
-575 67 -832 185 -73 33 -171 74 -218 91 -105 38 -274 139 -449 271 -173 130
-254 207 -354 337 -45 58 -111 141 -147 185 -176 212 -270 360 -270 423 0 17
-17 55 -42 93 -58 90 -111 207 -148 329 -18 58 -37 110 -42 116 -5 7 -15 56
-23 110 -13 87 -57 215 -70 202 -3 -2 4 -58 14 -124 11 -65 22 -152 26 -192
16 -184 136 -506 253 -683 27 -41 75 -121 107 -179 203 -365 489 -678 834
-912 143 -97 336 -202 352 -193 5 4 9 13 9 21 0 18 -4 19 114 -17 166 -51 184
-59 233 -105 l48 -45 -45 6 -45 6 37 -21 c151 -83 561 -186 878 -221 232 -25
646 -12 825 28 84 18 99 29 68 50 -13 9 -23 19 -23 23 0 4 87 11 193 15 177 7
199 10 277 37 322 113 700 355 1073 686 166 148 228 246 267 425 8 37 28 69
86 140 42 51 81 97 88 102 22 20 76 95 85 118 5 14 38 62 73 108 35 46 70 100
78 119 8 19 17 37 20 40 7 5 71 124 117 214 38 76 113 286 113 317 0 15 15 79
34 141 19 62 40 151 47 198 7 47 16 90 21 96 5 6 11 56 14 110 3 55 12 119 19
144 14 45 24 255 13 266 -4 3 -3 18 1 32 8 27 2 96 -19 207 -6 33 -15 87 -20
120 -23 143 -45 215 -110 350 -66 138 -141 266 -184 315 -13 14 -53 79 -91
145 -127 225 -269 410 -451 585 -55 53 -130 118 -169 145 -67 48 -126 103
-208 194 -46 51 -171 114 -389 194 -81 30 -168 67 -193 83 -26 16 -63 39 -83
51 -39 24 -220 86 -303 104 -40 9 -48 14 -39 24 13 16 6 21 -42 30 -51 10 -71
-5 -33 -22 26 -12 27 -13 5 -9 -14 2 -46 8 -72 11 -27 4 -48 11 -48 15 0 4
-17 8 -37 8 -46 0 -392 28 -518 42 -49 6 -110 12 -135 15 -25 2 -67 -2 -95
-11z m-45 -1544 c440 -53 1086 -496 1525 -1045 214 -267 387 -611 450 -895 23
-103 31 -360 15 -459 -17 -96 -50 -208 -87 -290 l-29 -64 -43 99 c-332 755
-704 1129 -1098 1100 -149 -11 -309 -78 -457 -193 -75 -58 -251 -245 -312
-333 -73 -104 -96 -157 -102 -231 -10 -137 55 -217 371 -458 103 -78 185 -146
182 -151 -3 -5 -31 -14 -62 -20 -114 -24 -231 14 -505 164 -84 46 -200 100
-258 121 -196 70 -346 163 -482 298 -392 392 -646 1124 -651 1871 -1 266 15
427 37 358 12 -36 98 -113 193 -171 132 -81 157 -108 199 -222 38 -102 85
-181 121 -200 92 -49 193 37 498 426 86 110 169 210 183 223 53 46 117 69 217
81 6 0 49 -4 95 -9z m3160 -627 c0 -10 13 -70 29 -133 38 -147 55 -352 36
-419 -7 -25 -16 -120 -19 -211 -3 -91 -11 -190 -18 -220 -12 -48 -17 -55 -40
-58 -17 -2 -30 -11 -34 -25 -12 -39 -36 -69 -47 -58 -14 14 10 198 31 240 20
40 38 38 35 -4 -3 -29 -2 -29 13 -10 22 28 11 131 -18 162 -18 19 -19 27 -10
45 18 38 35 311 28 444 -6 110 -27 267 -43 318 -3 12 6 6 26 -16 17 -20 31
-44 31 -55z m-970 -2978 c0 -7 -63 -45 -75 -45 -5 0 8 11 30 24 47 28 45 27
45 21z m-2415 -358 c39 2 39 2 16 -11 -23 -13 -23 -14 -5 -20 10 -3 69 -10
129 -15 61 -6 135 -15 165 -22 60 -13 146 -47 138 -54 -6 -6 -152 21 -245 46
-92 24 -128 24 -153 -1 -11 -11 -29 -20 -40 -20 -22 0 -27 15 -9 26 17 10 -1
22 -86 54 l-80 30 65 -7 c36 -4 83 -7 105 -6z"/>
</g>
</svg>
