<?xml version="1.0" encoding="utf-8"?>
<!-- Generator: Adobe Illustrator 18.0.0, SVG Export Plug-In . SVG Version: 6.00 Build 0)  -->
<!DOCTYPE svg PUBLIC "-//W3C//DTD SVG 1.1//EN" "http://www.w3.org/Graphics/SVG/1.1/DTD/svg11.dtd">
<svg version="1.1" id="Capa_1" xmlns="http://www.w3.org/2000/svg" xmlns:xlink="http://www.w3.org/1999/xlink" x="0px" y="0px"
	 viewBox="0 0 300 300" enable-background="new 0 0 300 300" xml:space="preserve">
<g>
	<g>
		<defs>
			<path id="SVGID_1_" d="M242.1,163.1c0,50.5-40.9,91.4-91.4,91.4s-91.4-40.9-91.4-91.4c0-2.9,0.1-5.8,0.4-8.7
				c4.4-46.4,43.5-82.7,91-82.7C201.2,71.7,242.1,112.6,242.1,163.1z"/>
		</defs>
		<clipPath id="SVGID_2_">
			<use xlink:href="#SVGID_1_"  overflow="visible"/>
		</clipPath>
		<g clip-path="url(#SVGID_2_)">
			<path d="M150.7,254.9c-50.6,0-91.8-41.2-91.8-91.8c0-2.9,0.1-5.9,0.4-8.7c3.3-34.4,25-63.7,56.6-76.3l1.4,3.5
				C87,93.7,66.2,121.7,63,154.7c-0.3,2.8-0.4,5.6-0.4,8.4c0,48.5,39.5,88,88,88c48.5,0,88-39.5,88-88c0-48.5-39.5-88-88-88
				c-8.8,0-16.2,1-23.9,3.3l-1.1-3.6c8-2.4,15.7-3.4,24.9-3.4c50.6,0,91.8,41.2,91.8,91.8C242.4,213.7,201.3,254.9,150.7,254.9z"/>
		</g>
		<g clip-path="url(#SVGID_2_)">
			<path d="M61.2,156c-1,0-1.9-0.6-1.9-1.6c0-1,0.8-1.8,1.8-1.8c1,0,101.4-3.3,142.6-60.2c0.6-0.8,1.8-1,2.6-0.4
				c0.8,0.6,1,1.6,0.4,2.4C164.4,152.8,62.3,156,61.2,156C61.2,156,61.2,156,61.2,156z"/>
		</g>
		<g clip-path="url(#SVGID_2_)">
			<path d="M144.3,180.3c-0.3,0-0.6-0.1-0.9-0.2c-13.7-7.4-27.5-17.4-41-29.8c-0.8-0.7-0.8-1.9-0.1-2.7c0.7-0.8,1.9-0.8,2.7-0.1
				c13.3,12.1,26.9,22,40.3,29.2c0.9,0.5,1.3,1.6,0.8,2.5C145.6,179.9,145,180.3,144.3,180.3z"/>
		</g>
		<g clip-path="url(#SVGID_2_)">
			<path d="M148.9,162.3c-0.3,0-0.6-0.1-0.9-0.2c-7.8-4.5-15.7-9.8-23.5-15.9c-0.8-0.6-1-1.8-0.3-2.6c0.6-0.8,1.8-1,2.6-0.3
				c7.6,6,15.4,11.2,23,15.6c0.9,0.5,1.2,1.7,0.7,2.6C150.1,161.9,149.5,162.3,148.9,162.3z"/>
		</g>
		<g clip-path="url(#SVGID_2_)">
			<path d="M141.6,199c-0.3,0-0.5-0.1-0.8-0.2c-20.5-9.5-41-24.6-60.9-44.9c-0.7-0.7-0.7-1.9,0-2.7c0.7-0.7,1.9-0.7,2.7,0
				c19.6,20,39.7,34.9,59.8,44.1c0.9,0.4,1.4,1.6,0.9,2.5C143,198.6,142.3,199,141.6,199z"/>
		</g>
		<g clip-path="url(#SVGID_2_)">
			<path d="M139.8,217.4c-0.2,0-0.4,0-0.7-0.1c-55.9-20.9-97.5-80.8-97.9-81.4c-0.6-0.9-0.4-2,0.5-2.6c0.9-0.6,2-0.4,2.6,0.5
				c0.4,0.6,41.3,59.5,96.1,80c1,0.4,1.5,1.4,1.1,2.4C141.3,216.9,140.5,217.4,139.8,217.4z"/>
		</g>
		<g clip-path="url(#SVGID_2_)">
			<path d="M142.3,237.2c-0.2,0-0.3,0-0.5-0.1c-62.1-16-109.7-84.6-110.2-85.3c-0.6-0.9-0.4-2,0.5-2.6c0.9-0.6,2-0.4,2.6,0.5
				c0.5,0.7,47.3,68.2,108,83.8c1,0.3,1.6,1.3,1.4,2.3C143.9,236.7,143.1,237.2,142.3,237.2z"/>
		</g>
		<g clip-path="url(#SVGID_2_)">
			<path d="M152.8,122.2l-1.6-3.4c22.2-10.1,39.3-23.3,50.8-39.1l3,2.2C193.3,98.2,175.7,111.8,152.8,122.2z"/>
		</g>
		<g clip-path="url(#SVGID_2_)">
			<path d="M59.6,143.6l0-3.8c0.4,0,39.2-0.5,79.2-16l1.4,3.5C99.4,143.1,60,143.6,59.6,143.6z"/>
		</g>
		<g clip-path="url(#SVGID_2_)">
			<path d="M146.1,111.8l-1.5-3.4c23.2-10.2,40.9-23.7,52.8-40l3,2.2C188.1,87.4,169.9,101.3,146.1,111.8z"/>
		</g>
		<g clip-path="url(#SVGID_2_)">
			<path d="M54.8,132.3l-0.1-3.8c0.4,0,39.6-1.1,79.1-16l1.3,3.5C95,131.3,55.2,132.3,54.8,132.3z"/>
		</g>
		<g clip-path="url(#SVGID_2_)">
			<path d="M141.3,103.5l-1.5-3.5c24.7-10.4,43.5-24.3,55.9-41.3l3,2.2C186,78.6,166.6,92.9,141.3,103.5z"/>
		</g>
		<g clip-path="url(#SVGID_2_)">
			<path d="M53.2,122.7l-0.1-3.8c0.4,0,38.3-1.2,76.8-15l1.3,3.5C92,121.5,53.6,122.7,53.2,122.7z"/>
		</g>
		<g clip-path="url(#SVGID_2_)">
			<path fill="#010202" d="M135.3,94.1l-1.4-3.5c26.8-10.5,47.1-25,60.2-43.1l3,2.2C183.6,68.3,162.8,83.3,135.3,94.1z"/>
		</g>
		<g clip-path="url(#SVGID_2_)">
			<path d="M51.6,111.5l-0.1-3.8c0.4,0,36-1.1,73.2-13.8l1.2,3.6C88.1,110.4,52,111.5,51.6,111.5z"/>
		</g>
		<g clip-path="url(#SVGID_2_)">
			<path fill="#010202" d="M130.1,84.8l-1.3-3.5c29.4-10.7,51.4-25.8,65.3-45l3,2.2C182.8,58.3,160.2,73.9,130.1,84.8z"/>
		</g>
		<g clip-path="url(#SVGID_2_)">
			<path d="M51.6,100.2l0-3.8c0.3,0,31.7-0.5,67.1-11.7l1.1,3.6C83.8,99.7,51.9,100.2,51.6,100.2z"/>
		</g>
		<g clip-path="url(#SVGID_2_)">
			<path d="M147.6,257.1c-0.8,0-1.5-0.5-1.8-1.3c-14.6-43.2-1.2-91.9,12.5-125.2c0.4-1,1.5-1.4,2.5-1c1,0.4,1.4,1.5,1,2.5
				c-13.5,32.7-26.6,80.5-12.4,122.6c0.3,1-0.2,2.1-1.2,2.4C148,257.1,147.8,257.1,147.6,257.1z"/>
		</g>
		<g clip-path="url(#SVGID_2_)">
			<path d="M160.6,264.1c-0.8,0-1.5-0.5-1.8-1.3c-18-53.4,6.7-115.7,23-148.1c0.5-0.9,1.6-1.3,2.5-0.8c0.9,0.5,1.3,1.6,0.8,2.5
				c-16.1,31.8-40.4,93.1-22.8,145.2c0.3,1-0.2,2.1-1.2,2.4C161,264.1,160.8,264.1,160.6,264.1z"/>
		</g>
		<g clip-path="url(#SVGID_2_)">
			<path d="M174.2,267c-0.8,0-1.5-0.5-1.8-1.3c-26.2-77.6,38-174.5,38.6-175.5c0.6-0.9,1.7-1.1,2.6-0.5c0.9,0.6,1.1,1.7,0.5,2.6
				c-0.6,1-63.8,96.3-38.2,172.2c0.3,1-0.2,2.1-1.2,2.4C174.6,267,174.4,267,174.2,267z"/>
		</g>
		<g clip-path="url(#SVGID_2_)">
			<path d="M184.1,271.9c-0.8,0-1.5-0.5-1.8-1.3C156.1,193,220.3,96.1,221,95.1c0.6-0.9,1.7-1.1,2.6-0.5c0.9,0.6,1.1,1.7,0.5,2.6
				c-0.6,1-63.8,96.3-38.2,172.2c0.3,1-0.2,2.1-1.2,2.4C184.6,271.9,184.3,271.9,184.1,271.9z"/>
		</g>
		<g clip-path="url(#SVGID_2_)">
			<path d="M195.6,277.8c-0.8,0-1.5-0.5-1.8-1.3c-26.2-77.6,38-174.5,38.6-175.5c0.6-0.9,1.7-1.1,2.6-0.5c0.9,0.6,1.1,1.7,0.5,2.6
				c-0.6,1-63.8,96.3-38.2,172.2c0.3,1-0.2,2.1-1.2,2.4C196,277.8,195.8,277.8,195.6,277.8z"/>
		</g>
		<g clip-path="url(#SVGID_2_)">
			<path d="M205.3,279.4c-0.8,0-1.5-0.5-1.8-1.3c-26.2-77.6,38-174.5,38.6-175.5c0.6-0.9,1.7-1.1,2.6-0.5c0.9,0.6,1.1,1.7,0.5,2.6
				c-0.6,1-63.8,96.3-38.2,172.2c0.3,1-0.2,2.1-1.2,2.4C205.7,279.4,205.5,279.4,205.3,279.4z"/>
		</g>
		<g clip-path="url(#SVGID_2_)">
			<path d="M216.5,281c-0.8,0-1.5-0.5-1.8-1.3c-26.2-77.6,38-174.5,38.6-175.5c0.6-0.9,1.7-1.1,2.6-0.5c0.9,0.6,1.1,1.7,0.5,2.6
				c-0.6,1-63.8,96.3-38.2,172.2c0.3,1-0.2,2.1-1.2,2.4C216.9,281,216.7,281,216.5,281z"/>
		</g>
		<g clip-path="url(#SVGID_2_)">
			<path d="M226.1,284.2c-0.8,0-1.5-0.5-1.8-1.3c-26.2-77.6,38-174.5,38.6-175.5c0.6-0.9,1.7-1.1,2.6-0.5c0.9,0.6,1.1,1.7,0.5,2.6
				c-0.6,1-63.8,96.3-38.2,172.2c0.3,1-0.2,2.1-1.2,2.4C226.5,284.2,226.3,284.2,226.1,284.2z"/>
		</g>
	</g>
	<g>
		<path fill="#010202" d="M86.5,19.4c4.5,0,8.9,6.5,8.9,6.5L157.2,131c-2,0.8-3.7,1.1-5.3,1.1c-6.4,0-9.9-5.1-9.9-5.1L91.4,30.7
			l-4.8,3.2c0,0-5.6-13.6-0.8-14.4C86,19.4,86.2,19.4,86.5,19.4 M86.5,16c-0.5,0-0.9-0.2-1.4-0.1c-1.8,0.3-3.3,1.2-4.1,2.8
			c-2.5,4.5,0.6,13.1,2.1,16.6c0.4,1,1.3,1.8,2.4,2.1c0.4,0.1,0.7,0.2,1.1,0.2c0.7,0,1.5-0.2,2.1-0.6l1.3-0.9l48.6,92.6
			c0.1,0.1,0.1,0.2,0.2,0.4c0.2,0.3,4.7,6.8,13,6.8c2.2,0,4.5-0.5,6.8-1.4c1-0.4,1.8-1.2,2.1-2.3c0.3-1,0.2-2.2-0.3-3.1L98.6,24
			c0-0.1-0.1-0.1-0.1-0.2c-0.9-1.4-5.8-8-12-8L86.5,16C86.5,16,86.5,16,86.5,16L86.5,16z"/>
	</g>
	<g>
		<path fill="#010202" d="M217.6,283.9c-3.6,0-6.6-1.1-6.8-1.1c-0.5-0.2-0.9-0.5-1.1-1l-16.9-38.7l3.4-1.5l16.5,37.9
			c1.8,0.5,6.3,1.4,9.5-0.4c1.6-0.9,2.6-2.5,3.2-4.6c-12.9-22.1-20.7-36.6-20.8-36.7l3.3-1.8c0.1,0.1,8.1,14.8,21.1,37.2
			c0.2,0.4,0.3,0.8,0.2,1.3c-0.7,3.7-2.4,6.3-5.1,7.9C222.1,283.6,219.7,283.9,217.6,283.9z"/>
	</g>
</g>
</svg>
