<?xml version="1.0" encoding="utf-8"?>
<!-- Generator: Adobe Illustrator 18.0.0, SVG Export Plug-In . SVG Version: 6.00 Build 0)  -->
<!DOCTYPE svg PUBLIC "-//W3C//DTD SVG 1.1//EN" "http://www.w3.org/Graphics/SVG/1.1/DTD/svg11.dtd">
<svg version="1.1" id="Capa_1" xmlns="http://www.w3.org/2000/svg" xmlns:xlink="http://www.w3.org/1999/xlink" x="0px" y="0px"
	 viewBox="0 0 300 300" enable-background="new 0 0 300 300" xml:space="preserve">
<g>
	<path fill="#010202" d="M231,194H88.2c-0.9,0-1.6-0.7-1.6-1.6c0-0.9,0.7-1.6,1.6-1.6H231c0.9,0,1.6,0.7,1.6,1.6
		C232.6,193.3,231.9,194,231,194z"/>
</g>
<g>
	<path fill="#010202" d="M231,185.7H88.2c-0.9,0-1.6-0.7-1.6-1.6s0.7-1.6,1.6-1.6H231c0.9,0,1.6,0.7,1.6,1.6S231.9,185.7,231,185.7z
		"/>
</g>
<g>
	<path fill="#010202" d="M264.5,159.7c-0.9,0-1.6-0.7-1.6-1.6V59.2H49v69.9c0,0.9-0.7,1.6-1.6,1.6s-1.6-0.7-1.6-1.6V57.6
		c0-0.9,0.7-1.6,1.6-1.6h217.1c0.9,0,1.6,0.7,1.6,1.6v100.5C266.1,159,265.4,159.7,264.5,159.7z"/>
</g>
<g>
	<path fill="#010202" d="M259.5,159.7c-0.9,0-1.6-0.7-1.6-1.6V64.2H55.1v66.2c0,0.9-0.7,1.6-1.6,1.6s-1.6-0.7-1.6-1.6V62.6
		c0-0.9,0.7-1.6,1.6-1.6h206c0.9,0,1.6,0.7,1.6,1.6v95.5C261.1,159,260.4,159.7,259.5,159.7z"/>
</g>
<g>
	<path fill="#010202" d="M179.2,225h-47.7c-0.9,0-1.6-0.7-1.6-1.6v-28.5c0-0.9,0.7-1.6,1.6-1.6h47.7c0.9,0,1.6,0.7,1.6,1.6v28.5
		C180.8,224.3,180.1,225,179.2,225z M133.1,221.7h44.4v-25.3h-44.4V221.7z"/>
</g>
<g>
	<path fill="#010202" d="M205.7,234h-99.5c-0.9,0-1.6-0.7-1.6-1.6v-9.1c0-0.9,0.7-1.6,1.6-1.6h99.5c0.9,0,1.6,0.7,1.6,1.6v9.1
		C207.3,233.3,206.6,234,205.7,234z M107.8,230.8H204V225h-96.2V230.8z"/>
</g>
<g>
	<path fill="#010202" d="M86.2,132.6v106h-71v-106H86.2 M86.2,129.4h-71c-1.8,0-3.3,1.5-3.3,3.3v106c0,1.8,1.5,3.3,3.3,3.3h71
		c1.8,0,3.3-1.5,3.3-3.3v-106C89.5,130.8,88,129.4,86.2,129.4L86.2,129.4z"/>
</g>
<g>
	<path fill="#010202" d="M277.6,159.7v81.1h-44.4v-81.1H277.6 M277.6,156.5h-44.4c-1.8,0-3.3,1.5-3.3,3.3v81.1
		c0,1.8,1.5,3.3,3.3,3.3h44.4c1.8,0,3.3-1.5,3.3-3.3v-81.1C280.9,157.9,279.4,156.5,277.6,156.5L277.6,156.5z"/>
</g>
<g>
	<path fill="#010202" d="M273.7,163.4v59.9h-36.6v-59.9H273.7 M273.7,161.8h-36.6c-0.9,0-1.6,0.7-1.6,1.6v59.9
		c0,0.9,0.7,1.6,1.6,1.6h36.6c0.9,0,1.6-0.7,1.6-1.6v-59.9C275.3,162.5,274.6,161.8,273.7,161.8L273.7,161.8z"/>
</g>
<g>
	<path fill="#010202" d="M50.2,233.2c-2.9,0-5.3-2.4-5.3-5.3c0-2.9,2.4-5.3,5.3-5.3c2.9,0,5.3,2.4,5.3,5.3
		C55.6,230.8,53.2,233.2,50.2,233.2z M50.2,224.2c-2,0-3.7,1.7-3.7,3.7c0,2,1.7,3.7,3.7,3.7c2,0,3.7-1.7,3.7-3.7
		C54,225.8,52.3,224.2,50.2,224.2z"/>
</g>
<g>
	<path fill="#010202" d="M255.8,237.3c-2.5,0-4.5-2-4.5-4.5s2-4.5,4.5-4.5c2.5,0,4.5,2,4.5,4.5S258.3,237.3,255.8,237.3z
		 M255.8,229.9c-1.6,0-2.9,1.3-2.9,2.9c0,1.6,1.3,2.9,2.9,2.9s2.9-1.3,2.9-2.9C258.7,231.2,257.4,229.9,255.8,229.9z"/>
</g>
</svg>
