<?xml version="1.0" encoding="utf-8"?>
<!-- Generator: Adobe Illustrator 18.0.0, SVG Export Plug-In . SVG Version: 6.00 Build 0)  -->
<!DOCTYPE svg PUBLIC "-//W3C//DTD SVG 1.1//EN" "http://www.w3.org/Graphics/SVG/1.1/DTD/svg11.dtd">
<svg version="1.1" id="Capa_1" xmlns="http://www.w3.org/2000/svg" xmlns:xlink="http://www.w3.org/1999/xlink" x="0px" y="0px"
	 viewBox="0 0 300 300" enable-background="new 0 0 300 300" xml:space="preserve">
<g>
	<g>
		<path d="M262.7,261.7H43.6c-3.1,0-5.6-2.5-5.6-5.6V73.2c0-3.1,2.5-5.6,5.6-5.6h219.1c3.1,0,5.6,2.5,5.6,5.6v182.9
			C268.3,259.2,265.8,261.7,262.7,261.7z M43.6,71.2c-1.1,0-2,0.9-2,2v182.9c0,1.1,0.9,2,2,2h219.1c1.1,0,2-0.9,2-2V73.2
			c0-1.1-0.9-2-2-2H43.6z"/>
	</g>
	<g>
		<rect x="39" y="100" width="227" height="4"/>
	</g>
	<g>
		<path d="M228.4,92.5c-3.9,0-7-3.2-7-7c0-3.9,3.1-7,7-7c3.9,0,7,3.2,7,7C235.4,89.3,232.3,92.5,228.4,92.5z M228.4,82.1
			c-1.9,0-3.4,1.5-3.4,3.4s1.5,3.4,3.4,3.4c1.9,0,3.4-1.5,3.4-3.4S230.3,82.1,228.4,82.1z"/>
	</g>
	<g>
		<path d="M211.1,92.5c-3.9,0-7-3.2-7-7c0-3.9,3.1-7,7-7s7,3.2,7,7C218.2,89.3,215,92.5,211.1,92.5z M211.1,82.1
			c-1.9,0-3.4,1.5-3.4,3.4s1.5,3.4,3.4,3.4s3.4-1.5,3.4-3.4S213,82.1,211.1,82.1z"/>
	</g>
	<g>
		<path d="M247,92.5c-3.9,0-7-3.2-7-7c0-3.9,3.1-7,7-7c3.9,0,7,3.2,7,7C254,89.3,250.9,92.5,247,92.5z M247,82.1
			c-1.9,0-3.4,1.5-3.4,3.4s1.5,3.4,3.4,3.4s3.4-1.5,3.4-3.4S248.9,82.1,247,82.1z"/>
	</g>
</g>
<g>
	<g>
		<path d="M148.7,175.1c-3.8,0-7.2-1.9-9.2-5.1l-7.3-12c-1.5-2.4-1.9-5.3-1.2-8.1s2.4-5.1,4.8-6.6c1.7-1,3.6-1.6,5.5-1.6
			c3.8,0,7.2,1.9,9.2,5.1l7.3,12c1.5,2.4,1.9,5.3,1.2,8.1c-0.7,2.8-2.4,5.1-4.8,6.6C152.6,174.6,150.6,175.1,148.7,175.1z
			 M141.4,145.4c-1.3,0-2.6,0.4-3.7,1c-1.6,1-2.8,2.5-3.2,4.4c-0.5,1.8-0.2,3.7,0.8,5.4l7.3,12c1.3,2.1,3.6,3.4,6.1,3.4
			c1.3,0,2.6-0.4,3.7-1c1.6-1,2.8-2.5,3.2-4.4c0.4-1.8,0.2-3.7-0.8-5.4l-7.3-12C146.2,146.6,143.9,145.4,141.4,145.4z"/>
	</g>
	<g>
		<path d="M164.4,187.5c-3.8,0-7.2-1.9-9.2-5.1l-7.3-12c-3.1-5-1.5-11.6,3.6-14.7c1.7-1,3.6-1.6,5.6-1.6c3.8,0,7.2,1.9,9.2,5.1
			l7.3,12c3.1,5,1.5,11.6-3.6,14.7C168.3,187,166.4,187.5,164.4,187.5z M157.1,157.8c-1.3,0-2.6,0.4-3.7,1c-3.3,2-4.4,6.4-2.4,9.8
			l7.3,11.9c1.3,2.1,3.6,3.4,6.1,3.4c1.3,0,2.6-0.4,3.7-1c3.3-2,4.4-6.4,2.4-9.8l-7.3-11.9C161.9,159.1,159.6,157.8,157.1,157.8z"/>
	</g>
</g>
<g>
	<path d="M152.9,210.7c-25.1,0-45.5-20.4-45.5-45.5s20.4-45.5,45.5-45.5s45.5,20.4,45.5,45.5S178,210.7,152.9,210.7z M152.9,123.2
		c-23.1,0-41.9,18.8-41.9,41.9s18.8,41.9,41.9,41.9s41.9-18.8,41.9-41.9S176,123.2,152.9,123.2z"/>
</g>
<g>
	<g>
		<path d="M269.1,29.1c-0.2,0-0.4,0-0.6-0.1c0,0-0.9-0.3-2.5-0.7c-1-0.2-1.5-1.2-1.3-2.2c0.2-1,1.2-1.6,2.2-1.3
			c1.7,0.4,2.7,0.8,2.7,0.8c0.9,0.3,1.5,1.3,1.1,2.3C270.6,28.6,269.9,29.1,269.1,29.1z"/>
	</g>
	<g>
		<path d="M163.3,132.1c0,0-0.1,0-0.1,0c-1-0.1-1.8-0.9-1.7-1.9c0.1-1.8,0.2-3.5,0.3-5.2c0.1-1,0.9-1.7,1.9-1.7
			c1,0.1,1.7,0.9,1.7,1.9c-0.1,1.7-0.2,3.4-0.3,5.2C165,131.3,164.2,132.1,163.3,132.1z M164.6,116.5c-0.1,0-0.1,0-0.2,0
			c-1-0.1-1.7-1-1.6-2c0.2-1.8,0.4-3.5,0.7-5.2c0.1-1,1-1.7,2-1.5c1,0.1,1.7,1.1,1.5,2c-0.2,1.7-0.5,3.4-0.7,5.1
			C166.3,115.8,165.5,116.5,164.6,116.5z M167.1,101.1c-0.1,0-0.2,0-0.4,0c-1-0.2-1.6-1.1-1.4-2.1c0.4-1.8,0.7-3.5,1.1-5.1
			c0.2-1,1.2-1.6,2.2-1.3c1,0.2,1.6,1.2,1.3,2.2c-0.4,1.6-0.7,3.3-1.1,5C168.7,100.5,167.9,101.1,167.1,101.1z M170.9,85.9
			c-0.2,0-0.4,0-0.5-0.1c-1-0.3-1.5-1.3-1.2-2.3c0.5-1.7,1.1-3.4,1.6-5c0.3-0.9,1.4-1.4,2.3-1.1c0.9,0.3,1.4,1.4,1.1,2.3
			c-0.6,1.6-1.1,3.2-1.6,4.9C172.3,85.4,171.6,85.9,170.9,85.9z M176.3,71.3c-0.2,0-0.5-0.1-0.7-0.2c-0.9-0.4-1.3-1.5-0.9-2.4
			c0.7-1.6,1.5-3.2,2.3-4.8c0.5-0.9,1.5-1.2,2.4-0.8c0.9,0.5,1.2,1.5,0.8,2.4c-0.8,1.5-1.5,3-2.2,4.6
			C177.7,70.9,177,71.3,176.3,71.3z M183.9,57.7c-0.3,0-0.7-0.1-1-0.3c-0.8-0.6-1.1-1.7-0.5-2.5c1-1.5,2-2.9,3.1-4.3
			c0.6-0.8,1.7-0.9,2.5-0.3c0.8,0.6,0.9,1.7,0.3,2.5c-1,1.3-2,2.7-3,4.1C185,57.4,184.4,57.7,183.9,57.7z M193.8,45.6
			c-0.5,0-0.9-0.2-1.3-0.5c-0.7-0.7-0.7-1.9,0-2.5c1.3-1.3,2.6-2.5,3.9-3.6c0.8-0.6,1.9-0.5,2.5,0.2c0.6,0.8,0.6,1.9-0.2,2.5
			c-1.3,1.1-2.5,2.2-3.7,3.4C194.7,45.5,194.2,45.6,193.8,45.6z M206,36c-0.6,0-1.2-0.3-1.5-0.9c-0.5-0.8-0.2-2,0.6-2.5
			c1.5-0.9,3.1-1.8,4.7-2.6c0.9-0.5,2-0.1,2.4,0.8c0.5,0.9,0.1,2-0.8,2.4c-1.5,0.8-3,1.6-4.4,2.5C206.7,35.9,206.4,36,206,36z
			 M220.2,29.5c-0.8,0-1.5-0.5-1.7-1.2c-0.3-0.9,0.2-2,1.2-2.3c1.7-0.5,3.4-1,5.1-1.5c1-0.2,1.9,0.3,2.2,1.3c0.2,1-0.3,1.9-1.3,2.2
			c-1.6,0.4-3.3,0.9-4.9,1.4C220.6,29.5,220.4,29.5,220.2,29.5z M256.3,26.4c-0.1,0-0.1,0-0.2,0c-1.7-0.2-3.4-0.4-5.1-0.5
			c-1-0.1-1.7-0.9-1.7-1.9c0.1-1,0.9-1.8,1.9-1.7c1.7,0.1,3.5,0.3,5.3,0.5c1,0.1,1.7,1,1.6,2C257.9,25.8,257.2,26.4,256.3,26.4z
			 M235.5,26.2c-0.9,0-1.7-0.7-1.8-1.6c-0.1-1,0.6-1.9,1.6-2c1.7-0.2,3.5-0.3,5.3-0.4c1-0.1,1.8,0.7,1.9,1.7c0,1-0.7,1.8-1.7,1.9
			c-1.7,0.1-3.4,0.2-5.1,0.4C235.6,26.2,235.5,26.2,235.5,26.2z"/>
	</g>
	<g>
		<path d="M162.8,145C162.8,145,162.8,145,162.8,145c-1,0-1.8-0.6-1.8-1.6c0-0.9,0-1.7,0-2.6c0-1,0.9-1.7,1.8-1.7
			c1,0,1.8,0.9,1.8,1.9c0,0.9,0,1.6,0,2.5C164.6,144.4,163.8,145,162.8,145z"/>
	</g>
</g>
<g>
	<g>
		<path d="M22.2,54.3c0,0-0.1,0-0.1,0c-1-0.1-1.7-0.9-1.7-1.9c0,0,0.1-1.1,0.4-2.9c0.2-1,1.1-1.6,2.1-1.5c1,0.2,1.6,1.1,1.5,2.1
			c-0.3,1.5-0.3,2.5-0.3,2.5C23.9,53.6,23.1,54.3,22.2,54.3z"/>
	</g>
	<g>
		<path d="M136.3,122c-0.8,0-1.5-0.5-1.7-1.3c-0.6-1.8-1.1-3.5-1.7-5.3c-0.3-0.9,0.2-2,1.2-2.3c1-0.3,2,0.2,2.3,1.2
			c0.6,1.7,1.1,3.5,1.7,5.3c0.3,1-0.2,2-1.2,2.3C136.7,122,136.5,122,136.3,122z M131.1,106.2c-0.7,0-1.4-0.5-1.7-1.2
			c-0.6-1.8-1.2-3.5-1.9-5.2c-0.3-0.9,0.1-2,1.1-2.3c0.9-0.3,2,0.1,2.3,1.1c0.6,1.7,1.3,3.5,1.9,5.2c0.3,0.9-0.2,2-1.1,2.3
			C131.5,106.2,131.3,106.2,131.1,106.2z M125.2,90.7c-0.7,0-1.4-0.4-1.7-1.1c-0.7-1.7-1.4-3.4-2.1-5.1c-0.4-0.9,0-2,0.9-2.4
			c0.9-0.4,2,0,2.4,0.9c0.7,1.7,1.4,3.4,2.2,5.1c0.4,0.9-0.1,2-1,2.4C125.6,90.6,125.4,90.7,125.2,90.7z M118.4,75.5
			c-0.7,0-1.3-0.4-1.6-1c-0.8-1.7-1.7-3.3-2.5-4.9c-0.5-0.9-0.1-2,0.8-2.4c0.9-0.5,2-0.1,2.4,0.8c0.8,1.6,1.7,3.3,2.5,5
			c0.4,0.9,0.1,2-0.8,2.4C118.9,75.4,118.7,75.5,118.4,75.5z M110.5,60.9c-0.6,0-1.2-0.3-1.5-0.9c-1-1.6-2-3.1-2.9-4.6
			c-0.6-0.8-0.3-1.9,0.5-2.5c0.8-0.5,1.9-0.3,2.5,0.5c1,1.5,2,3.1,3,4.7c0.5,0.9,0.2,2-0.6,2.5C111.1,60.8,110.8,60.9,110.5,60.9z
			 M100.9,47.3c-0.5,0-1-0.2-1.4-0.7c-1.2-1.4-2.4-2.8-3.6-4.1c-0.7-0.7-0.6-1.9,0.1-2.5c0.7-0.7,1.9-0.6,2.5,0.1
			c1.2,1.3,2.5,2.8,3.7,4.3c0.6,0.8,0.5,1.9-0.3,2.5C101.7,47.1,101.3,47.3,100.9,47.3z M25.8,41.1c-0.3,0-0.5-0.1-0.8-0.2
			c-0.9-0.4-1.3-1.5-0.9-2.4c0.9-1.8,1.8-3.5,2.9-5.1c0.6-0.8,1.7-1,2.5-0.4c0.8,0.6,1,1.7,0.4,2.5c-1,1.4-1.8,2.9-2.6,4.5
			C27.2,40.7,26.5,41.1,25.8,41.1z M89.2,35.6c-0.4,0-0.8-0.1-1.1-0.4c-1.4-1.1-2.9-2.2-4.4-3.1c-0.8-0.5-1.1-1.6-0.6-2.5
			c0.5-0.8,1.6-1.1,2.5-0.6c1.6,1,3.1,2.1,4.7,3.3c0.8,0.6,0.9,1.7,0.3,2.5C90.2,35.4,89.7,35.6,89.2,35.6z M36.7,28.8
			c-0.6,0-1.2-0.3-1.6-0.9c-0.5-0.9-0.2-2,0.7-2.5c1.7-1,3.6-1.7,5.5-2.3c0.9-0.3,2,0.3,2.2,1.2c0.3,1-0.3,2-1.2,2.2
			c-1.7,0.5-3.3,1.1-4.7,2C37.3,28.7,37,28.8,36.7,28.8z M74.7,27.6c-0.2,0-0.4,0-0.6-0.1c-1.7-0.6-3.4-1-5.1-1.4
			c-1-0.2-1.6-1.2-1.4-2.1c0.2-1,1.2-1.6,2.1-1.4c1.9,0.4,3.7,0.9,5.6,1.5c0.9,0.3,1.4,1.3,1.1,2.3C76.1,27.1,75.4,27.6,74.7,27.6z
			 M52.8,25.2c-0.9,0-1.7-0.7-1.8-1.7c-0.1-1,0.7-1.9,1.7-1.9c2.1-0.1,3.9-0.1,5.6-0.2c1,0,1.8,0.8,1.8,1.8c0,1-0.8,1.8-1.8,1.8
			c-1.6,0-3.4,0.1-5.4,0.2C52.9,25.2,52.8,25.2,52.8,25.2z"/>
	</g>
	<g>
		<path d="M140.3,135.4c-0.8,0-1.5-0.5-1.7-1.3l-0.7-2.6c-0.3-1,0.3-2,1.2-2.2c1-0.3,2,0.3,2.2,1.2l0.7,2.6c0.3,1-0.3,2-1.2,2.2
			C140.6,135.4,140.4,135.4,140.3,135.4z"/>
	</g>
</g>
<g>
	<g>
		<path d="M125,166.5c-0.5,0-1.1-0.2-1.4-0.7c0,0-0.6-0.8-1.6-2.1c-0.6-0.8-0.5-1.9,0.3-2.5c0.8-0.6,1.9-0.5,2.5,0.3
			c1.1,1.4,1.7,2.2,1.7,2.2c0.6,0.8,0.4,1.9-0.3,2.5C125.7,166.3,125.3,166.5,125,166.5z"/>
	</g>
	<g>
		<path d="M116.2,156c-0.5,0-1-0.2-1.3-0.6c-1.1-1.3-2.4-2.6-3.7-4c-0.7-0.7-0.6-1.9,0.1-2.5c0.7-0.7,1.9-0.6,2.5,0.1
			c1.3,1.4,2.6,2.8,3.7,4.1c0.7,0.7,0.6,1.9-0.1,2.5C117,155.8,116.6,156,116.2,156z M104.8,144.1c-0.5,0-0.9-0.2-1.3-0.5
			c-1.3-1.2-2.6-2.5-4-3.7c-0.7-0.7-0.8-1.8-0.1-2.5c0.7-0.7,1.8-0.8,2.5-0.1c1.4,1.3,2.7,2.5,4,3.8c0.7,0.7,0.7,1.8,0,2.5
			C105.7,143.9,105.3,144.1,104.8,144.1z M17.8,136.5c-0.2,0-0.4,0-0.6-0.1c-0.9-0.4-1.4-1.4-1-2.3c0.7-1.8,1.5-3.6,2.4-5.2
			c0.5-0.9,1.6-1.2,2.5-0.7c0.9,0.5,1.2,1.6,0.7,2.5c-0.8,1.5-1.6,3-2.2,4.7C19.2,136,18.5,136.5,17.8,136.5z M92.5,133.2
			c-0.4,0-0.8-0.1-1.1-0.4c-1.4-1.1-2.9-2.2-4.3-3.3c-0.8-0.6-1-1.7-0.4-2.5c0.6-0.8,1.7-1,2.5-0.4c1.5,1.1,3,2.2,4.4,3.4
			c0.8,0.6,0.9,1.8,0.3,2.5C93.5,133,93,133.2,92.5,133.2z M78.9,123.9c-0.3,0-0.6-0.1-0.9-0.2c-1.6-0.9-3.2-1.7-4.7-2.5
			c-0.9-0.4-1.3-1.5-0.9-2.4c0.4-0.9,1.5-1.3,2.4-0.9c1.6,0.8,3.3,1.7,5,2.6c0.9,0.5,1.2,1.6,0.7,2.5
			C80.1,123.6,79.5,123.9,78.9,123.9z M27.1,123.1c-0.5,0-1-0.2-1.4-0.7c-0.6-0.8-0.5-1.9,0.2-2.5c1.5-1.2,3.1-2.3,4.8-3.3
			c0.9-0.5,2-0.2,2.4,0.7c0.5,0.9,0.2,2-0.7,2.4c-1.5,0.8-2.9,1.8-4.3,2.9C27.9,123,27.5,123.1,27.1,123.1z M63.8,117.6
			c-0.1,0-0.3,0-0.4,0c-0.3-0.1-0.6-0.1-1-0.2c-1.4-0.3-2.9-0.6-4.3-0.8c-1-0.1-1.7-1.1-1.5-2c0.1-1,1.1-1.7,2-1.5
			c1.5,0.2,3,0.5,4.5,0.8c0.3,0.1,0.7,0.2,1,0.2c1,0.2,1.6,1.2,1.3,2.2C65.3,117.1,64.6,117.6,63.8,117.6z M42,116.5
			c-0.9,0-1.6-0.6-1.8-1.5c-0.2-1,0.5-1.9,1.5-2.1c1.8-0.3,3.7-0.5,5.7-0.6c1-0.1,1.8,0.7,1.9,1.7c0,1-0.7,1.8-1.7,1.9
			c-1.8,0.1-3.5,0.3-5.2,0.6C42.2,116.5,42.1,116.5,42,116.5z"/>
	</g>
	<g>
		<path d="M15,149.8c0,0-0.1,0-0.1,0c-1-0.1-1.7-0.9-1.7-1.9c0.1-0.9,0.2-1.9,0.3-2.8c0.1-1,1-1.7,2-1.6c1,0.1,1.7,1,1.6,2
			c-0.1,0.9-0.2,1.7-0.3,2.6C16.7,149.1,15.9,149.8,15,149.8z"/>
	</g>
</g>
<g>
	<g>
		<path d="M177.2,159.7c-0.4,0-0.8-0.1-1.2-0.4c-0.7-0.7-0.8-1.8-0.2-2.5c0,0,0.6-0.7,1.9-2c0.7-0.7,1.8-0.8,2.5-0.1
			c0.7,0.7,0.8,1.8,0.1,2.5c-1.1,1.2-1.8,1.9-1.8,2C178.2,159.5,177.7,159.7,177.2,159.7z"/>
	</g>
	<g>
		<path d="M187,149.8c-0.5,0-1-0.2-1.3-0.6c-0.7-0.7-0.7-1.9,0.1-2.5c1.3-1.2,2.7-2.5,4.2-3.9c0.7-0.7,1.9-0.6,2.5,0.1
			c0.7,0.7,0.6,1.9-0.1,2.5c-1.5,1.3-2.8,2.6-4.1,3.8C187.9,149.6,187.4,149.8,187,149.8z M199.6,138.6c-0.5,0-1-0.2-1.4-0.7
			c-0.6-0.8-0.5-1.9,0.3-2.5c1.4-1.2,2.9-2.3,4.5-3.5c0.8-0.6,1.9-0.5,2.5,0.3s0.5,1.9-0.3,2.5c-1.5,1.2-3,2.3-4.4,3.4
			C200.4,138.5,200,138.6,199.6,138.6z M213.2,128.6c-0.6,0-1.2-0.3-1.5-0.8c-0.6-0.8-0.3-1.9,0.5-2.5c1.6-1,3.2-2.1,4.8-3.1
			c0.9-0.5,2-0.3,2.5,0.6c0.5,0.8,0.3,2-0.6,2.5c-1.6,1-3.1,2-4.7,3C213.9,128.5,213.5,128.6,213.2,128.6z M227.8,120.2
			c-0.7,0-1.3-0.4-1.6-1c-0.4-0.9-0.1-2,0.8-2.4c1.7-0.9,3.5-1.7,5.2-2.4c0.9-0.4,2,0,2.4,1c0.4,0.9,0,2-1,2.4
			c-1.6,0.7-3.3,1.5-5,2.3C228.3,120.1,228,120.2,227.8,120.2z M281.3,119c-0.3,0-0.7-0.1-1-0.3c-1.5-1-3.1-1.9-4.7-2.6
			c-0.9-0.4-1.3-1.5-0.8-2.4c0.4-0.9,1.5-1.3,2.4-0.8c1.7,0.8,3.5,1.8,5.1,2.9c0.8,0.5,1.1,1.7,0.5,2.5
			C282.4,118.7,281.9,119,281.3,119z M243.5,114.2c-0.8,0-1.5-0.5-1.7-1.3c-0.3-1,0.3-1.9,1.3-2.2c1.9-0.5,3.8-0.9,5.6-1.2
			c1-0.2,1.9,0.5,2.1,1.5c0.2,1-0.5,1.9-1.5,2.1c-1.7,0.3-3.5,0.7-5.3,1.2C243.8,114.1,243.6,114.2,243.5,114.2z M265.7,112.8
			c-0.1,0-0.2,0-0.3,0c-1.7-0.3-3.5-0.5-5.4-0.6c-1,0-1.8-0.9-1.7-1.9c0-1,0.9-1.7,1.9-1.7c2,0.1,3.9,0.3,5.8,0.6
			c1,0.2,1.6,1.1,1.5,2.1C267.4,112.2,266.6,112.8,265.7,112.8z"/>
	</g>
	<g>
		<path d="M291.7,128.2c-0.5,0-1-0.2-1.4-0.6c-0.6-0.7-1.2-1.3-1.8-1.9c-0.7-0.7-0.7-1.9,0.1-2.5c0.7-0.7,1.9-0.7,2.5,0.1
			c0.6,0.7,1.3,1.3,1.9,2.1c0.7,0.7,0.6,1.9-0.2,2.5C292.5,128.1,292.1,128.2,291.7,128.2z"/>
	</g>
</g>
<g>
	<g>
		<path d="M15.9,266.1c-0.6,0-1.2-0.3-1.5-0.8c-0.1-0.1-0.7-1-1.3-2.7c-0.4-0.9,0.1-2,1-2.3c0.9-0.4,2,0.1,2.4,1
			c0.6,1.4,1,2.1,1,2.1c0.5,0.8,0.3,2-0.6,2.5C16.6,266,16.2,266.1,15.9,266.1z"/>
	</g>
	<g>
		<path d="M12.8,253C12.8,253,12.7,253,12.8,253c-1,0-1.8-0.9-1.8-1.9c0-1.9,0.3-3.9,0.7-5.8c0.2-1,1.2-1.6,2.1-1.4
			c1,0.2,1.6,1.2,1.4,2.1c-0.4,1.7-0.6,3.5-0.6,5.2C14.5,252.2,13.7,253,12.8,253z M17.4,237.2c-0.3,0-0.6-0.1-0.9-0.2
			c-0.9-0.5-1.2-1.6-0.7-2.5c0.9-1.6,2-3.2,3.2-4.8c0.6-0.8,1.7-0.9,2.5-0.3c0.8,0.6,0.9,1.7,0.3,2.5c-1.1,1.4-2.1,2.9-2.9,4.4
			C18.6,236.9,18,237.2,17.4,237.2z M27.9,224.6c-0.5,0-1-0.2-1.3-0.6c-0.7-0.7-0.6-1.9,0.1-2.5c1.3-1.2,2.8-2.4,4.3-3.6
			c0.8-0.6,1.9-0.5,2.5,0.3c0.6,0.8,0.5,1.9-0.3,2.5c-1.5,1.1-2.8,2.3-4.1,3.5C28.8,224.4,28.4,224.6,27.9,224.6z M41.2,214.8
			c-0.6,0-1.2-0.3-1.5-0.9c-0.5-0.8-0.3-2,0.6-2.5c1.6-1,3.2-1.9,4.8-2.8c0.9-0.5,2-0.2,2.5,0.7c0.5,0.9,0.2,2-0.7,2.5
			c-1.6,0.9-3.2,1.8-4.7,2.8C41.9,214.7,41.5,214.8,41.2,214.8z M55.8,206.9c-0.7,0-1.3-0.4-1.6-1c-0.4-0.9,0-2,0.9-2.4
			c1.6-0.8,3.3-1.5,5.1-2.3c0.9-0.4,2,0,2.4,0.9c0.4,0.9,0,2-0.9,2.4c-1.7,0.7-3.4,1.5-5,2.3C56.3,206.9,56,206.9,55.8,206.9z
			 M71,200.5c-0.7,0-1.4-0.4-1.7-1.2c-0.4-0.9,0.1-2,1-2.3c1.7-0.6,3.4-1.3,5.2-1.9c0.9-0.3,2,0.2,2.3,1.1c0.3,0.9-0.2,2-1.1,2.3
			c-1.8,0.6-3.5,1.3-5.1,1.9C71.4,200.5,71.2,200.5,71,200.5z M86.6,195.1c-0.8,0-1.5-0.5-1.7-1.3c-0.3-0.9,0.2-2,1.2-2.3
			c1.7-0.5,3.5-1.1,5.3-1.6c0.9-0.3,2,0.3,2.2,1.2c0.3,1-0.3,2-1.2,2.2c-1.8,0.5-3.5,1.1-5.2,1.6C87,195.1,86.8,195.1,86.6,195.1z
			 M102.5,190.5c-0.8,0-1.5-0.5-1.7-1.3c-0.3-1,0.3-1.9,1.3-2.2c1.8-0.5,3.5-0.9,5.4-1.4c1-0.2,1.9,0.3,2.2,1.3
			c0.2,1-0.3,1.9-1.3,2.2c-1.8,0.5-3.6,0.9-5.3,1.4C102.8,190.5,102.7,190.5,102.5,190.5z"/>
	</g>
	<g>
		<path d="M118.7,186.5c-0.8,0-1.6-0.6-1.8-1.4c-0.2-1,0.4-1.9,1.4-2.2l2.6-0.6c1-0.2,1.9,0.4,2.2,1.4c0.2,1-0.4,1.9-1.4,2.2
			l-2.6,0.6C119,186.5,118.8,186.5,118.7,186.5z"/>
	</g>
</g>
<g>
	<g>
		<path d="M145.9,198.9c-0.4,0-0.7-0.1-1.1-0.3c-0.8-0.6-1-1.7-0.4-2.5c1-1.4,1.6-2.2,1.6-2.2c0.6-0.8,1.7-1,2.5-0.4
			c0.8,0.6,1,1.7,0.4,2.5c0,0-0.6,0.8-1.6,2.1C147,198.6,146.5,198.9,145.9,198.9z"/>
	</g>
	<g>
		<path d="M108.9,273.9c-0.1,0-0.2,0-0.3,0c-1-0.2-1.6-1.1-1.4-2.1c0.3-1.8,0.8-3.7,1.2-5.6c0.2-1,1.2-1.6,2.2-1.3
			c1,0.2,1.5,1.2,1.3,2.2c-0.5,1.8-0.9,3.6-1.2,5.4C110.5,273.3,109.8,273.9,108.9,273.9z M113.5,257.7c-0.2,0-0.4,0-0.6-0.1
			c-0.9-0.3-1.4-1.4-1.1-2.3c0.6-1.8,1.3-3.5,2-5.3c0.4-0.9,1.4-1.4,2.3-1c0.9,0.4,1.4,1.4,1,2.3c-0.7,1.7-1.4,3.5-2,5.2
			C114.9,257.2,114.2,257.7,113.5,257.7z M120,242.2c-0.3,0-0.5-0.1-0.8-0.2c-0.9-0.4-1.3-1.5-0.9-2.4c0.8-1.7,1.6-3.4,2.5-5.1
			c0.5-0.9,1.5-1.2,2.4-0.8c0.9,0.5,1.2,1.5,0.8,2.4c-0.8,1.6-1.7,3.3-2.5,5C121.3,241.8,120.7,242.2,120,242.2z M127.8,227.3
			c-0.3,0-0.6-0.1-0.9-0.2c-0.9-0.5-1.2-1.6-0.7-2.5c0.9-1.7,1.9-3.3,2.8-4.9c0.5-0.9,1.6-1.1,2.5-0.6c0.9,0.5,1.1,1.6,0.6,2.5
			c-0.9,1.6-1.9,3.2-2.8,4.8C129,226.9,128.4,227.3,127.8,227.3z M136.5,212.8c-0.3,0-0.7-0.1-1-0.3c-0.8-0.5-1.1-1.6-0.6-2.5
			c1.1-1.7,2.1-3.3,3.1-4.7c0.6-0.8,1.7-1.1,2.5-0.5c0.8,0.6,1.1,1.7,0.5,2.5c-1,1.5-2,3-3,4.7C137.6,212.5,137.1,212.8,136.5,212.8
			z"/>
	</g>
	<g>
		<path d="M107.8,288c-1,0-1.8-0.9-1.8-1.8c0-0.9-0.1-1.6-0.1-2.6c0-1,0.8-1.6,1.8-1.6c0,0,0,0,0,0c1,0,1.8,0.5,1.8,1.5
			c0,0.9,0,1.7,0.1,2.6C109.7,287.1,108.9,288,107.8,288C107.9,288,107.9,288,107.8,288z"/>
	</g>
</g>
<g>
	<path stroke="#FFFFFF" stroke-width="2" stroke-linecap="round" stroke-linejoin="round" stroke-miterlimit="10" d="M181.7,183.2"
		/>
</g>
<g>
	<g>
		<path d="M184.4,185.3c-0.1,0-0.1,0-0.2,0c-1.7-0.2-2.6-0.3-2.6-0.3c-1-0.1-1.7-0.9-1.7-1.9c0.1-1,0.9-1.8,1.9-1.7
			c0,0,1,0.1,2.8,0.3c1,0.1,1.7,1,1.6,2C186.1,184.6,185.3,185.3,184.4,185.3z"/>
	</g>
	<g>
		<path d="M290.2,247.1c-0.7,0-1.4-0.4-1.7-1.1c-0.7-1.6-1.4-3.2-2.2-4.7c-0.5-0.9-0.1-2,0.8-2.4c0.9-0.5,2-0.1,2.4,0.8
			c0.8,1.6,1.6,3.3,2.4,4.9c0.4,0.9,0,2-0.9,2.4C290.6,247.1,290.4,247.1,290.2,247.1z M282.3,233.2c-0.6,0-1.1-0.3-1.5-0.8
			c-1-1.4-2.1-2.8-3.2-4.1c-0.6-0.8-0.5-1.9,0.2-2.5c0.8-0.6,1.9-0.5,2.5,0.2c1.2,1.4,2.3,2.9,3.3,4.3c0.6,0.8,0.4,1.9-0.4,2.5
			C283,233.1,282.6,233.2,282.3,233.2z M271.7,221.2c-0.4,0-0.9-0.2-1.2-0.5c-1.2-1.2-2.5-2.3-3.9-3.5c-0.8-0.6-0.9-1.8-0.2-2.5
			c0.6-0.8,1.8-0.9,2.5-0.2c1.4,1.2,2.8,2.4,4,3.6c0.7,0.7,0.8,1.8,0.1,2.5C272.7,221.1,272.2,221.2,271.7,221.2z M259.3,211.2
			c-0.4,0-0.7-0.1-1-0.3c-1.4-1-2.9-1.9-4.4-2.9c-0.8-0.5-1.1-1.6-0.6-2.5c0.5-0.8,1.6-1.1,2.5-0.6c1.5,1,3.1,2,4.5,3
			c0.8,0.6,1,1.7,0.5,2.5C260.4,211,259.9,211.2,259.3,211.2z M245.6,203.1c-0.3,0-0.6-0.1-0.8-0.2c-1.6-0.8-3.2-1.6-4.7-2.3
			c-0.9-0.4-1.3-1.5-0.9-2.4c0.4-0.9,1.5-1.3,2.4-0.9c1.6,0.8,3.2,1.5,4.9,2.4c0.9,0.5,1.2,1.5,0.8,2.4
			C246.8,202.8,246.2,203.1,245.6,203.1z M230.9,196.6c-0.2,0-0.4,0-0.6-0.1c-1.7-0.6-3.3-1.2-5-1.8c-0.9-0.3-1.4-1.4-1.1-2.3
			c0.3-0.9,1.4-1.4,2.3-1.1c1.7,0.6,3.4,1.2,5.1,1.9c0.9,0.4,1.4,1.4,1,2.3C232.3,196.2,231.7,196.6,230.9,196.6z M215.8,191.6
			c-0.2,0-0.3,0-0.5-0.1c-1.7-0.5-3.4-1-5.1-1.4c-1-0.2-1.5-1.2-1.3-2.2c0.2-1,1.2-1.5,2.2-1.3c1.7,0.4,3.4,0.9,5.2,1.4
			c1,0.3,1.5,1.3,1.2,2.2C217.3,191.1,216.5,191.6,215.8,191.6z M200.2,187.8c-0.1,0-0.2,0-0.4,0c-1.8-0.4-3.6-0.7-5.2-1
			c-1-0.2-1.6-1.1-1.5-2.1c0.2-1,1.1-1.6,2.1-1.5c1.6,0.3,3.4,0.6,5.3,1c1,0.2,1.6,1.1,1.4,2.1C201.8,187.2,201.1,187.8,200.2,187.8
			z"/>
	</g>
	<g>
		<path d="M294.4,259.8c-0.8,0-1.6-0.6-1.8-1.4c-0.2-0.9-0.4-1.7-0.7-2.6c-0.3-1,0.3-2,1.3-2.2c1-0.3,2,0.3,2.2,1.3
			c0.2,0.9,0.5,1.8,0.7,2.7c0.2,1-0.4,1.9-1.3,2.2C294.7,259.8,294.5,259.8,294.4,259.8z"/>
	</g>
</g>
</svg>
