<?xml version="1.0" encoding="utf-8"?>
<!-- Generator: Adobe Illustrator 18.0.0, SVG Export Plug-In . SVG Version: 6.00 Build 0)  -->
<!DOCTYPE svg PUBLIC "-//W3C//DTD SVG 1.1//EN" "http://www.w3.org/Graphics/SVG/1.1/DTD/svg11.dtd">
<svg version="1.1" id="Capa_1" xmlns="http://www.w3.org/2000/svg" xmlns:xlink="http://www.w3.org/1999/xlink" x="0px" y="0px"
	 viewBox="0 0 50 50" enable-background="new 0 0 50 50" xml:space="preserve">
<g>
	<g>
		<path fill-rule="evenodd" clip-rule="evenodd" fill="#2A2A25" d="M45.4,18.1C42.5,9.4,34.3,3.5,25,3.5c-9.3,0-17.5,5.9-20.4,14.6
			c-2.9,8.7,0.3,18.3,7.8,23.6c7.5,5.4,17.7,5.4,25.2,0C45.1,36.4,48.3,26.8,45.4,18.1z M36.5,40.2c-6.8,4.9-16.1,4.9-22.9,0
			c-6.8-4.9-9.7-13.6-7.1-21.5C9,10.8,16.5,5.4,25,5.4c8.5,0,16,5.4,18.6,13.3C46.2,26.7,43.3,35.3,36.5,40.2z M27.1,15.5
			c-0.9,0-1.8,0.2-2.5,0.8c-0.9,0.6-1.3,1.5-1.5,2.5C23,19.1,23,19.6,23,20c0,0.7,0,1.3,0,2v0.3h-2.9v3.3H23V34h3.5v-8.4h2.9
			c0.1-1.1,0.3-2.2,0.4-3.3c-0.2,0-0.4,0-0.6,0c-0.8,0-2.7,0-2.7,0s0-1.7,0-2.4c0-1,0.6-1.3,1.4-1.3c0.6,0,1.2,0,1.7,0h0.2v-3
			c-0.3,0-0.6-0.1-1-0.1C28.3,15.5,27.7,15.5,27.1,15.5z"/>
	</g>
</g>
</svg>
