<?xml version="1.0" encoding="utf-8"?>
<!-- Generator: Adobe Illustrator 18.0.0, SVG Export Plug-In . SVG Version: 6.00 Build 0)  -->
<!DOCTYPE svg PUBLIC "-//W3C//DTD SVG 1.1//EN" "http://www.w3.org/Graphics/SVG/1.1/DTD/svg11.dtd">
<svg version="1.1" id="Capa_1" xmlns="http://www.w3.org/2000/svg" xmlns:xlink="http://www.w3.org/1999/xlink" x="0px" y="0px"
	 viewBox="0 0 167.7 166" enable-background="new 0 0 167.7 166" xml:space="preserve">
<g>
	
		<path fill="none" stroke="#2A2A25" stroke-width="7.4183" stroke-linecap="round" stroke-linejoin="round" stroke-miterlimit="10" d="
		M-648-228.2c-36.2,0-65.6,29.4-65.6,65.6c0,27.4,16.9,50.9,40.8,60.7v34.5c0,13.5,10.9,24.4,24.3,24.4s24.3-10.9,24.3-24.4h0.8
		v-34.5c24-9.8,40.9-33.3,40.9-60.7C-582.5-198.9-611.8-228.2-648-228.2z"/>
	
		<line fill="none" stroke="#2A2A25" stroke-width="7.4183" stroke-linecap="round" stroke-linejoin="round" stroke-miterlimit="10" x1="-672.8" y1="-67.4" x2="-623.3" y2="-67.4"/>
	
		<line fill="none" stroke="#2A2A25" stroke-width="7.4183" stroke-linecap="round" stroke-linejoin="round" stroke-miterlimit="10" x1="-672.8" y1="-89" x2="-624.9" y2="-89"/>
</g>
<g>
	
		<path fill="none" stroke="#2A2A25" stroke-width="7.4183" stroke-linecap="round" stroke-linejoin="round" stroke-miterlimit="10" d="
		M-416.4-142.6c8-14.9,0.2-23.3-3.4-27.5c4.2-19.1-5.9-23.3-15.7-26.9c-0.4,0-0.7-0.1-1.1-0.1l-0.8-0.8c3.6-9.2,1.6-13.9-1.7-17.8
		c-2.8-2.8-5.6-4-8.2-4.2l0-0.2c-27.1-21.8-34.8-4-34.8-4h-1.8c0,0-7.8-17.8-34.8,4l0,0.2c-2.6,0.2-5.4,1.4-8.2,4.2
		c-3.3,3.9-5.2,8.6-1.7,17.8c0,0-1,0.4-2,0.8c-9.8,3.6-19.9,7.8-15.7,26.9c-3.6,4.2-11.3,12.6-3.4,27.5c0,0-8,12.1-1.7,22.3
		c6.3,10.2,9.4,9.3,9.4,9.3s-5,17.4,16.2,25.8c8.4,9.4,13,14.1,25.7,12c9.2-4,16-8.1,17-18.4c0.9,10.4,7.7,14.4,17,18.4
		c12.7,2.1,17.3-2.5,25.7-12c21.2-8.4,16.2-25.8,16.2-25.8s3.2,0.9,9.4-9.3C-408.4-130.6-416.4-142.6-416.4-142.6z"/>
	
		<line fill="none" stroke="#2A2A25" stroke-width="7.4183" stroke-linecap="round" stroke-linejoin="round" stroke-miterlimit="10" x1="-482.1" y1="-224.1" x2="-483" y2="-91.8"/>
</g>
<g>
	
		<path fill="none" stroke="#2A2A25" stroke-width="7.4183" stroke-linecap="round" stroke-linejoin="round" stroke-miterlimit="10" d="
		M-359.7-202.4c0,0,49.3-52.2,104.4-3.6"/>
	
		<path fill="none" stroke="#2A2A25" stroke-width="7.4183" stroke-linecap="round" stroke-linejoin="round" stroke-miterlimit="10" d="
		M-364-172.3c0,0,26-42.9,62.3-38.6c36.3,4.3,49.9,32.2,49.9,32.2"/>
	
		<path fill="none" stroke="#2A2A25" stroke-width="7.4183" stroke-linecap="round" stroke-linejoin="round" stroke-miterlimit="10" d="
		M-364-153.8c0,0,9.4,2,23.8-25.7c0,0,23.3-34.3,64.8-6.4c11.4,10.6,21.4,24.3,12.9,50.8c-1.4,23.6,7.1,30.7,7.1,30.7"/>
	
		<path fill="none" stroke="#2A2A25" stroke-width="7.4183" stroke-linecap="round" stroke-linejoin="round" stroke-miterlimit="10" d="
		M-251.8-167.3c0,0,10.7,7.3,4.3,47.2"/>
	
		<path fill="none" stroke="#2A2A25" stroke-width="7.4183" stroke-linecap="round" stroke-linejoin="round" stroke-miterlimit="10" d="
		M-364-131.6c0,0,16.6-7.1,29.8-31.5c13.1-24.3,38.9-16.4,38.9-16.4s24.3,9.4,20,35.8c-4.3,26.4-7.9,32.5,13.6,47.3"/>
	
		<path fill="none" stroke="#2A2A25" stroke-width="7.4183" stroke-linecap="round" stroke-linejoin="round" stroke-miterlimit="10" d="
		M-364-109.4c0,0,32.9-20.7,45-47.9c7.9-10,22.9-5.7,22.9-5.7s15.7,6.4,0,31.5c-15.7,25-50,49.3-50,49.3"/>
	
		<path fill="none" stroke="#2A2A25" stroke-width="7.4183" stroke-linecap="round" stroke-linejoin="round" stroke-miterlimit="10" d="
		M-289.1-117.3c0,0-14.6,21.4,7.8,35"/>
	
		<path fill="none" stroke="#2A2A25" stroke-width="7.4183" stroke-linecap="round" stroke-linejoin="round" stroke-miterlimit="10" d="
		M-326.5-78.7c0,0,20-21.4,24.9-6.4c4.9,15,2.7,12.4,2.7,12.4"/>
	
		<path fill="none" stroke="#2A2A25" stroke-width="7.4183" stroke-linecap="round" stroke-linejoin="round" stroke-miterlimit="10" d="
		M-301.7-148c0,0-35.9,45-58,55"/>
</g>
<g>
	<path fill="none" stroke="#2A2A25" stroke-width="6.6275" stroke-miterlimit="10" d="M-135.2-44.6h-47.6c-3.4,0-6.1-2.7-6.1-6.1
		v-85.2c0-3.4,2.7-6.1,6.1-6.1h47.6c3.4,0,6.1,2.7,6.1,6.1v85.2C-129.1-47.3-131.8-44.6-135.2-44.6z"/>
	<circle fill="#2A2A25" cx="-159" cy="-57.7" r="4.2"/>
	
		<rect x="-115.3" y="-201.6" fill="none" stroke="#2A2A25" stroke-width="6.6275" stroke-miterlimit="10" width="205" height="128.9"/>
	
		<rect x="104" y="-148.4" fill="none" stroke="#2A2A25" stroke-width="6.6275" stroke-miterlimit="10" width="77.9" height="110.2"/>
	<circle fill="#2A2A25" cx="-102.6" cy="-190.7" r="3.1"/>
	<circle fill="#2A2A25" cx="-91.4" cy="-190.7" r="3.1"/>
	<circle fill="#2A2A25" cx="-81.9" cy="-190.7" r="3.1"/>
	<circle fill="#2A2A25" cx="142.9" cy="-50.9" r="4.7"/>
	
		<polyline fill="none" stroke="#2A2A25" stroke-width="4.4183" stroke-linecap="round" stroke-linejoin="round" stroke-miterlimit="10" points="
		-33.4,-146.4 -48.2,-132.9 -33.4,-120.1 	"/>
	
		<polyline fill="none" stroke="#2A2A25" stroke-width="4.4183" stroke-linecap="round" stroke-linejoin="round" stroke-miterlimit="10" points="
		-3.8,-120.1 11,-133.6 -3.8,-146.4 	"/>
	
		<line fill="none" stroke="#2A2A25" stroke-width="4.4183" stroke-linecap="round" stroke-linejoin="round" stroke-miterlimit="10" x1="-11.1" y1="-148.4" x2="-27.9" y2="-118.1"/>
</g>
<polygon fill="none" stroke="#2A2A25" stroke-width="7.4183" stroke-linecap="round" stroke-linejoin="round" stroke-miterlimit="10" points="
	-239.2,91.5 -239.2,-8.4 -371.8,-8.4 -371.8,124.3 -270.5,124.3 "/>
<polygon fill="none" stroke="#2A2A25" stroke-width="7.4183" stroke-linecap="round" stroke-linejoin="round" stroke-miterlimit="10" points="
	-172.4,154.9 -202.1,156.4 -200.1,126.2 -77.6,7.8 -49.8,36.5 "/>
<g>
	
		<polygon fill="none" stroke="#2A2A25" stroke-width="7.4183" stroke-linecap="round" stroke-linejoin="round" stroke-miterlimit="10" points="
		60.7,126.4 123.9,81.7 60.7,38.9 	"/>
	
		<circle fill="none" stroke="#2A2A25" stroke-width="7.4183" stroke-linecap="round" stroke-linejoin="round" stroke-miterlimit="10" cx="83.8" cy="80.4" r="73.7"/>
</g>
</svg>
