<?xml version="1.0" encoding="utf-8"?>
<!-- Generator: Adobe Illustrator 18.0.0, SVG Export Plug-In . SVG Version: 6.00 Build 0)  -->
<!DOCTYPE svg PUBLIC "-//W3C//DTD SVG 1.1//EN" "http://www.w3.org/Graphics/SVG/1.1/DTD/svg11.dtd">
<svg version="1.1" id="Capa_1" xmlns="http://www.w3.org/2000/svg" xmlns:xlink="http://www.w3.org/1999/xlink" x="0px" y="0px"
	 viewBox="0 0 50 50" enable-background="new 0 0 50 50" xml:space="preserve">
<g>
	<g>
		<path fill-rule="evenodd" clip-rule="evenodd" fill="#2A2A25" d="M45.9,17.3C43,8.5,34.8,2.5,25.5,2.5c-9.3,0-17.5,6-20.4,14.8
			c-2.9,8.9,0.3,18.5,7.8,24c7.5,5.5,17.7,5.5,25.2,0C45.6,35.9,48.8,26.2,45.9,17.3z M37,39.8c-6.8,5-16.1,5-22.9,0
			C7.2,34.8,4.3,26,7,17.9C9.6,9.9,17.1,4.4,25.5,4.4S41.4,9.9,44,17.9C46.7,26,43.8,34.8,37,39.8z M31,16H20
			c-1.4,0-2.5,1.1-2.5,2.5v11c0,1.4,1.1,2.5,2.5,2.5h11c1.4,0,2.5-1.1,2.5-2.5v-11C33.5,17.1,32.4,16,31,16z M28.9,18.2
			c0-0.2,0.2-0.4,0.4-0.4h1.9c0.2,0,0.4,0.2,0.4,0.4v1.9c0,0.2-0.2,0.4-0.4,0.4h-1.9c-0.2,0-0.4-0.2-0.4-0.4V18.2z M22.6,22.8
			c0.5-1.2,1.6-2,2.9-2c1.3,0,2.5,0.8,2.9,2c0.1,0.4,0.2,0.7,0.2,1.2c0,1.7-1.4,3.2-3.2,3.2c-1.7,0-3.2-1.4-3.2-3.2
			C22.3,23.6,22.4,23.2,22.6,22.8z M31.8,29.5c0,0.4-0.4,0.8-0.8,0.8H20c-0.4,0-0.8-0.4-0.8-0.8v-6.6h1.6c-0.1,0.4-0.1,0.8-0.1,1.2
			c0,2.7,2.2,4.9,4.8,4.9c2.7,0,4.8-2.2,4.8-4.9c0-0.4,0-0.8-0.1-1.2h1.6V29.5z"/>
	</g>
</g>
</svg>
