<?xml version="1.0" encoding="utf-8"?>
<!-- Generator: Adobe Illustrator 18.0.0, SVG Export Plug-In . SVG Version: 6.00 Build 0)  -->
<!DOCTYPE svg PUBLIC "-//W3C//DTD SVG 1.1//EN" "http://www.w3.org/Graphics/SVG/1.1/DTD/svg11.dtd">
<svg version="1.1" id="Capa_1" xmlns="http://www.w3.org/2000/svg" xmlns:xlink="http://www.w3.org/1999/xlink" x="0px" y="0px"
	 viewBox="0 0 50 50" enable-background="new 0 0 50 50" xml:space="preserve">
<g>
	<g>
		<path fill="#2A2A25" d="M45.4,18.4C42.5,9.5,34.3,3.5,25,3.5c-9.3,0-17.5,6-20.4,14.9c-2.9,8.9,0.3,18.6,7.8,24
			c7.5,5.5,17.7,5.5,25.2,0C45.1,36.9,48.3,27.2,45.4,18.4z M36.5,40.8c-6.8,5-16.1,5-23,0C6.7,35.9,3.8,27,6.4,19
			C9,10.9,16.5,5.5,25,5.5c8.5,0,16,5.5,18.6,13.5C46.2,27,43.3,35.9,36.5,40.8z M20,16.1c-1.1,0-2,0.9-2,2c0,1.1,0.9,2.1,2,2.1
			c1.1,0,2-0.9,2-2.1C22.1,17,21.2,16.1,20,16.1z M18.3,33.1h3.5V21.7h-3.5V33.1z M30.8,21.5c-1.7,0-2.9,0.9-3.3,1.8h0v-1.6H24v11.4
			h3.5v-5.6c0-1.5,0.3-2.9,2.1-2.9c1.8,0,1.8,1.7,1.8,3v5.5H35v-6.2C35,23.8,34.4,21.5,30.8,21.5z"/>
	</g>
</g>
</svg>
