<?xml version="1.0" encoding="utf-8"?>
<!-- Generator: Adobe Illustrator 18.0.0, SVG Export Plug-In . SVG Version: 6.00 Build 0)  -->
<!DOCTYPE svg PUBLIC "-//W3C//DTD SVG 1.1//EN" "http://www.w3.org/Graphics/SVG/1.1/DTD/svg11.dtd">
<svg version="1.1" id="Capa_1" xmlns="http://www.w3.org/2000/svg" xmlns:xlink="http://www.w3.org/1999/xlink" x="0px" y="0px"
	 viewBox="0 0 129.6 28.9" enable-background="new 0 0 129.6 28.9" xml:space="preserve">
<g>
	<g>
		<polygon fill-rule="evenodd" clip-rule="evenodd" points="12.3,27.2 12.3,27.2 12.3,27.2 		"/>
		<path fill-rule="evenodd" clip-rule="evenodd" d="M29.7,12.9C29.7,12.9,29.7,12.8,29.7,12.9c0-0.1,0.1-0.2,0.1-0.3
			c0-0.2,0-0.3,0-0.5c0-0.1,0-0.1,0-0.2c0,0,0,0,0,0c0-0.1,0-0.1,0-0.2c0-0.1,0-0.1,0-0.2c0,0,0,0-0.1,0c0-0.1,0-0.2,0-0.3
			c0-0.2-0.1-0.4-0.1-0.6c0,0,0,0,0-0.1c0,0,0,0-0.1-0.1c0,0,0-0.1,0-0.1c0-0.1,0-0.2-0.1-0.2c-0.1-0.2-0.2-0.4-0.3-0.7
			c0,0,0,0-0.1-0.1c0,0,0,0,0-0.1c0,0,0,0,0-0.1c0,0,0,0,0,0c0-0.1-0.1-0.1-0.1-0.2c0,0,0-0.1-0.1-0.1c0,0,0-0.1-0.1-0.1
			c-0.1-0.2-0.3-0.5-0.4-0.7c-0.1-0.1-0.2-0.2-0.3-0.3c0-0.1-0.1-0.1-0.1-0.2c-0.4-0.9-1-1.6-1.5-2.2C26.2,5.2,26,5,25.8,4.8
			c-0.2-0.2-0.4-0.4-0.5-0.5C25,4,24.8,3.9,24.7,3.8c-0.2-0.1-0.3-0.2-0.4-0.3c-0.1-0.1-0.2-0.2-0.3-0.3c-0.1-0.2-0.2-0.3-0.5-0.5
			c-0.3-0.2-0.6-0.3-0.9-0.4c-0.3-0.1-0.5-0.2-0.8-0.3c-0.5-0.1-0.8-0.3-1.1-0.5c-0.2-0.1-0.6-0.3-1.1-0.4c-0.3-0.1-0.6-0.1-0.9-0.2
			c-0.2,0-0.5-0.1-0.7-0.1c0,0,0,0,0-0.1c-0.1,0-0.1,0-0.2,0c0,0,0.4,0,0.3,0c0,0,0.3,0,0.3,0c0,0,0,0,0,0c0,0-0.7,0-0.8-0.1
			c0,0-0.3-0.3-0.3-0.3c0,0-0.3-0.3-0.3-0.3h0c0,0,0,0.3,0,0.3c-1.1-0.1-2,0-2.4-0.1c0,0-0.1,0.1-0.1,0.1c-0.1,0-0.2,0.1-0.3,0.1
			c-0.3,0.1-0.6,0.1-0.9,0.1c-0.7,0-1.3,0.3-2.1,0.4c-0.2,0-0.5,0.1-0.8,0.2c-0.3,0.1-0.6,0.2-1,0.4c-0.3,0.1-0.7,0.4-1,0.5
			C8.4,2.2,8.2,2.3,8,2.4C7.9,2.5,7.7,2.7,7.5,2.8c-0.6,0.4-1.2,1-1.6,1.4C5.5,4.6,5.2,4.9,5.1,5C5,5,4.9,5.1,4.8,5.2
			C4.7,5.4,4.6,5.5,4.5,5.6C4.4,5.7,4.3,5.9,4,6.1C3.9,6.3,3.8,6.4,3.6,6.6C3.5,6.7,3.4,6.9,3.2,7.1C3,7.4,2.7,7.8,2.6,8.1
			C2.4,8.4,2.3,8.7,2.2,8.8c-0.1,0.6-0.4,0.7-0.4,1.3c0,0.3-0.1,0.6-0.2,0.9c0,0.1-0.2,0.6-0.2,0.7c0,0.2,0.1,0.1,0.1,0.3
			c0,0.1,0,0.3-0.1,0.7c-0.1,0.4-0.2,1-0.2,1.9c0,0.3,0,0.8,0.1,1.3c0,0.3,0.1,0.6,0.1,0.9c0,0.2,0.1,0.3,0.1,0.5
			c0,0.1,0,0.2,0.1,0.3c0,0.1,0,0.2,0.1,0.3c0.3,1.5,1.1,3,1.9,4.2c0.2,0.3,0.4,0.6,0.6,0.8c0.2,0.2,0.4,0.4,0.6,0.6
			C4.8,23.7,5,23.9,5.1,24c0.1,0.1,0.3,0.2,0.4,0.3c0.2,0.1,0.3,0.1,0.2,0c0-0.1-0.1-0.2-0.2-0.4c-0.1-0.1-0.1-0.2-0.2-0.3
			c-0.1-0.1-0.1-0.2-0.2-0.4c-0.3-0.5,0-0.3,0.4,0.1c0.4,0.4,1,0.8,1.1,0.8c0.1,0,0.3,0.1,0.4,0.3C7.4,24.9,7.5,25,7.5,25
			c0,0,0.1,0,0.4,0.1c0,0,0.5,0.3,1,0.5c0.5,0.2,1,0.4,1.2,0.5c0.1,0.1,0.1,0.1,0.2,0.1l0,0c0.1,0,0.1,0.1,0.2,0.1
			c0.1,0,0.1,0,0.2,0.1c0,0,0,0,0,0c0,0,0,0,0.1,0.1c0.1,0,0.1,0.1,0.2,0.1c0,0,0,0-0.1,0.1c0.1,0,0.1,0.1,0.2,0.1
			c0.1-0.1,0.1-0.1,0.2-0.2c0,0-0.8,0-0.8,0.1c0,0-0.7,0-0.7,0.1v0c0,0.1,0.8,0.1,0.8,0.2c0.1,0,0.4,0.2,0.4,0.2c0.1,0,0.5,0,0.5,0
			h0c0,0,0.1,0,0.1,0.1c0,0,0.1-0.1,0.1-0.1l0,0c0,0,0,0,0,0c0,0,0.1,0,0.1,0h0c0.1,0,0.2,0.1,0.2,0.1c0,0-0.8,0-0.7,0
			c0.1-0.1-0.7-0.1-0.7-0.2v0c2,0,1.8,0.1,1.8,0.1h0c0,0-1.8-0.1-1.8-0.1v0c0,0,0.9,0.1,0.8,0.1c0,0-0.5,0.1-0.6,0.1
			c0.1,0-0.3,0-0.3,0.1v0l1.7-0.2h0.1c0,0,0.1,0.2,0.1,0.2c0,0,0.1,0.1,0.1,0.1c0,0,0.1,0,0.1,0.1c-0.1,0-0.2,0-0.4,0
			c-0.2,0-0.6,0-0.9-0.1c-0.3,0-0.7-0.1-0.9-0.1c-0.3,0-0.5-0.1-0.5-0.1c-0.6,0-1.8-0.6-2.3-0.8C7.5,26,7.4,26,7.2,26
			c-0.2,0-0.4-0.2-0.9-0.5c-0.2-0.1-0.3-0.2-0.5-0.3c-0.1-0.1-0.3-0.2-0.4-0.3c-0.2-0.2-0.4-0.3-0.6-0.4c-0.3-0.2-0.5-0.4-0.6-0.5
			c-0.2-0.2-0.3-0.2-0.7-0.8c-0.1-0.1-0.2-0.3-0.3-0.4c-0.1-0.1-0.2-0.3-0.4-0.4c-0.1-0.1-0.2-0.3-0.3-0.4c-0.1-0.1-0.2-0.3-0.3-0.4
			c-0.2-0.3-0.4-0.5-0.5-0.7c-0.1-0.2-0.2-0.4-0.2-0.5c0,0,0-0.1-0.1-0.2c-0.1-0.1-0.2-0.3-0.3-0.4C1.1,19.5,1,19.3,1,19.2
			c-0.1-0.3-0.3-0.7-0.4-1.1c-0.1-0.3-0.1-0.3-0.1-0.3c0,0-0.1-0.1-0.1-0.6c0-0.4-0.2-0.8-0.3-0.9c0,0.2,0,0.4,0.1,0.6
			c0.1,0.4,0.1,0.8,0.1,1.2c0,0.3,0.4,1.6,0.5,1.9c0.2,0.4,0.4,0.8,0.5,1.1c0.1,0.1,0.2,0.2,0.2,0.3c0.1,0.1,0.1,0.1,0.1,0.1
			C1.8,21.6,2,22,2.2,22.3c0.2,0.3,0.5,0.7,0.7,1c0.1,0.1,0.2,0.3,0.3,0.4c0.1,0.1,0.2,0.3,0.4,0.4c0.2,0.3,0.5,0.5,0.7,0.7
			c0.2,0.2,0.5,0.4,0.7,0.6c0.1,0.1,0.2,0.2,0.4,0.3c0.1,0.1,0.3,0.2,0.4,0.3c0.3,0.2,0.5,0.3,0.8,0.5C6.8,26.7,7,26.8,7.3,27
			c0.1,0.1,0.3,0.1,0.2,0c0-0.1,0.1-0.1,0.3-0.1C8,27,8.2,27.1,8.6,27.2c0.2,0,0.2,0.1,0.5,0.2c0.2,0.2,0.4,0.3,0.2,0.3
			c-0.1,0-0.3-0.1-0.4-0.1c0.1,0,0.2,0.1,0.4,0.2c0.2,0.1,0.5,0.2,0.8,0.3c0.2,0.1,0.3,0.1,0.5,0.2c0.2,0.1,0.4,0.1,0.6,0.1
			c0.4,0.1,0.8,0.2,1.3,0.3c0.2,0,0.5,0.1,0.7,0.1c0.2,0,0.5,0.1,0.7,0.1c0.4,0,0.9,0,1.3,0c0.4,0,0.8,0,1.1-0.1
			c0.3,0,0.6-0.1,0.9-0.1c0.7-0.1,0.4-0.2,0.2-0.3c-0.1-0.2,0.7,0,1-0.1c0.4-0.1,0.3,0,0.6,0c0.1,0,0.1,0,0.3,0
			c0.1,0,0.3-0.1,0.4-0.1c0.2-0.1,0.4-0.2,0.7-0.3c0.1-0.1,0.3-0.1,0.4-0.2c0.2-0.1,0.3-0.2,0.5-0.3c0.3-0.2,0.7-0.4,1-0.6
			c0.2-0.1,0.3-0.2,0.5-0.3l0.3-0.2l0.2-0.2c0.3-0.3,0.6-0.5,1-0.8c0.3-0.3,0.6-0.5,0.9-0.8c0.2-0.2,0.3-0.4,0.4-0.6
			c0.1-0.2,0.2-0.5,0.3-0.7c0.1-0.2,0.1-0.4,0.1-0.5c0.3-0.3,0.5-0.6,0.8-0.9c0,0,0,0,0.1,0c0,0,0,0,0.1-0.1c0,0,0-0.1,0.1-0.1
			c0-0.1,0.1-0.1,0.1-0.2c0,0,0,0,0,0c0,0,0-0.1,0-0.1c0,0,0,0,0,0c0,0,0-0.1,0-0.1c0,0,0,0,0,0c0,0,0-0.1,0.1-0.1h0
			c0,0,0-0.1,0.1-0.1c0.2-0.2,0.3-0.4,0.5-0.6c0-0.1,0.1-0.2,0.1-0.4c0,0,0,0,0,0c0.1-0.2,0.2-0.4,0.3-0.6c0.1-0.1,0.1-0.2,0.2-0.2
			c0-0.1,0-0.1,0.1-0.2c0,0,0-0.1,0.1-0.1c0,0,0-0.1,0.1-0.1c0.1-0.4,0.3-0.8,0.4-1.1c0-0.2,0-0.3,0-0.5c0,0,0,0,0,0
			c0.1-0.2,0.1-0.4,0.2-0.6c0-0.1,0-0.1,0.1-0.2c0-0.2,0.1-0.4,0.1-0.6c0-0.1,0-0.2,0-0.3c0,0,0,0,0,0c0.1-0.3,0.1-0.7,0.1-1
			c0.1-0.3,0.2-0.5,0.1-0.8C29.7,13.3,29.7,13.1,29.7,12.9C29.7,12.9,29.7,12.9,29.7,12.9z M24.9,24.5
			C24.9,24.5,24.9,24.5,24.9,24.5C24.8,24.6,24.9,24.5,24.9,24.5z M12.3,26.4c0.1,0,0.3,0,0.5,0.1c0.5,0.1,0.3,0,0.6,0
			c-0.1,0-0.2,0.1-0.3,0.1c0.2,0.1,0.6,0.1,0.9,0.1c0.3,0,0.9,0.1,1.1,0.3c0.1,0,0.1,0.1,0.2,0.1c0,0-0.1,0-0.1,0
			c-0.2,0-0.4,0-0.5,0c-0.1,0-0.1,0-0.2,0h0c-0.2,0-0.5-0.2-0.7-0.2c-0.2-0.1-0.3-0.1-0.5,0c0,0,0,0.1-0.1,0.1c-0.1,0-0.2,0-0.2,0
			c0-0.1,0.1-0.1,0.1-0.2C12.9,26.6,12.6,26.5,12.3,26.4z M24.4,24.9c-0.1,0-0.2,0-0.2,0c0.2-0.1,0.4-0.2,0.6-0.4
			C24.7,24.7,24.6,24.8,24.4,24.9z M29.5,13.3c-0.1,0.1-0.1,0.2-0.1,0.4c0,0.2,0,0.5,0,0.7c0,0.2,0,0.5-0.1,0.7
			c0,0.2-0.1,0.4-0.1,0.5c-0.2,0-0.2,0-0.3,0.2c0,0,0,0,0,0c0,0-0.1,0.1-0.1,0.1c0,0,0,0,0,0c-0.1,0-0.1-0.1-0.1-0.1
			c0-0.2,0-0.4,0.1-0.6c0.1-0.2,0-0.5,0.2-0.7c0.2,0.1,0,0.2,0.1,0.4c0.2-0.3,0.1-0.6,0-0.8c-0.1,0-0.1-0.1-0.2-0.1c0,0,0-0.1,0-0.1
			c0.1,0,0.1-0.1,0.1-0.2c0-0.1,0-0.1,0-0.2c0-0.1,0-0.2,0.1-0.3c0.1-0.5,0.1-1.1,0-1.8c0-0.2,0-0.4-0.1-0.5c0-0.2-0.1-0.4-0.1-0.5
			c0-0.1,0-0.2-0.1-0.2c0,0,0,0,0,0.1c0,0.1,0.1,0.2,0.2,0.3c0,0.1,0,0.2,0,0.3c0.1,0.3,0.2,0.7,0.3,1c0,0.1,0,0.2,0,0.3
			c0,0.3,0,0.6,0.1,0.9C29.5,13.1,29.5,13.2,29.5,13.3z"/>
		<polygon fill-rule="evenodd" clip-rule="evenodd" points="11.7,27 11.7,27 11.7,27 		"/>
		<path fill-rule="evenodd" clip-rule="evenodd" d="M19,0.9c0.1,0,0.2,0,0.2-0.1c0,0,0,0,0,0c-0.1,0-0.2,0-0.3-0.1c0,0,0,0,0,0
			c0,0-0.1,0-0.1,0.1l0,0C18.7,0.8,18.8,0.9,19,0.9z"/>
		<polygon fill-rule="evenodd" clip-rule="evenodd" points="17.8,0.7 17.8,0.7 17.8,0.7 		"/>
		<path fill-rule="evenodd" clip-rule="evenodd" d="M18.2,0c0.1,0,0.1,0,0.2,0C18.3,0,18.3,0,18.2,0z"/>
		<polygon fill-rule="evenodd" clip-rule="evenodd" points="18.2,0.5 18.2,0.5 18.2,0.5 		"/>
		<path fill-rule="evenodd" clip-rule="evenodd" d="M11.1,26.7C11.1,26.7,11.1,26.7,11.1,26.7C11.1,26.7,11.1,26.7,11.1,26.7
			L11.1,26.7z"/>
		<polygon fill-rule="evenodd" clip-rule="evenodd" points="29.1,13.7 29.2,13.7 29.1,13.7 		"/>
	</g>
	<path fill="#FFFFFF" d="M13,8.2c-2.3,2.9-3,4.1-3.7,1.7C9,9.2,7.8,9.2,7.4,8.2c-0.6,4.1,1,10.9,5.4,12.1c1,0.3,2.6,1.8,3.9,1.2
		c-2.7-2.1-3.9-2.4-1-5.3c3.9-3.3,6.5,1.3,7.8,4.5C26.8,14.2,15.1,5.5,13,8.2z"/>
</g>
<g>
	<g>
		<path d="M32.8,14.3h1.5V5.9h-1.5V4.9h3.5l5,8.6V5.9h-1.5V4.9h4.3v1.1h-1.6v9.5h-1.7l-5.3-9.1v8.1h1.5v1.1h-4.3V14.3z"/>
		<path d="M45.3,8.9c0.3-0.3,0.7-0.6,1.2-0.8c0.5-0.2,1-0.3,1.7-0.3c0.6,0,1.1,0.1,1.4,0.2c0.4,0.1,0.7,0.3,0.9,0.5s0.4,0.5,0.5,0.8
			s0.1,0.6,0.1,0.9v4.1h1.3v1H50l0-0.8c-0.2,0.2-0.5,0.3-0.7,0.4c-0.2,0.1-0.4,0.2-0.6,0.3c-0.2,0.1-0.4,0.1-0.6,0.2
			c-0.2,0-0.4,0-0.7,0c-0.4,0-0.7-0.1-1-0.2c-0.3-0.1-0.6-0.3-0.8-0.5c-0.2-0.2-0.4-0.4-0.5-0.7c-0.1-0.3-0.2-0.5-0.2-0.8
			c0-0.5,0.1-0.8,0.3-1.1c0.2-0.3,0.4-0.5,0.7-0.7c0.3-0.2,0.6-0.3,1-0.4c0.4-0.1,0.8-0.1,1.2-0.1c0.3,0,0.6,0,0.9,0
			c0.3,0,0.6,0.1,0.9,0.1v-0.9c0-0.3,0-0.5-0.1-0.7c-0.1-0.2-0.2-0.3-0.4-0.4c-0.2-0.1-0.3-0.2-0.5-0.2C48.6,9,48.4,9,48.1,9
			c-0.4,0-0.8,0.1-1.1,0.2c-0.3,0.1-0.6,0.3-0.8,0.6L45.3,8.9z M49.8,12.2c-0.2,0-0.4,0-0.7-0.1c-0.3,0-0.6-0.1-0.9-0.1
			c-0.2,0-0.5,0-0.7,0.1c-0.2,0-0.5,0.1-0.6,0.2c-0.2,0.1-0.3,0.2-0.5,0.4c-0.1,0.2-0.2,0.4-0.2,0.7c0,0.2,0,0.3,0.1,0.5
			s0.2,0.3,0.3,0.4c0.1,0.1,0.3,0.2,0.4,0.2s0.4,0.1,0.6,0.1c0.2,0,0.4,0,0.6-0.1s0.4-0.1,0.6-0.2c0.2-0.1,0.4-0.2,0.6-0.3
			c0.2-0.1,0.3-0.2,0.5-0.3V12.2z"/>
		<path d="M56.9,15.6c-0.6,0-1.1-0.1-1.6-0.3c-0.5-0.2-0.9-0.5-1.2-0.8c-0.3-0.3-0.6-0.8-0.8-1.2c-0.2-0.5-0.3-1-0.3-1.5
			s0.1-1,0.3-1.5s0.4-0.9,0.8-1.2s0.7-0.6,1.2-0.8c0.5-0.2,1-0.3,1.6-0.3c0.6,0,1.1,0.1,1.6,0.3c0.5,0.2,0.9,0.5,1.2,0.8
			s0.6,0.8,0.8,1.2s0.3,1,0.3,1.5s-0.1,1-0.3,1.5c-0.2,0.5-0.4,0.9-0.8,1.2c-0.3,0.3-0.8,0.6-1.2,0.8C58.1,15.5,57.5,15.6,56.9,15.6
			z M56.9,14.4c0.4,0,0.7-0.1,1-0.2c0.3-0.1,0.6-0.3,0.8-0.6c0.2-0.2,0.4-0.5,0.5-0.9c0.1-0.3,0.2-0.7,0.2-1.1c0-0.4-0.1-0.7-0.2-1
			c-0.1-0.3-0.3-0.6-0.5-0.9c-0.2-0.2-0.5-0.4-0.8-0.6s-0.6-0.2-1-0.2s-0.7,0.1-1,0.2s-0.6,0.3-0.8,0.6c-0.2,0.2-0.4,0.5-0.5,0.9
			c-0.1,0.3-0.2,0.7-0.2,1c0,0.4,0.1,0.7,0.2,1.1c0.1,0.3,0.3,0.6,0.5,0.9c0.2,0.2,0.5,0.4,0.8,0.6C56.2,14.4,56.6,14.4,56.9,14.4z"
			/>
		<path d="M63.3,9.1H62V8h2.6l0,1c0.4-0.4,0.8-0.6,1.3-0.8c0.4-0.2,0.9-0.3,1.3-0.3c0.5,0,0.9,0.1,1.2,0.3c0.3,0.2,0.6,0.5,0.8,0.9
			c0.5-0.4,0.9-0.7,1.4-1C71,8,71.5,7.9,72,7.9c0.4,0,0.7,0.1,1,0.2c0.3,0.1,0.5,0.3,0.7,0.5C73.8,8.8,74,9,74,9.3
			c0.1,0.3,0.1,0.6,0.1,0.9v4.2h1.3v1h-3.7v-1h1v-3.9c0-0.4-0.1-0.8-0.3-1c-0.2-0.3-0.5-0.4-0.9-0.4c-0.2,0-0.4,0-0.6,0.1
			s-0.4,0.2-0.6,0.3S70,9.7,69.8,9.9c-0.2,0.1-0.3,0.3-0.4,0.4v4.2h1.1v1H67v-1h1v-3.9c0-0.5-0.1-0.9-0.3-1.1
			c-0.2-0.2-0.5-0.3-0.9-0.3s-0.7,0.1-1.1,0.3c-0.3,0.2-0.7,0.5-1.1,0.8v4.3h1.1v1h-3.9v-1h1.4V9.1z"/>
		<path d="M76.1,14.4h1.2V9.1h-1.2V8h2.6v6.4H80v1h-3.8V14.4z M77.2,5.7c0-0.1,0-0.2,0.1-0.3c0-0.1,0.1-0.2,0.2-0.3s0.2-0.1,0.3-0.2
			c0.1,0,0.2-0.1,0.3-0.1c0.2,0,0.4,0.1,0.6,0.2c0.2,0.2,0.2,0.3,0.2,0.6c0,0.2-0.1,0.4-0.2,0.6c-0.2,0.2-0.4,0.2-0.6,0.2
			c-0.1,0-0.2,0-0.3-0.1c-0.1,0-0.2-0.1-0.3-0.2S77.3,6.1,77.3,6C77.2,5.9,77.2,5.8,77.2,5.7z"/>
		<path d="M84.8,14.3h1.4V5.9h-1.4V4.9h4.9c0.7,0,1.3,0.1,1.8,0.3c0.5,0.2,0.8,0.5,1.1,0.8c0.3,0.3,0.5,0.7,0.6,1
			c0.1,0.4,0.2,0.7,0.2,1.1c0,0.6-0.1,1.1-0.3,1.5c-0.2,0.4-0.5,0.7-0.9,0.9s-0.8,0.4-1.4,0.5c-0.5,0.1-1.1,0.1-1.7,0.1h-1.3v3.3
			h1.4v1.1h-4.3V14.3z M87.6,10.1h1.6c0.5,0,0.9-0.1,1.2-0.2c0.3-0.1,0.6-0.3,0.8-0.4c0.2-0.2,0.3-0.4,0.4-0.7
			c0.1-0.3,0.1-0.5,0.1-0.8c0-0.7-0.2-1.2-0.5-1.5c-0.4-0.4-0.9-0.5-1.5-0.5h-2.1V10.1z"/>
		<path d="M94.6,8.9c0.3-0.3,0.7-0.6,1.2-0.8c0.5-0.2,1-0.3,1.7-0.3c0.6,0,1.1,0.1,1.4,0.2c0.4,0.1,0.7,0.3,0.9,0.5s0.4,0.5,0.5,0.8
			c0.1,0.3,0.1,0.6,0.1,0.9v4.1h1.3v1h-2.5l0-0.8c-0.2,0.2-0.5,0.3-0.7,0.4s-0.4,0.2-0.6,0.3c-0.2,0.1-0.4,0.1-0.6,0.2
			c-0.2,0-0.4,0-0.7,0c-0.4,0-0.7-0.1-1-0.2c-0.3-0.1-0.6-0.3-0.8-0.5s-0.4-0.4-0.5-0.7c-0.1-0.3-0.2-0.5-0.2-0.8
			c0-0.5,0.1-0.8,0.3-1.1c0.2-0.3,0.4-0.5,0.7-0.7c0.3-0.2,0.6-0.3,1-0.4c0.4-0.1,0.8-0.1,1.2-0.1c0.3,0,0.6,0,0.9,0
			c0.3,0,0.6,0.1,0.9,0.1v-0.9c0-0.3,0-0.5-0.1-0.7c-0.1-0.2-0.2-0.3-0.4-0.4c-0.2-0.1-0.3-0.2-0.5-0.2C97.8,9,97.6,9,97.4,9
			c-0.4,0-0.8,0.1-1.1,0.2c-0.3,0.1-0.6,0.3-0.8,0.6L94.6,8.9z M99.1,12.2c-0.2,0-0.4,0-0.7-0.1c-0.3,0-0.6-0.1-0.9-0.1
			c-0.2,0-0.5,0-0.7,0.1c-0.2,0-0.5,0.1-0.6,0.2c-0.2,0.1-0.3,0.2-0.5,0.4c-0.1,0.2-0.2,0.4-0.2,0.7c0,0.2,0,0.3,0.1,0.5
			c0.1,0.1,0.2,0.3,0.3,0.4c0.1,0.1,0.3,0.2,0.4,0.2s0.4,0.1,0.6,0.1c0.2,0,0.4,0,0.6-0.1c0.2,0,0.4-0.1,0.6-0.2s0.4-0.2,0.6-0.3
			c0.2-0.1,0.3-0.2,0.5-0.3V12.2z"/>
		<path d="M102.5,13h1.2v0.5c0.1,0.2,0.2,0.3,0.3,0.4s0.2,0.2,0.4,0.3c0.1,0.1,0.3,0.2,0.5,0.2c0.2,0,0.4,0.1,0.7,0.1
			c0.5,0,1-0.1,1.2-0.3c0.3-0.2,0.4-0.4,0.4-0.8c0-0.2,0-0.4-0.1-0.5c-0.1-0.1-0.2-0.2-0.3-0.3s-0.3-0.1-0.5-0.2
			c-0.2,0-0.4-0.1-0.7-0.1c-0.4-0.1-0.8-0.1-1.1-0.2c-0.4-0.1-0.7-0.2-1-0.4c-0.3-0.2-0.5-0.4-0.7-0.7s-0.3-0.6-0.3-1.1
			c0-0.3,0.1-0.6,0.2-0.8c0.1-0.3,0.3-0.5,0.5-0.7s0.5-0.3,0.9-0.5s0.7-0.2,1.1-0.2c0.4,0,0.7,0.1,1,0.2c0.3,0.1,0.6,0.3,0.8,0.5V8
			h1.2v2.3h-1.2V9.8c-0.4-0.5-1-0.8-1.8-0.8c-0.5,0-0.8,0.1-1.1,0.3c-0.3,0.2-0.4,0.4-0.4,0.7c0,0.2,0.1,0.4,0.2,0.5
			c0.1,0.1,0.3,0.2,0.6,0.3c0.2,0.1,0.5,0.1,0.8,0.2c0.3,0.1,0.6,0.1,0.9,0.2c0.3,0.1,0.6,0.1,0.9,0.2s0.6,0.2,0.8,0.4
			c0.2,0.2,0.4,0.4,0.6,0.6s0.2,0.6,0.2,0.9c0,0.3-0.1,0.6-0.2,0.9c-0.1,0.3-0.3,0.5-0.6,0.7c-0.3,0.2-0.6,0.3-0.9,0.5
			s-0.8,0.2-1.2,0.2c-0.4,0-0.8,0-1.1-0.1c-0.3-0.1-0.6-0.3-0.9-0.5v0.5h-1.2V13z"/>
		<path d="M109.5,8h1.1V5.7l1.4-0.3V8h1.6v1H112v3.7c0,0.3,0,0.5,0,0.7c0,0.2,0,0.4,0.1,0.5c0,0.1,0.1,0.2,0.2,0.3
			c0.1,0.1,0.3,0.1,0.4,0.1h1.1v1h-1.3c-0.5,0-0.8-0.1-1.1-0.2c-0.3-0.1-0.5-0.3-0.6-0.6c-0.1-0.2-0.2-0.5-0.2-0.9
			c0-0.3,0-0.7,0-1.1V9.1h-1.1V8z"/>
		<path d="M118.4,15.6c-0.6,0-1.1-0.1-1.6-0.3c-0.5-0.2-0.9-0.5-1.2-0.8c-0.3-0.3-0.6-0.8-0.8-1.2c-0.2-0.5-0.3-1-0.3-1.5
			s0.1-1,0.3-1.5s0.4-0.9,0.8-1.2s0.7-0.6,1.2-0.8c0.5-0.2,1-0.3,1.6-0.3c0.6,0,1.1,0.1,1.6,0.3c0.5,0.2,0.9,0.5,1.2,0.8
			s0.6,0.8,0.8,1.2c0.2,0.5,0.3,1,0.3,1.5s-0.1,1-0.3,1.5c-0.2,0.5-0.4,0.9-0.8,1.2c-0.3,0.3-0.8,0.6-1.2,0.8
			C119.6,15.5,119,15.6,118.4,15.6z M118.4,14.4c0.4,0,0.7-0.1,1-0.2c0.3-0.1,0.6-0.3,0.8-0.6s0.4-0.5,0.5-0.9
			c0.1-0.3,0.2-0.7,0.2-1.1c0-0.4-0.1-0.7-0.2-1c-0.1-0.3-0.3-0.6-0.5-0.9s-0.5-0.4-0.8-0.6c-0.3-0.1-0.6-0.2-1-0.2
			c-0.4,0-0.7,0.1-1,0.2c-0.3,0.1-0.6,0.3-0.8,0.6c-0.2,0.2-0.4,0.5-0.5,0.9c-0.1,0.3-0.2,0.7-0.2,1c0,0.4,0.1,0.7,0.2,1.1
			c0.1,0.3,0.3,0.6,0.5,0.9c0.2,0.2,0.5,0.4,0.8,0.6C117.7,14.4,118.1,14.4,118.4,14.4z"/>
		<path d="M123.5,14.4h1.5V9.1h-1.5V8h2.6l0,1.6c0.2-0.3,0.3-0.6,0.5-0.8c0.2-0.2,0.4-0.4,0.6-0.5s0.5-0.2,0.7-0.3
			c0.3-0.1,0.5-0.1,0.8-0.1c0.3,0,0.5,0,0.9,0.1l0,1.3c0,0-0.1,0-0.1,0c-0.1,0-0.2,0-0.3,0c-0.1,0-0.2,0-0.3,0c-0.1,0-0.2,0-0.2,0
			c-0.5,0-0.8,0.1-1.1,0.2c-0.3,0.1-0.5,0.3-0.7,0.5c-0.2,0.2-0.3,0.5-0.4,0.9s-0.1,0.7-0.1,1.1v2.5h1.6v1h-4.5V14.4z"/>
	</g>
	<g>
		<path d="M36.4,21.3c0.4,0.3,0.6,0.7,0.8,1.1h-0.7c-0.1-0.3-0.3-0.6-0.5-0.8c-0.3-0.2-0.6-0.3-1-0.3c-0.5,0-0.9,0.2-1.2,0.5
			c-0.3,0.4-0.5,0.9-0.5,1.5c0,0.7,0.2,1.2,0.5,1.5c0.3,0.4,0.7,0.5,1.2,0.5c0.4,0,0.7-0.1,1-0.3c0.3-0.2,0.4-0.4,0.5-0.8h0.7
			c-0.2,0.5-0.4,0.8-0.8,1.1C36,25.9,35.5,26,34.9,26c-0.5,0-0.9-0.1-1.2-0.3c-0.4-0.2-0.6-0.5-0.8-0.9c-0.2-0.4-0.3-0.8-0.3-1.3
			s0.1-0.9,0.3-1.3c0.2-0.4,0.5-0.7,0.8-0.9c0.4-0.2,0.8-0.3,1.2-0.3C35.5,20.9,36,21.1,36.4,21.3z"/>
		<path d="M40.4,20.9v0.7h-0.2c-0.4,0-0.8,0.1-1,0.4s-0.3,0.6-0.3,1.2v2.8h-0.6V21h0.6v0.8C39.2,21.2,39.7,20.9,40.4,20.9z"/>
		<path d="M45.9,23.7h-4.1c0,0.6,0.2,1,0.5,1.3s0.7,0.5,1.2,0.5c0.4,0,0.7-0.1,1-0.3c0.3-0.2,0.5-0.4,0.6-0.7h0.7
			c-0.2,0.4-0.4,0.8-0.8,1S44.1,26,43.5,26c-0.5,0-0.9-0.1-1.2-0.3c-0.4-0.2-0.6-0.5-0.8-0.9c-0.2-0.4-0.3-0.8-0.3-1.3
			c0-0.5,0.1-1,0.3-1.3c0.2-0.4,0.5-0.7,0.9-0.9c0.4-0.2,0.8-0.3,1.3-0.3c0.5,0,0.9,0.1,1.2,0.3s0.6,0.5,0.8,0.8
			c0.2,0.3,0.3,0.7,0.3,1.2C45.9,23.4,45.9,23.5,45.9,23.7z M45.2,23.2c0-0.4-0.1-0.7-0.2-0.9c-0.2-0.3-0.4-0.5-0.6-0.6
			c-0.3-0.1-0.6-0.2-0.9-0.2c-0.5,0-0.9,0.2-1.2,0.5c-0.3,0.3-0.5,0.8-0.5,1.3H45.2z"/>
		<path d="M50.2,21.2c0.3,0.2,0.6,0.5,0.7,0.8V21h0.6v4.9h-0.6v-1.1c-0.2,0.3-0.4,0.6-0.7,0.8C49.8,25.9,49.4,26,49,26
			c-0.4,0-0.8-0.1-1.2-0.3c-0.4-0.2-0.6-0.5-0.9-0.9c-0.2-0.4-0.3-0.8-0.3-1.3s0.1-0.9,0.3-1.3c0.2-0.4,0.5-0.7,0.9-0.9
			c0.4-0.2,0.8-0.3,1.2-0.3C49.4,20.9,49.8,21,50.2,21.2z M48.2,21.7c-0.3,0.2-0.5,0.4-0.7,0.7c-0.2,0.3-0.2,0.6-0.2,1.1
			c0,0.4,0.1,0.8,0.3,1.1c0.2,0.3,0.4,0.6,0.7,0.7c0.3,0.2,0.6,0.3,0.9,0.3c0.3,0,0.6-0.1,0.9-0.2c0.3-0.2,0.5-0.4,0.7-0.7
			c0.2-0.3,0.2-0.7,0.2-1.1s-0.1-0.8-0.2-1.1c-0.2-0.3-0.4-0.5-0.7-0.7c-0.3-0.2-0.6-0.2-0.9-0.2C48.8,21.5,48.5,21.5,48.2,21.7z"/>
		<path d="M53.7,21.5v3.3c0,0.2,0,0.4,0.1,0.5c0.1,0.1,0.3,0.1,0.5,0.1h0.7v0.5h-0.8c-0.8,0-1.2-0.4-1.2-1.2v-3.3h-0.7V21h0.7v-1.2
			h0.6V21h1.4v0.5H53.7z"/>
		<path d="M55.9,19.3c0.1-0.1,0.2-0.1,0.3-0.1c0.1,0,0.2,0,0.3,0.1c0.1,0.1,0.1,0.2,0.1,0.3c0,0.1,0,0.2-0.1,0.3
			c-0.1,0.1-0.2,0.1-0.3,0.1c-0.1,0-0.2,0-0.3-0.1c-0.1-0.1-0.1-0.2-0.1-0.3C55.8,19.5,55.9,19.4,55.9,19.3z M56.6,21v4.9h-0.6V21
			H56.6z"/>
		<path d="M59.7,25.3l1.6-4.3H62l-2,4.9h-0.6l-2-4.9h0.7L59.7,25.3z"/>
		<path d="M67.2,23.7h-4.1c0,0.6,0.2,1,0.5,1.3s0.7,0.5,1.2,0.5c0.4,0,0.7-0.1,1-0.3c0.3-0.2,0.5-0.4,0.6-0.7H67
			c-0.2,0.4-0.4,0.8-0.8,1S65.4,26,64.8,26c-0.5,0-0.9-0.1-1.2-0.3c-0.4-0.2-0.6-0.5-0.8-0.9c-0.2-0.4-0.3-0.8-0.3-1.3
			c0-0.5,0.1-1,0.3-1.3c0.2-0.4,0.5-0.7,0.9-0.9c0.4-0.2,0.8-0.3,1.3-0.3c0.5,0,0.9,0.1,1.2,0.3s0.6,0.5,0.8,0.8
			c0.2,0.3,0.3,0.7,0.3,1.2C67.2,23.4,67.2,23.5,67.2,23.7z M66.5,23.2c0-0.4-0.1-0.7-0.2-0.9c-0.2-0.3-0.4-0.5-0.6-0.6
			c-0.3-0.1-0.6-0.2-0.9-0.2c-0.5,0-0.9,0.2-1.2,0.5c-0.3,0.3-0.5,0.8-0.5,1.3H66.5z"/>
		<path d="M77.3,21l-1.6,4.9h-0.6l-1.2-4.1l-1.2,4.1H72L70.4,21H71l1.2,4.2l1.3-4.2h0.6l1.2,4.2l1.2-4.2H77.3z"/>
		<path d="M82.5,23.7h-4.1c0,0.6,0.2,1,0.5,1.3s0.7,0.5,1.2,0.5c0.4,0,0.7-0.1,1-0.3c0.3-0.2,0.5-0.4,0.6-0.7h0.7
			c-0.2,0.4-0.4,0.8-0.8,1S80.7,26,80.1,26c-0.5,0-0.9-0.1-1.2-0.3c-0.4-0.2-0.6-0.5-0.8-0.9c-0.2-0.4-0.3-0.8-0.3-1.3
			c0-0.5,0.1-1,0.3-1.3c0.2-0.4,0.5-0.7,0.9-0.9c0.4-0.2,0.8-0.3,1.3-0.3c0.5,0,0.9,0.1,1.2,0.3c0.3,0.2,0.6,0.5,0.8,0.8
			c0.2,0.3,0.3,0.7,0.3,1.2C82.5,23.4,82.5,23.5,82.5,23.7z M81.8,23.2c0-0.4-0.1-0.7-0.2-0.9c-0.1-0.3-0.4-0.5-0.6-0.6
			s-0.6-0.2-0.9-0.2c-0.5,0-0.9,0.2-1.2,0.5s-0.5,0.8-0.5,1.3H81.8z"/>
		<path d="M87.3,21.2c0.4,0.2,0.6,0.5,0.9,0.9c0.2,0.4,0.3,0.8,0.3,1.3s-0.1,0.9-0.3,1.3c-0.2,0.4-0.5,0.7-0.9,0.9
			c-0.4,0.2-0.8,0.3-1.2,0.3c-0.4,0-0.8-0.1-1.2-0.3c-0.3-0.2-0.6-0.5-0.7-0.8v1.1h-0.6v-6.7h0.6v2.8c0.2-0.3,0.4-0.6,0.7-0.8
			c0.3-0.2,0.7-0.3,1.2-0.3C86.5,20.9,86.9,21,87.3,21.2z M85.1,21.7c-0.3,0.2-0.5,0.4-0.7,0.7c-0.2,0.3-0.2,0.7-0.2,1.1
			s0.1,0.8,0.2,1.1c0.2,0.3,0.4,0.5,0.7,0.7c0.3,0.2,0.6,0.2,0.9,0.2c0.3,0,0.6-0.1,0.9-0.3c0.3-0.2,0.5-0.4,0.7-0.7
			c0.2-0.3,0.3-0.7,0.3-1.1c0-0.4-0.1-0.8-0.2-1.1c-0.2-0.3-0.4-0.5-0.7-0.7s-0.6-0.2-0.9-0.2C85.7,21.5,85.3,21.5,85.1,21.7z"/>
		<path d="M95.4,21.2c0.3,0.2,0.6,0.5,0.7,0.8v-2.8h0.6v6.7h-0.6v-1.1c-0.2,0.3-0.4,0.6-0.7,0.8c-0.3,0.2-0.7,0.3-1.2,0.3
			c-0.4,0-0.8-0.1-1.2-0.3c-0.4-0.2-0.6-0.5-0.9-0.9c-0.2-0.4-0.3-0.8-0.3-1.3s0.1-0.9,0.3-1.3c0.2-0.4,0.5-0.7,0.9-0.9
			s0.8-0.3,1.2-0.3C94.7,20.9,95.1,21,95.4,21.2z M93.4,21.7c-0.3,0.2-0.5,0.4-0.7,0.7c-0.2,0.3-0.2,0.6-0.2,1.1
			c0,0.4,0.1,0.8,0.3,1.1c0.2,0.3,0.4,0.6,0.7,0.7c0.3,0.2,0.6,0.3,0.9,0.3c0.3,0,0.6-0.1,0.9-0.2c0.3-0.2,0.5-0.4,0.7-0.7
			c0.2-0.3,0.2-0.7,0.2-1.1s-0.1-0.8-0.2-1.1c-0.2-0.3-0.4-0.5-0.7-0.7c-0.3-0.2-0.6-0.2-0.9-0.2C94,21.5,93.7,21.5,93.4,21.7z"/>
		<path d="M102.6,23.7h-4.1c0,0.6,0.2,1,0.5,1.3s0.7,0.5,1.2,0.5c0.4,0,0.7-0.1,1-0.3c0.3-0.2,0.5-0.4,0.6-0.7h0.7
			c-0.2,0.4-0.4,0.8-0.8,1s-0.8,0.4-1.4,0.4c-0.5,0-0.9-0.1-1.2-0.3c-0.4-0.2-0.6-0.5-0.8-0.9c-0.2-0.4-0.3-0.8-0.3-1.3
			c0-0.5,0.1-1,0.3-1.3c0.2-0.4,0.5-0.7,0.9-0.9c0.4-0.2,0.8-0.3,1.3-0.3c0.5,0,0.9,0.1,1.2,0.3c0.3,0.2,0.6,0.5,0.8,0.8
			c0.2,0.3,0.3,0.7,0.3,1.2C102.6,23.4,102.6,23.5,102.6,23.7z M101.9,23.2c0-0.4-0.1-0.7-0.2-0.9c-0.1-0.3-0.4-0.5-0.6-0.6
			s-0.6-0.2-0.9-0.2c-0.5,0-0.9,0.2-1.2,0.5s-0.5,0.8-0.5,1.3H101.9z"/>
		<path d="M106.5,21.3c0.3,0.3,0.5,0.7,0.5,1.1h-0.6c0-0.3-0.1-0.5-0.3-0.7c-0.2-0.2-0.5-0.3-0.8-0.3c-0.3,0-0.6,0.1-0.8,0.3
			s-0.3,0.4-0.3,0.6c0,0.2,0.1,0.4,0.2,0.5s0.3,0.2,0.4,0.3c0.2,0.1,0.4,0.1,0.7,0.2c0.3,0.1,0.6,0.2,0.9,0.2
			c0.2,0.1,0.4,0.2,0.6,0.4s0.2,0.4,0.2,0.8c0,0.3-0.1,0.5-0.2,0.7s-0.4,0.4-0.6,0.5s-0.6,0.2-0.9,0.2c-0.5,0-1-0.1-1.3-0.4
			s-0.5-0.7-0.5-1.1h0.6c0,0.3,0.1,0.6,0.3,0.7s0.5,0.3,0.8,0.3c0.4,0,0.7-0.1,0.9-0.2s0.3-0.4,0.3-0.6c0-0.2-0.1-0.4-0.2-0.5
			c-0.1-0.1-0.3-0.2-0.4-0.3c-0.2-0.1-0.4-0.1-0.7-0.2c-0.3-0.1-0.6-0.2-0.8-0.2c-0.2-0.1-0.4-0.2-0.5-0.4c-0.1-0.2-0.2-0.4-0.2-0.7
			c0-0.3,0.1-0.5,0.2-0.7c0.1-0.2,0.4-0.4,0.6-0.5s0.6-0.2,0.9-0.2C105.8,20.9,106.2,21.1,106.5,21.3z"/>
		<path d="M108.3,19.3c0.1-0.1,0.2-0.1,0.3-0.1c0.1,0,0.2,0,0.3,0.1c0.1,0.1,0.1,0.2,0.1,0.3c0,0.1,0,0.2-0.1,0.3
			c-0.1,0.1-0.2,0.1-0.3,0.1c-0.1,0-0.2,0-0.3-0.1c-0.1-0.1-0.1-0.2-0.1-0.3C108.2,19.5,108.2,19.4,108.3,19.3z M108.9,21v4.9h-0.6
			V21H108.9z"/>
		<path d="M113.5,21.2c0.3,0.2,0.6,0.5,0.7,0.8V21h0.6v5.1c0,0.4-0.1,0.8-0.3,1.2s-0.5,0.6-0.8,0.8c-0.4,0.2-0.8,0.3-1.2,0.3
			c-0.4,0-0.8-0.1-1.1-0.2c-0.3-0.1-0.6-0.3-0.8-0.6c-0.2-0.3-0.3-0.5-0.4-0.8h0.6c0.1,0.3,0.3,0.6,0.6,0.8c0.3,0.2,0.7,0.3,1.1,0.3
			c0.5,0,0.9-0.2,1.2-0.5c0.3-0.3,0.5-0.7,0.5-1.2v-1.3c-0.2,0.3-0.4,0.6-0.7,0.8c-0.3,0.2-0.7,0.3-1.2,0.3c-0.4,0-0.8-0.1-1.2-0.3
			c-0.4-0.2-0.6-0.5-0.9-0.9c-0.2-0.4-0.3-0.8-0.3-1.3s0.1-0.9,0.3-1.3c0.2-0.4,0.5-0.7,0.9-0.9s0.8-0.3,1.2-0.3
			C112.8,20.9,113.2,21,113.5,21.2z M111.5,21.7c-0.3,0.2-0.5,0.4-0.7,0.7c-0.2,0.3-0.2,0.6-0.2,1.1c0,0.4,0.1,0.8,0.3,1.1
			c0.2,0.3,0.4,0.6,0.7,0.7c0.3,0.2,0.6,0.3,0.9,0.3c0.3,0,0.6-0.1,0.9-0.2c0.3-0.2,0.5-0.4,0.7-0.7c0.2-0.3,0.2-0.7,0.2-1.1
			s-0.1-0.8-0.2-1.1c-0.2-0.3-0.4-0.5-0.7-0.7c-0.3-0.2-0.6-0.2-0.9-0.2C112.1,21.5,111.8,21.5,111.5,21.7z"/>
		<path d="M119.5,21.1c0.3,0.2,0.5,0.4,0.7,0.7c0.2,0.3,0.3,0.7,0.3,1.1v2.9h-0.6v-2.8c0-0.5-0.1-1-0.4-1.2
			c-0.3-0.3-0.6-0.4-1.1-0.4c-0.5,0-0.8,0.1-1.1,0.4c-0.3,0.3-0.4,0.7-0.4,1.2v2.8h-0.6V21h0.6v0.8c0.2-0.3,0.4-0.5,0.7-0.7
			c0.3-0.2,0.6-0.2,1-0.2S119.2,21,119.5,21.1z"/>
		<path d="M126.1,23.7h-4.1c0,0.6,0.2,1,0.5,1.3s0.7,0.5,1.2,0.5c0.4,0,0.7-0.1,1-0.3c0.3-0.2,0.5-0.4,0.6-0.7h0.7
			c-0.2,0.4-0.4,0.8-0.8,1s-0.8,0.4-1.4,0.4c-0.5,0-0.9-0.1-1.2-0.3c-0.4-0.2-0.6-0.5-0.8-0.9c-0.2-0.4-0.3-0.8-0.3-1.3
			c0-0.5,0.1-1,0.3-1.3c0.2-0.4,0.5-0.7,0.9-0.9c0.4-0.2,0.8-0.3,1.3-0.3c0.5,0,0.9,0.1,1.2,0.3c0.3,0.2,0.6,0.5,0.8,0.8
			c0.2,0.3,0.3,0.7,0.3,1.2C126.2,23.4,126.1,23.5,126.1,23.7z M125.5,23.2c0-0.4-0.1-0.7-0.2-0.9c-0.1-0.3-0.4-0.5-0.6-0.6
			s-0.6-0.2-0.9-0.2c-0.5,0-0.9,0.2-1.2,0.5s-0.5,0.8-0.5,1.3H125.5z"/>
		<path d="M129.3,20.9v0.7h-0.2c-0.4,0-0.8,0.1-1,0.4s-0.3,0.6-0.3,1.2v2.8h-0.6V21h0.6v0.8C128.1,21.2,128.6,20.9,129.3,20.9z"/>
	</g>
</g>
</svg>
