<?xml version="1.0" encoding="utf-8"?>
<!-- Generator: Adobe Illustrator 18.0.0, SVG Export Plug-In . SVG Version: 6.00 Build 0)  -->
<!DOCTYPE svg PUBLIC "-//W3C//DTD SVG 1.1//EN" "http://www.w3.org/Graphics/SVG/1.1/DTD/svg11.dtd">
<svg version="1.1" id="Capa_1" xmlns="http://www.w3.org/2000/svg" xmlns:xlink="http://www.w3.org/1999/xlink" x="0px" y="0px"
	 viewBox="0 0 925.1 249.1" enable-background="new 0 0 925.1 249.1" xml:space="preserve">
<circle fill="none" stroke="#60ADC7" stroke-width="3" stroke-miterlimit="10" cx="535.9" cy="82" r="54.9"/>
<rect x="0" y="224.5" fill="#B9376B" width="177.8" height="9.1"/>
<g>
	<path fill="none" stroke="#2A2A25" stroke-width="3" stroke-miterlimit="10" d="M305,158.9h-21.5c-1.5,0-2.7-1.2-2.7-2.7v-38.6
		c0-1.5,1.2-2.7,2.7-2.7H305c1.5,0,2.7,1.2,2.7,2.7v38.6C307.8,157.7,306.6,158.9,305,158.9z"/>
	<circle fill="#2A2A25" cx="294.3" cy="153" r="1.9"/>
	<rect x="314" y="87.9" fill="none" stroke="#2A2A25" stroke-width="3" stroke-miterlimit="10" width="92.8" height="58.4"/>
	<rect x="413.3" y="111.9" fill="none" stroke="#2A2A25" stroke-width="3" stroke-miterlimit="10" width="35.2" height="49.9"/>
	<circle fill="#2A2A25" cx="319.8" cy="92.8" r="1.4"/>
	<circle fill="#2A2A25" cx="324.8" cy="92.8" r="1.4"/>
	<circle fill="#2A2A25" cx="329.2" cy="92.8" r="1.4"/>
	<circle fill="#2A2A25" cx="430.9" cy="156.1" r="2.1"/>
	
		<polyline fill="none" stroke="#2A2A25" stroke-width="2" stroke-linecap="round" stroke-linejoin="round" stroke-miterlimit="10" points="
		351.1,112.8 344.4,118.9 351.1,124.7 	"/>
	
		<polyline fill="none" stroke="#2A2A25" stroke-width="2" stroke-linecap="round" stroke-linejoin="round" stroke-miterlimit="10" points="
		364.5,124.7 371.2,118.6 364.5,112.8 	"/>
	
		<line fill="none" stroke="#2A2A25" stroke-width="2" stroke-linecap="round" stroke-linejoin="round" stroke-miterlimit="10" x1="361.2" y1="111.9" x2="353.6" y2="125.6"/>
</g>
<polygon fill="none" stroke="#2A2A25" stroke-width="3" stroke-miterlimit="10" points="509,67.1 496.7,67.7 497.6,55.3 548.2,6.3 
	559.7,18.2 "/>
<g>
	<path fill="none" stroke="#2A2A25" stroke-width="3" stroke-linecap="round" stroke-linejoin="round" stroke-miterlimit="10" d="
		M163.7,122.3c3.5-6.6,0.1-10.2-1.5-12.1c1.8-8.4-2.6-10.2-6.9-11.8c-0.2,0-0.3,0-0.5,0l-0.4-0.3c1.6-4.1,0.7-6.1-0.7-7.8
		c-1.2-1.3-2.5-1.8-3.6-1.9l0-0.1c-11.9-9.6-15.3-1.8-15.3-1.8H134c0,0-3.4-7.8-15.3,1.8l0,0.1c-1.2,0.1-2.4,0.6-3.6,1.9
		c-1.4,1.7-2.3,3.8-0.7,7.8c0,0-0.5,0.2-0.9,0.4c-4.3,1.6-8.7,3.4-6.9,11.8c-1.6,1.8-5,5.5-1.5,12.1c0,0-3.5,5.3-0.7,9.8
		c2.8,4.5,4.2,4.1,4.2,4.1s-2.2,7.6,7.1,11.3c3.7,4.2,5.7,6.2,11.3,5.3c4.1-1.8,7.1-3.5,7.5-8.1c0.4,4.6,3.4,6.3,7.5,8.1
		c5.6,0.9,7.6-1.1,11.3-5.3c9.3-3.7,7.1-11.3,7.1-11.3s1.4,0.4,4.2-4.1C167.2,127.6,163.7,122.3,163.7,122.3z"/>
	
		<line fill="none" stroke="#2A2A25" stroke-width="3" stroke-linecap="round" stroke-linejoin="round" stroke-miterlimit="10" x1="134.8" y1="86.5" x2="134.4" y2="144.6"/>
</g>
<g>
	<path fill="none" stroke="#2A2A25" stroke-width="3" stroke-linecap="round" stroke-linejoin="round" stroke-miterlimit="10" d="
		M49.8,136.6c-14.6,0-26.5,11.9-26.5,26.5c0,11.1,6.8,20.6,16.5,24.6v14c0,5.5,4.4,9.9,9.8,9.9s9.8-4.4,9.8-9.9h0.3v-14
		c9.7-3.9,16.5-13.5,16.5-24.6C76.3,148.5,64.4,136.6,49.8,136.6z"/>
	
		<line fill="none" stroke="#2A2A25" stroke-width="3" stroke-linecap="round" stroke-linejoin="round" stroke-miterlimit="10" x1="39.8" y1="201.6" x2="59.8" y2="201.6"/>
	
		<line fill="none" stroke="#2A2A25" stroke-width="3" stroke-linecap="round" stroke-linejoin="round" stroke-miterlimit="10" x1="39.8" y1="192.9" x2="59.2" y2="192.9"/>
</g>
<g>
	
		<polygon fill="none" stroke="#2A2A25" stroke-width="3" stroke-linecap="round" stroke-linejoin="round" stroke-miterlimit="10" points="
		575.6,87.4 598.5,71.2 575.6,55.7 	"/>
	
		<circle fill="none" stroke="#2A2A25" stroke-width="3" stroke-linecap="round" stroke-linejoin="round" stroke-miterlimit="10" cx="584" cy="70.7" r="26.7"/>
</g>
<polygon fill="none" stroke="#2A2A25" stroke-width="3" stroke-linecap="round" stroke-linejoin="round" stroke-miterlimit="10" points="
	543.8,123.6 543.8,83.5 490.5,83.5 490.5,136.8 531.2,136.8 "/>
<g>
	<path fill="none" stroke="#2A2A25" stroke-width="3" stroke-linecap="round" stroke-linejoin="round" stroke-miterlimit="10" d="
		M203,46.1c0,0,20.2-21.4,42.7-1.5"/>
	<path fill="none" stroke="#2A2A25" stroke-width="3" stroke-linecap="round" stroke-linejoin="round" stroke-miterlimit="10" d="
		M201.3,58.4c0,0,10.6-17.6,25.5-15.8s20.4,13.2,20.4,13.2"/>
	<path fill="none" stroke="#2A2A25" stroke-width="3" stroke-linecap="round" stroke-linejoin="round" stroke-miterlimit="10" d="
		M201.3,66c0,0,3.8,0.8,9.8-10.5c0,0,9.6-14.1,26.5-2.6c4.7,4.3,8.8,10,5.3,20.8c-0.6,9.7,2.9,12.6,2.9,12.6"/>
	<path fill="none" stroke="#2A2A25" stroke-width="3" stroke-linecap="round" stroke-linejoin="round" stroke-miterlimit="10" d="
		M247.2,60.5c0,0,4.4,3,1.8,19.3"/>
	<path fill="none" stroke="#2A2A25" stroke-width="3" stroke-linecap="round" stroke-linejoin="round" stroke-miterlimit="10" d="
		M201.3,75.1c0,0,6.8-2.9,12.2-12.9c5.4-10,15.9-6.7,15.9-6.7s10,3.8,8.2,14.7c-1.8,10.8-3.2,13.3,5.6,19.4"/>
	<path fill="none" stroke="#2A2A25" stroke-width="3" stroke-linecap="round" stroke-linejoin="round" stroke-miterlimit="10" d="
		M201.3,84.2c0,0,13.5-8.5,18.4-19.6c3.2-4.1,9.4-2.3,9.4-2.3s6.4,2.6,0,12.9s-20.5,20.2-20.5,20.2"/>
	<path fill="none" stroke="#2A2A25" stroke-width="3" stroke-linecap="round" stroke-linejoin="round" stroke-miterlimit="10" d="
		M231.9,81c0,0-6,8.8,3.2,14.3"/>
	<path fill="none" stroke="#2A2A25" stroke-width="3" stroke-linecap="round" stroke-linejoin="round" stroke-miterlimit="10" d="
		M216.6,96.8c0,0,8.2-8.8,10.2-2.6c2,6.1,1.1,5.1,1.1,5.1"/>
	<path fill="none" stroke="#2A2A25" stroke-width="3" stroke-linecap="round" stroke-linejoin="round" stroke-miterlimit="10" d="
		M226.8,68.4c0,0-14.7,18.4-23.8,22.5"/>
</g>
<g>
	
		<circle fill="none" stroke="#2A2A25" stroke-width="3" stroke-linecap="round" stroke-linejoin="round" stroke-miterlimit="10" cx="865" cy="79.8" r="27.5"/>
	<path fill="none" stroke="#2A2A25" stroke-width="3" stroke-linecap="round" stroke-linejoin="round" stroke-miterlimit="10" d="
		M903.1,128.2l-20.5-20.5c-1.7-1.7-1.7-4.5,0-6.1v0c1.7-1.7,4.5-1.7,6.1,0l20.5,20.5c1.7,1.7,1.7,4.5,0,6.1v0
		C907.5,129.8,904.8,129.8,903.1,128.2z"/>
	
		<rect x="861.8" y="64" fill="none" stroke="#2A2A25" stroke-width="3" stroke-linecap="round" stroke-linejoin="round" stroke-miterlimit="10" width="7" height="29.4"/>
	
		<rect x="873.6" y="67.3" fill="none" stroke="#2A2A25" stroke-width="3" stroke-linecap="round" stroke-linejoin="round" stroke-miterlimit="10" width="7" height="26.1"/>
	
		<rect x="850.1" y="71.3" fill="none" stroke="#2A2A25" stroke-width="3" stroke-linecap="round" stroke-linejoin="round" stroke-miterlimit="10" width="7" height="22"/>
</g>
<g>
	
		<rect x="681.9" y="110.6" fill="none" stroke="#2A2A25" stroke-width="3" stroke-linecap="round" stroke-linejoin="round" stroke-miterlimit="10" width="40.4" height="65.6"/>
	
		<rect x="704.7" y="122.5" fill="#FFFFFF" stroke="#2A2A25" stroke-width="3" stroke-linecap="round" stroke-linejoin="round" stroke-miterlimit="10" width="40.4" height="65.6"/>
	
		<line fill="#FFFFFF" stroke="#2A2A25" stroke-width="3" stroke-linecap="round" stroke-linejoin="round" stroke-miterlimit="10" x1="704.7" y1="122.5" x2="722.2" y2="110.6"/>
</g>
<g>
	
		<circle fill="#FFFFFF" stroke="#2A2A25" stroke-width="3" stroke-linecap="round" stroke-linejoin="round" stroke-miterlimit="10" cx="849.8" cy="159.3" r="7.9"/>
	
		<circle fill="#FFFFFF" stroke="#2A2A25" stroke-width="3" stroke-linecap="round" stroke-linejoin="round" stroke-miterlimit="10" cx="819.8" cy="177.5" r="7.9"/>
	
		<circle fill="#FFFFFF" stroke="#2A2A25" stroke-width="3" stroke-linecap="round" stroke-linejoin="round" stroke-miterlimit="10" cx="850.1" cy="197.4" r="7.9"/>
	
		<line fill="#FFFFFF" stroke="#2A2A25" stroke-width="3" stroke-linecap="round" stroke-linejoin="round" stroke-miterlimit="10" x1="841.9" y1="162.3" x2="823.7" y2="170.6"/>
	
		<line fill="#FFFFFF" stroke="#2A2A25" stroke-width="3" stroke-linecap="round" stroke-linejoin="round" stroke-miterlimit="10" x1="823.7" y1="185.5" x2="841.9" y2="195.5"/>
</g>
<rect x="-47.9" y="93.1" fill="none" width="182.3" height="43.4"/>
<text transform="matrix(1 0 0 1 4.161 102.5928)"><tspan x="0" y="0" font-family="'Rokkitt-Bold'" font-size="16">Generación </tspan><tspan x="11.1" y="16" font-family="'Rokkitt-Bold'" font-size="16">de ideas</tspan></text>
<rect x="222.1" y="240" fill="#60ADC7" width="396.8" height="9.1"/>
<rect x="667.3" y="221.2" fill="#A7BE49" width="257.8" height="9.1"/>
<g>
	<rect x="517.1" y="21.5" fill="none" width="118.5" height="30.9"/>
	<text transform="matrix(1 0 0 1 564.9357 33.3862)" fill="#60ADC7" font-family="'Poppins-Medium'" font-size="16">++</text>
</g>
<text transform="matrix(1 0 0 1 103.3554 177.9592)" font-family="'Rokkitt-Bold'" font-size="16">Estrategia</text>
<text transform="matrix(1 0 0 1 194.683 121.1294)" font-family="'Rokkitt-Bold'" font-size="16">Branding</text>
<text transform="matrix(1 0 0 1 283.4167 185.7176)" font-family="'Rokkitt-Bold'" font-size="16">Diseño/Desarrollo web</text>
<text transform="matrix(1 0 0 1 486.4526 166.492)"><tspan x="0" y="0" font-family="'Rokkitt-Bold'" font-size="16">Project </tspan><tspan x="0" y="19.2" font-family="'Rokkitt-Bold'" font-size="16">Management</tspan></text>
<text transform="matrix(1 0 0 1 583.9545 120.5807)"><tspan x="0" y="0" font-family="'Rokkitt-Bold'" font-size="16">Motion </tspan><tspan x="0" y="19.2" font-family="'Rokkitt-Bold'" font-size="16">Graphics</tspan></text>
<text transform="matrix(1 0 0 1 441.9576 21.5808)" font-family="'Rokkitt-Bold'" font-size="16">Ilustración</text>
<text transform="matrix(1 0 0 1 681.8673 100.263)" font-family="'Rokkitt-Bold'" font-size="16">Off</text>
<text transform="matrix(1 0 0 1 811.9133 43.6663)" font-family="'Rokkitt-Bold'" font-size="16">Analítica</text>
<text transform="matrix(1 0 0 1 686.6956 18.6663)" font-family="'Rokkitt-Bold'" font-size="16">Paid Media</text>
<text transform="matrix(1 0 0 1 790.1673 155.2199)" font-family="'Rokkitt-Bold'" font-size="16">Social</text>
<rect x="688.7" y="34.5" fill="#FFFFFF" stroke="#2A2A25" stroke-width="3" stroke-linecap="round" stroke-linejoin="round" stroke-miterlimit="10" width="101.5" height="18"/>
<rect x="751.2" y="61.5" fill="#FFFFFF" stroke="#2A2A25" stroke-width="3" stroke-linecap="round" stroke-linejoin="round" stroke-miterlimit="10" width="39" height="29"/>
</svg>
