<?xml version="1.0" encoding="utf-8"?>
<!-- Generator: Adobe Illustrator 18.0.0, SVG Export Plug-In . SVG Version: 6.00 Build 0)  -->
<!DOCTYPE svg PUBLIC "-//W3C//DTD SVG 1.1//EN" "http://www.w3.org/Graphics/SVG/1.1/DTD/svg11.dtd">
<svg version="1.1" id="Capa_1" xmlns="http://www.w3.org/2000/svg" xmlns:xlink="http://www.w3.org/1999/xlink" x="0px" y="0px"
	 viewBox="0 0 50 50" enable-background="new 0 0 50 50" xml:space="preserve">
<g>
	<g>
		<path fill-rule="evenodd" clip-rule="evenodd" fill="#2A2A25" d="M45.7,18.4C42.8,9.5,34.4,3.5,25,3.5c-9.4,0-17.8,6-20.7,14.9
			c-2.9,8.9,0.3,18.6,7.9,24c7.6,5.5,18,5.5,25.6,0C45.5,36.9,48.6,27.2,45.7,18.4z M36.7,40.8c-7,5-16.4,5-23.3,0
			c-7-5-9.9-13.8-7.2-21.9C8.8,10.9,16.4,5.4,25,5.4S41.2,10.9,43.9,19C46.5,27,43.6,35.8,36.7,40.8z M33.7,19.3
			c0.9-0.6,1.5-1.3,1.8-2.3c0,0,0,0,0,0c0,0,0,0-0.1,0c-0.8,0.4-1.6,0.7-2.5,0.9c-0.1,0-0.2,0-0.2-0.1c-1-1-2.3-1.4-3.7-1.2
			c-1.2,0.2-2.2,0.8-2.9,1.9c-0.5,0.8-0.7,1.7-0.6,2.7c0,0.1,0,0.3,0.1,0.5c-3.5-0.2-6.4-1.7-8.7-4.4c-0.5,1-0.7,2-0.5,3
			c0.2,1.1,0.8,1.9,1.7,2.5c-0.7,0-1.3-0.2-1.9-0.5c0,0.8,0.2,1.5,0.6,2.2c0.6,1,1.6,1.6,2.7,1.9c0,0,0,0-0.1,0
			c-0.6,0.1-1.2,0.2-1.8,0.1c0.4,1.3,1.7,2.8,3.9,2.9c-0.6,0.5-1.3,0.9-2,1.2c-1.3,0.5-2.8,0.7-4.2,0.6c0,0,0.1,0,0.1,0.1
			c2.1,1.3,4.3,1.9,6.8,1.8c0.8,0,1.6-0.1,2.4-0.3c2.3-0.5,4.2-1.6,5.8-3.2c1-1,1.7-2.1,2.3-3.3c0.6-1.2,0.9-2.4,1.1-3.7
			c0.1-0.6,0.1-1.2,0.1-1.8c0-0.1,0-0.1,0.1-0.1c0.6-0.4,1.1-0.9,1.5-1.4c0.2-0.2,0.3-0.4,0.5-0.6c0,0,0,0,0,0
			C35.3,19,34.5,19.3,33.7,19.3z"/>
	</g>
</g>
</svg>
